<svg width="15" height="17" viewBox="0 0 15 17" fill="none" xmlns="http://www.w3.org/2000/svg">
<path d="M1.92503 16.501H0.825013C0.606206 16.501 0.39636 16.4141 0.241641 16.2593C0.0869207 16.1046 0 15.8948 0 15.676V10.7259C0 10.5071 0.0869207 10.2972 0.241641 10.1425C0.39636 9.9878 0.606206 9.90088 0.825013 9.90088H1.92503C2.14384 9.90088 2.35368 9.9878 2.5084 10.1425C2.66312 10.2972 2.75004 10.5071 2.75004 10.7259V15.676C2.75004 15.8948 2.66312 16.1046 2.5084 16.2593C2.35368 16.4141 2.14384 16.501 1.92503 16.501Z"   />
<path d="M9.62516 16.5002H8.52515C8.30634 16.5002 8.0965 16.4133 7.94178 16.2586C7.78706 16.1039 7.70013 15.894 7.70013 15.6752V7.42511C7.70013 7.2063 7.78706 6.99646 7.94178 6.84174C8.0965 6.68702 8.30634 6.6001 8.52515 6.6001H9.62516C9.84397 6.6001 10.0538 6.68702 10.2085 6.84174C10.3633 6.99646 10.4502 7.2063 10.4502 7.42511V15.6752C10.4502 15.894 10.3633 16.1039 10.2085 16.2586C10.0538 16.4133 9.84397 16.5002 9.62516 16.5002Z"/>
<path d="M13.4752 16.5006H12.3752C12.1564 16.5006 11.9465 16.4137 11.7918 16.259C11.6371 16.1042 11.5502 15.8944 11.5502 15.6756V3.57541C11.5502 3.3566 11.6371 3.14676 11.7918 2.99204C11.9465 2.83732 12.1564 2.7504 12.3752 2.7504H13.4752C13.694 2.7504 13.9039 2.83732 14.0586 2.99204C14.2133 3.14676 14.3002 3.3566 14.3002 3.57541V15.6756C14.3002 15.8944 14.2133 16.1042 14.0586 16.259C13.9039 16.4137 13.694 16.5006 13.4752 16.5006Z"/>
<path d="M5.77507 16.5003H4.67505C4.45624 16.5003 4.2464 16.4133 4.09168 16.2586C3.93696 16.1039 3.85004 15.894 3.85004 15.6752V0.825013C3.85004 0.606206 3.93696 0.396361 4.09168 0.241641C4.2464 0.0869208 4.45624 0 4.67505 0H5.77507C5.99387 0 6.20372 0.0869208 6.35844 0.241641C6.51316 0.396361 6.60008 0.606206 6.60008 0.825013V15.6752C6.60008 15.894 6.51316 16.1039 6.35844 16.2586C6.20372 16.4133 5.99387 16.5003 5.77507 16.5003Z"/>
</svg>
