<svg width="24" height="24" viewBox="0 0 30 31" fill="none" xmlns="http://www.w3.org/2000/svg">
<rect width="30" height="30.1667" rx="8" fill="#3182CE"/>
<path d="M9.92503 23.501H8.82501C8.60621 23.501 8.39636 23.4141 8.24164 23.2593C8.08692 23.1046 8 22.8948 8 22.676V17.7259C8 17.5071 8.08692 17.2972 8.24164 17.1425C8.39636 16.9878 8.60621 16.9009 8.82501 16.9009H9.92503C10.1438 16.9009 10.3537 16.9878 10.5084 17.1425C10.6631 17.2972 10.75 17.5071 10.75 17.7259V22.676C10.75 22.8948 10.6631 23.1046 10.5084 23.2593C10.3537 23.4141 10.1438 23.501 9.92503 23.501Z" fill="white"/>
<path d="M17.6252 23.5002H16.5251C16.3063 23.5002 16.0965 23.4133 15.9418 23.2586C15.7871 23.1039 15.7001 22.894 15.7001 22.6752V14.4251C15.7001 14.2063 15.7871 13.9965 15.9418 13.8417C16.0965 13.687 16.3063 13.6001 16.5251 13.6001H17.6252C17.844 13.6001 18.0538 13.687 18.2085 13.8417C18.3633 13.9965 18.4502 14.2063 18.4502 14.4251V22.6752C18.4502 22.894 18.3633 23.1039 18.2085 23.2586C18.0538 23.4133 17.844 23.5002 17.6252 23.5002Z" fill="white"/>
<path d="M21.4752 23.5006H20.3752C20.1564 23.5006 19.9465 23.4137 19.7918 23.2589C19.6371 23.1042 19.5502 22.8944 19.5502 22.6756V10.5754C19.5502 10.3566 19.6371 10.1467 19.7918 9.99201C19.9465 9.83729 20.1564 9.75037 20.3752 9.75037H21.4752C21.694 9.75037 21.9039 9.83729 22.0586 9.99201C22.2133 10.1467 22.3002 10.3566 22.3002 10.5754V22.6756C22.3002 22.8944 22.2133 23.1042 22.0586 23.2589C21.9039 23.4137 21.694 23.5006 21.4752 23.5006Z" fill="white"/>
<path d="M13.7751 23.5003H12.675C12.4562 23.5003 12.2464 23.4133 12.0917 23.2586C11.937 23.1039 11.85 22.894 11.85 22.6752V7.82501C11.85 7.60621 11.937 7.39636 12.0917 7.24164C12.2464 7.08692 12.4562 7 12.675 7H13.7751C13.9939 7 14.2037 7.08692 14.3584 7.24164C14.5132 7.39636 14.6001 7.60621 14.6001 7.82501V22.6752C14.6001 22.894 14.5132 23.1039 14.3584 23.2586C14.2037 23.4133 13.9939 23.5003 13.7751 23.5003Z" fill="white"/>
</svg>
