<svg width="24" height="24" viewBox="0 0 24 24" fill="none" xmlns="http://www.w3.org/2000/svg">
<rect width="24" height="24" rx="8" fill="#3182CE"/>
<path d="M9.66667 13.5556C9.66667 14.8443 11.7558 15.8889 14.3333 15.8889C16.9109 15.8889 19 14.8443 19 13.5556C19 12.2668 16.9109 11.2222 14.3333 11.2222C11.7558 11.2222 9.66667 12.2668 9.66667 13.5556Z" fill="white"/>
<path d="M9.66667 13.5556V16.6667C9.66667 17.9547 11.7558 19 14.3333 19C16.9109 19 19 17.9547 19 16.6667V13.5556" fill="white"/>
<path d="M5 7.33333C5 8.16711 5.88978 8.93711 7.33333 9.354C8.77689 9.77089 10.5564 9.77089 12 9.354C13.4436 8.93711 14.3333 8.16711 14.3333 7.33333C14.3333 6.49956 13.4436 5.72956 12 5.31267C10.5564 4.89578 8.77689 4.89578 7.33333 5.31267C5.88978 5.72956 5 6.49956 5 7.33333Z" fill="white"/>
<path d="M5 7.33333V15.1111C5 15.8018 5.60044 16.2389 6.55556 16.6667" fill="white"/>
<path d="M5 11.2222C5 11.9129 5.60044 12.35 6.55556 12.7778Z" fill="white"/>
<path d="M9.66667 13.5556C9.66667 14.8443 11.7558 15.8889 14.3333 15.8889C16.9109 15.8889 19 14.8443 19 13.5556M9.66667 13.5556C9.66667 12.2668 11.7558 11.2222 14.3333 11.2222C16.9109 11.2222 19 12.2668 19 13.5556M9.66667 13.5556V16.6667C9.66667 17.9547 11.7558 19 14.3333 19C16.9109 19 19 17.9547 19 16.6667V13.5556M5 7.33333C5 8.16711 5.88978 8.93711 7.33333 9.354C8.77689 9.77089 10.5564 9.77089 12 9.354C13.4436 8.93711 14.3333 8.16711 14.3333 7.33333C14.3333 6.49956 13.4436 5.72956 12 5.31267C10.5564 4.89578 8.77689 4.89578 7.33333 5.31267C5.88978 5.72956 5 6.49956 5 7.33333ZM5 7.33333V15.1111C5 15.8018 5.60044 16.2389 6.55556 16.6667M5 11.2222C5 11.9129 5.60044 12.35 6.55556 12.7778" stroke="white" stroke-width="1.4" stroke-linecap="round" stroke-linejoin="round"/>
</svg>
