<svg width="24" height="24" viewBox="0 0 24 24" fill="none" xmlns="http://www.w3.org/2000/svg">
<rect width="24" height="24" rx="8" fill="#3182CE"/>
<path fill-rule="evenodd" clip-rule="evenodd" d="M13.2179 10.747L14.4517 17.5708H17.0667V11.3399C16.991 11.3202 16.9234 11.2692 16.8876 11.1946L14.0179 5.19918C13.9542 5.06569 14.0139 4.90864 14.1453 4.84582L15.9124 4.0213C16.0478 3.95848 16.1672 4.04486 16.2706 4.14694C17.8985 5.79205 18.798 7.82193 19.1403 10.1423C19.1602 10.2876 19.1443 10.4329 19.0129 10.4957L18.0896 10.9276V17.5669H20V19H4V17.5669H7.70149L8.53333 12.9771L7.49055 13.4718C6.76219 13.8173 5.87861 13.515 5.52836 12.7965L5.48856 12.718C5.13831 11.9995 5.44478 11.1278 6.17313 10.7823L14.002 7.05238L15.3194 9.74187L13.2179 10.7431V10.747ZM10.1493 12.2076L9.86269 13.782H12.2905L11.8567 11.3948L10.1453 12.2076H10.1493ZM9.60398 15.2151L9.17811 17.5669H12.9751L12.5493 15.2151H9.60398Z" fill="white"/>
</svg>
