<svg width="24" height="24" viewBox="0 0 24 24" fill="none" xmlns="http://www.w3.org/2000/svg">
<rect width="24" height="24" rx="8" fill="#3182CE"/>
<path d="M6.70497 12.18C6.60791 12.1568 6.50718 12.1531 6.40869 12.1693C6.31021 12.1855 6.21594 12.2212 6.13142 12.2743C6.04691 12.3274 5.97383 12.3968 5.91649 12.4785C5.85914 12.5602 5.81868 12.6525 5.79747 12.75L5.42997 14.205C5.38974 14.3978 5.42697 14.5987 5.53362 14.7643C5.64027 14.9299 5.80778 15.0469 5.99997 15.09C6.19291 15.1376 6.39684 15.1067 6.56699 15.004C6.73714 14.9013 6.8596 14.7354 6.90747 14.5425L7.27497 13.0875C7.29821 12.9904 7.30184 12.8897 7.28565 12.7912C7.26946 12.6927 7.23378 12.5985 7.1807 12.514C7.12761 12.4294 7.05819 12.3564 6.9765 12.299C6.89481 12.2417 6.8025 12.2012 6.70497 12.18V12.18ZM19.455 17.82L16.455 5.82C16.4158 5.66107 16.3256 5.51934 16.1983 5.41642C16.0711 5.3135 15.9136 5.25506 15.75 5.25H13.5C13.3011 5.25 13.1103 5.32902 12.9696 5.46967C12.829 5.61032 12.75 5.80109 12.75 6V18C12.75 18.1989 12.829 18.3897 12.9696 18.5303C13.1103 18.671 13.3011 18.75 13.5 18.75H18.75C18.8639 18.7506 18.9765 18.7253 19.0791 18.6759C19.1818 18.6265 19.2718 18.5544 19.3425 18.465C19.4165 18.3768 19.4692 18.2727 19.4965 18.1609C19.5238 18.049 19.525 17.9324 19.5 17.82H19.455ZM14.25 17.25V6.75H15.165L17.79 17.25H14.25ZM7.79997 7.815C7.70393 7.79032 7.60394 7.78493 7.5058 7.79915C7.40766 7.81337 7.31332 7.8469 7.22822 7.89782C7.14313 7.94874 7.06898 8.01602 7.01006 8.09578C6.95114 8.17554 6.90862 8.2662 6.88497 8.3625L6.52497 9.8175C6.47739 10.0104 6.50832 10.2144 6.61097 10.3845C6.71362 10.5547 6.8796 10.6771 7.07247 10.725H7.25247C7.4238 10.73 7.59166 10.6762 7.72812 10.5724C7.86458 10.4687 7.96141 10.3214 8.00247 10.155L8.36247 8.7C8.40293 8.50824 8.36672 8.30826 8.26159 8.14286C8.15646 7.97745 7.99077 7.85977 7.79997 7.815V7.815ZM8.63247 6.75H10.1325C10.3314 6.75 10.5221 6.67098 10.6628 6.53033C10.8035 6.38968 10.8825 6.19891 10.8825 6C10.8825 5.80109 10.8035 5.61032 10.6628 5.46967C10.5221 5.32902 10.3314 5.25 10.1325 5.25H8.63247C8.43356 5.25 8.24279 5.32902 8.10214 5.46967C7.96149 5.61032 7.88247 5.80109 7.88247 6C7.88247 6.19891 7.96149 6.38968 8.10214 6.53033C8.24279 6.67098 8.43356 6.75 8.63247 6.75ZM6.17997 17.25C6.20384 17.0511 6.14771 16.8508 6.02394 16.6933C5.90017 16.5358 5.71888 16.4339 5.51997 16.41C5.32106 16.3861 5.12081 16.4423 4.96328 16.566C4.80575 16.6898 4.70384 16.8711 4.67997 17.07L4.49997 17.82C4.47188 17.9307 4.46944 18.0463 4.49284 18.1581C4.51623 18.2699 4.56485 18.3749 4.63497 18.465C4.70791 18.5575 4.80159 18.6314 4.90844 18.6809C5.01528 18.7305 5.13228 18.7541 5.24997 18.75H5.99997C6.19888 18.7739 6.39913 18.7177 6.55666 18.594C6.71419 18.4702 6.8161 18.2889 6.83997 18.09C6.86384 17.8911 6.80771 17.6908 6.68394 17.5333C6.56017 17.3758 6.37888 17.2739 6.17997 17.25ZM10.5 7.8825C10.3011 7.8825 10.1103 7.96152 9.96964 8.10217C9.82899 8.24282 9.74997 8.43359 9.74997 8.6325V10.1325C9.74997 10.3314 9.82899 10.5222 9.96964 10.6628C10.1103 10.8035 10.3011 10.8825 10.5 10.8825C10.6989 10.8825 10.8896 10.8035 11.0303 10.6628C11.171 10.5222 11.25 10.3314 11.25 10.1325V8.6325C11.25 8.43359 11.171 8.24282 11.0303 8.10217C10.8896 7.96152 10.6989 7.8825 10.5 7.8825ZM10.5 12.3825C10.3011 12.3825 10.1103 12.4615 9.96964 12.6022C9.82899 12.7428 9.74997 12.9336 9.74997 13.1325V14.6325C9.74997 14.8314 9.82899 15.0222 9.96964 15.1628C10.1103 15.3035 10.3011 15.3825 10.5 15.3825C10.6989 15.3825 10.8896 15.3035 11.0303 15.1628C11.171 15.0222 11.25 14.8314 11.25 14.6325V13.1325C11.25 12.9336 11.171 12.7428 11.0303 12.6022C10.8896 12.4615 10.6989 12.3825 10.5 12.3825ZM10.5 16.8825C10.3698 16.8825 10.2419 16.9164 10.1288 16.9809C10.0157 17.0453 9.92135 17.138 9.85497 17.25H8.99997C8.80106 17.25 8.61029 17.329 8.46964 17.4697C8.32899 17.6103 8.24997 17.8011 8.24997 18C8.24997 18.1989 8.32899 18.3897 8.46964 18.5303C8.61029 18.671 8.80106 18.75 8.99997 18.75H10.5C10.6989 18.75 10.8896 18.671 11.0303 18.5303C11.171 18.3897 11.25 18.1989 11.25 18V17.6325C11.25 17.4336 11.171 17.2428 11.0303 17.1022C10.8896 16.9615 10.6989 16.8825 10.5 16.8825Z" fill="white"/>
</svg>
