<svg width="24" height="24" viewBox="0 0 24 24" fill="none" xmlns="http://www.w3.org/2000/svg">
<rect width="24" height="24" rx="8" fill="#3182CE"/>
<path d="M7.49955 11.5257C8.07702 11.5257 8.52609 11.0766 8.52609 10.4992C8.52609 9.92175 8.07702 9.47264 7.49955 9.47264C6.92216 9.47264 6.47303 9.92175 6.47303 10.4992C6.47303 11.0766 6.9221 11.5257 7.49955 11.5257Z" fill="white"/>
<path fill-rule="evenodd" clip-rule="evenodd" d="M16.4985 7.00158L19.4286 7.00156C19.7144 7.00156 20 7.33496 20 7.66819C20 8.06811 19.7144 8.33478 19.4286 8.33478V12.3342C19.7144 12.3342 20 12.6675 20 13.0009C20 13.4008 19.7144 13.6674 19.4286 13.6674V17.6668C19.7144 17.6668 20 18.0001 20 18.3335C20 18.7334 19.7144 19 19.4286 19H12.5723C12.2866 19 12.001 18.7334 12.001 18.3334C12.001 18.0001 12.2866 17.6668 12.5723 17.6668V13.6674C12.2866 13.6674 12.001 13.4008 12.001 13.0008C12.001 12.6675 12.2866 12.3342 12.5723 12.3342V8.33478C12.2866 8.33478 12.001 8.06811 12.001 7.66819C12.001 7.33496 12.2866 7.0016 12.5723 7.0016L15.4986 7.00158L15.4986 5.24984C15.4986 5.11178 15.3867 4.99987 15.2486 4.99987H8.25143C8.11338 4.99987 8.00146 5.11178 8.00146 5.24984V7.03533C9.69645 7.27875 10.9991 8.73682 10.9991 10.4992C10.9991 12.2622 9.69545 13.7207 7.99951 13.9633V18.998H6.99963V13.9633C5.30369 13.7207 4 12.2622 4 10.4992C4 8.73547 5.30469 7.27651 7.00159 7.03477V4.99987C7.00159 4.44766 7.44925 4 8.00146 4H15.4986C16.0508 4 16.4985 4.44766 16.4985 4.99987L16.4985 7.00158ZM4.93322 9.9859H5.5106L5.5108 9.98531C5.57495 9.79303 5.63907 9.60082 5.76731 9.47264L5.31811 9.08769L6.02389 8.38195L6.40881 8.76686C6.60136 8.63862 6.72966 8.57442 6.92216 8.57442V7.93284H7.94866V8.51026C8.14114 8.57442 8.33357 8.63862 8.46197 8.70274L8.84689 8.31779L9.55267 9.02349L9.10352 9.40848C9.23184 9.60095 9.29596 9.72927 9.36012 9.92175H10.0659V10.9483L9.48851 10.9483L9.4883 10.949C9.42413 11.1412 9.35997 11.3334 9.23188 11.4615L9.68099 11.8465L8.9752 12.5522L8.59029 12.1032C8.39773 12.2315 8.26941 12.2956 8.07702 12.2956V13.0655H6.98625V12.4881L6.98376 12.4872C6.79216 12.4233 6.60081 12.3595 6.47296 12.2956L6.08805 12.7447L5.3823 12.039L5.83146 11.654C5.70315 11.4615 5.63897 11.3332 5.57482 11.1408H4.93322V9.9859ZM13.8346 13.6354V17.1684C13.8346 17.4445 14.0584 17.6684 14.3345 17.6684C14.6106 17.6684 14.8344 17.4445 14.8344 17.1684V13.6354H13.8346ZM13.8346 8.83351C13.8346 8.55741 14.0584 8.33358 14.3345 8.33358C14.6106 8.33358 14.8344 8.5574 14.8344 8.83351V12.3491H13.8346V8.83351Z" fill="white"/>
</svg>
