<svg width="24" height="24" viewBox="0 0 24 24" fill="none" xmlns="http://www.w3.org/2000/svg">
<rect width="24" height="24" rx="8" fill="#3182CE"/>
<path d="M16.5 19H7.5C6.67157 19 6 18.3285 6 17.5001V5.50059C6 4.6722 6.67157 4.00065 7.5 4.00065H12.75C12.7567 3.99978 12.7635 3.99978 12.7703 4.00065H12.7747C12.7818 4.00287 12.7891 4.00438 12.7965 4.00515C12.8626 4.00939 12.9279 4.02225 12.9908 4.0434H13.002H13.0132H13.0223C13.0361 4.0531 13.0491 4.06388 13.0612 4.07565C13.143 4.11197 13.2174 4.16278 13.281 4.22564L17.781 8.72545C17.8439 8.78903 17.8947 8.86348 17.931 8.94519C17.9377 8.96169 17.943 8.97744 17.9482 8.99469L17.9557 9.01569C17.9767 9.07823 17.989 9.14332 17.9925 9.20918C17.9932 9.21665 17.9949 9.22398 17.9977 9.23093V9.23543C17.999 9.24034 17.9997 9.24536 18 9.25042V17.5001C18 17.8979 17.842 18.2794 17.5607 18.5607C17.2794 18.842 16.8978 19 16.5 19ZM12.75 5.50059V9.25042H16.5L12.75 5.50059Z" fill="white"/>
<path d="M9.00084 16.0001V10.0001M12.0008 16.0001V13.1112M15.0008 16.0001V11.5557" stroke="#3182CE" stroke-width="1.4" stroke-linecap="round" stroke-linejoin="round"/>
</svg>
