<svg width="47" height="40" viewBox="0 0 47 40" fill="none" xmlns="http://www.w3.org/2000/svg">
<path d="M11.7556 7.99719C9.75636 7.99719 8.07275 9.62818 8.07275 11.6801C8.07275 13.732 9.70375 15.363 11.7556 15.363C13.7549 15.363 15.4385 13.732 15.4385 11.6801C15.4385 9.62818 13.8075 7.99719 11.7556 7.99719Z" fill="white"/>
<path d="M11.7556 15.9945C9.75636 15.9945 8.07275 17.6255 8.07275 19.6774C8.07275 21.6767 9.70375 23.3603 11.7556 23.3603C13.7549 23.3603 15.4385 21.7293 15.4385 19.6774C15.4385 17.6781 13.8075 15.9945 11.7556 15.9945Z" fill="white"/>
<path d="M11.7556 24.0437C9.75636 24.0437 8.07275 25.6747 8.07275 27.7266C8.07275 29.7259 9.70375 31.4095 11.7556 31.4095C13.7549 31.4095 15.4385 29.7785 15.4385 27.7266C15.4385 25.6747 13.8075 24.0437 11.7556 24.0437Z" fill="white"/>
<path d="M3.68289 7.99719C1.6836 7.99719 0 9.62818 0 11.6801C0 13.732 1.63099 15.363 3.68289 15.363C5.68217 15.363 7.36577 13.732 7.36577 11.6801C7.36577 9.62818 5.73478 7.99719 3.68289 7.99719Z" fill="white"/>
<path d="M3.68289 15.9945C1.6836 15.9945 0 17.6255 0 19.6774C0 21.6767 1.63099 23.3603 3.68289 23.3603C5.68217 23.3603 7.36577 21.7293 7.36577 19.6774C7.36577 17.6781 5.73478 15.9945 3.68289 15.9945Z" fill="white"/>
<path d="M3.68289 24.0437C1.6836 24.0437 0 25.6747 0 27.7266C0 29.7259 1.63099 31.4095 3.68289 31.4095C5.68217 31.4095 7.36577 29.7785 7.36577 27.7266C7.36577 25.6747 5.73478 24.0437 3.68289 24.0437Z" fill="white"/>
<path d="M19.5418 7.99719C17.5425 7.99719 15.8589 9.62818 15.8589 11.6801C15.8589 13.732 17.4899 15.363 19.5418 15.363C21.5937 15.363 23.2247 13.732 23.2247 11.6801C23.2247 9.62818 21.5411 7.99719 19.5418 7.99719Z" fill="white"/>
<path d="M19.5418 15.9945C17.5425 15.9945 15.8589 17.6255 15.8589 19.6774C15.8589 21.6767 17.4899 23.3603 19.5418 23.3603C21.5937 23.3603 23.2247 21.7293 23.2247 19.6774C23.1721 17.6781 21.5411 15.9945 19.5418 15.9945Z" fill="white"/>
<path d="M19.5418 24.0437C17.5425 24.0437 15.8589 25.6747 15.8589 27.7266C15.8589 29.7259 17.4899 31.4095 19.5418 31.4095C21.5937 31.4095 23.2247 29.7785 23.2247 27.7266C23.1721 25.6747 21.5411 24.0437 19.5418 24.0437Z" fill="white"/>
<path d="M27.2771 0C25.2778 0 23.5942 1.63099 23.5942 3.68289C23.5942 5.68217 25.2252 7.36577 27.2771 7.36577C29.329 7.36577 30.96 5.73478 30.96 3.68289C30.96 1.63099 29.329 0 27.2771 0Z" fill="white"/>
<path d="M27.2771 7.99719C25.2778 7.99719 23.5942 9.62818 23.5942 11.6801C23.5942 13.732 25.2252 15.363 27.2771 15.363C29.329 15.363 30.96 13.732 30.96 11.6801C30.96 9.62818 29.329 7.99719 27.2771 7.99719Z" fill="white"/>
<path d="M27.2771 15.9945C25.2778 15.9945 23.5942 17.6255 23.5942 19.6774C23.5942 21.6767 25.2252 23.3603 27.2771 23.3603C29.329 23.3603 30.96 21.7293 30.96 19.6774C30.96 17.6781 29.329 15.9945 27.2771 15.9945Z" fill="white"/>
<path d="M27.2771 24.0437C25.2778 24.0437 23.5942 25.6747 23.5942 27.7266C23.5942 29.7259 25.2252 31.4095 27.2771 31.4095C29.329 31.4095 30.96 29.7785 30.96 27.7266C30.96 25.6747 29.329 24.0437 27.2771 24.0437Z" fill="white"/>
<path d="M27.2771 32.041C25.2778 32.041 23.5942 33.672 23.5942 35.7239C23.5942 37.7758 25.2252 39.4068 27.2771 39.4068C29.329 39.4068 30.96 37.7758 30.96 35.7239C30.96 33.672 29.329 32.041 27.2771 32.041Z" fill="white"/>
<path d="M35.0633 7.99719C33.064 7.99719 31.3804 9.62818 31.3804 11.6801C31.3804 13.732 33.0114 15.363 35.0633 15.363C37.0625 15.363 38.7461 13.732 38.7461 11.6801C38.7461 9.62818 37.0625 7.99719 35.0633 7.99719Z" fill="white"/>
<path d="M35.0633 15.9945C33.064 15.9945 31.3804 17.6255 31.3804 19.6774C31.3804 21.6767 33.0114 23.3603 35.0633 23.3603C37.0625 23.3603 38.7461 21.7293 38.7461 19.6774C38.6935 17.6781 37.0625 15.9945 35.0633 15.9945Z" fill="white"/>
<path d="M35.0633 24.0437C33.064 24.0437 31.3804 25.6747 31.3804 27.7266C31.3804 29.7259 33.0114 31.4095 35.0633 31.4095C37.0625 31.4095 38.7461 29.7785 38.7461 27.7266C38.6935 25.6747 37.0625 24.0437 35.0633 24.0437Z" fill="white"/>
<path d="M42.7971 15.9945C40.7979 15.9945 39.1143 17.6255 39.1143 19.6774C39.1143 21.6767 40.7452 23.3603 42.7971 23.3603C44.7964 23.3603 46.48 21.7293 46.48 19.6774C46.48 17.6781 44.849 15.9945 42.7971 15.9945Z" fill="white"/>
</svg>
