<svg  viewBox="0 0 194 12" fill="none" xmlns="http://www.w3.org/2000/svg">
<path d="M0.398438 1.23249H1.83676V5.29362H3.24687L9.47958 1.23249H11.9896L4.8544 5.91407L12.1729 10.8636H9.7334L3.38788 6.59093H1.83676V10.8636H0.398438V1.23249Z" fill="white"/>
<path d="M16.687 1.21839L21.6788 9.14323L26.6706 1.21839H29.2371V10.8636H27.8128V2.51569H27.5308L22.1301 10.8636H21.2276L15.8269 2.51569H15.5589V10.8636H14.1206V1.21839H16.687Z" fill="white"/>
<path d="M33.2148 6.05508C33.2148 7.83183 33.4075 8.88941 33.7929 9.22784C34.1784 9.56627 35.4052 9.73548 37.4733 9.73548C39.4945 9.73548 40.7119 9.61797 41.1255 9.38295C41.5486 9.14793 41.7601 8.43348 41.7601 7.23958H37.1067V5.94227H43.1984V7.23958C43.1984 8.90351 42.86 9.9564 42.1831 10.3982C41.5063 10.8307 39.9363 11.0469 37.4733 11.0469C34.9727 11.0469 33.3981 10.7602 32.7495 10.1867C32.1008 9.61327 31.7765 8.23136 31.7765 6.04098C31.7765 3.8506 32.0961 2.47809 32.7354 1.92344C33.384 1.3594 34.9633 1.07737 37.4733 1.07737C39.9457 1.07737 41.5157 1.26539 42.1831 1.64142C42.86 2.00805 43.1984 2.91523 43.1984 4.36294H41.7601C41.7601 3.43227 41.5345 2.87292 41.0832 2.68491C40.632 2.48749 39.4287 2.38878 37.4733 2.38878C35.3864 2.38878 34.1549 2.5533 33.7788 2.88232C33.4028 3.21135 33.2148 4.26894 33.2148 6.05508Z" fill="white"/>
<path d="M52.8529 10.8495V0.78125H61.5392C63.3065 0.78125 64.4722 1.13378 65.0362 1.83884C65.5627 2.49689 65.8259 3.8271 65.8259 5.82946C65.8259 7.82243 65.5674 9.14324 65.0504 9.79189C64.4863 10.4969 63.3159 10.8495 61.5392 10.8495H52.8529ZM55.9551 8.24076H61.0174C61.6849 8.24076 62.1361 8.07155 62.3711 7.73312C62.6062 7.39469 62.7237 6.76014 62.7237 5.82946C62.7237 4.88939 62.6062 4.25013 62.3711 3.91171C62.1361 3.56388 61.6849 3.38996 61.0174 3.38996H55.9551V8.24076Z" fill="#3182CE"/>
<path d="M72.8139 0.795351H78.1442L83.136 10.8636H79.512L78.5531 9.18554H72.405L71.4461 10.8636H67.8221L72.8139 0.795351ZM75.7188 3.06564H75.2393L73.5613 6.57682H77.3827L75.7188 3.06564Z" fill="#3182CE"/>
<path d="M84.9468 3.38996V0.78125H96.9468V3.38996H92.505V10.8636H89.4027V3.38996H84.9468Z" fill="#3182CE"/>
<path d="M103.646 0.795351H108.977L113.968 10.8636H110.344L109.386 9.18554H103.237L102.279 10.8636H98.6546L103.646 0.795351ZM106.551 3.06564H106.072L104.394 6.57682H108.215L106.551 3.06564Z" fill="#3182CE"/>
<path d="M120.771 5.46283C123.018 5.46283 124.433 5.59444 125.016 5.85767C125.739 6.18669 126.101 6.97636 126.101 8.22666C126.101 9.41116 125.664 10.1867 124.79 10.5533C124.075 10.8542 122.628 11.0046 120.447 11.0046C118.087 11.0046 116.569 10.7461 115.892 10.229C115.375 9.83419 115.117 8.97402 115.117 7.64851H116.555C116.555 8.56039 116.757 9.13383 117.161 9.36885C117.565 9.59447 118.665 9.70728 120.461 9.70728C122.219 9.70728 123.356 9.62267 123.873 9.45346C124.4 9.28425 124.663 8.87531 124.663 8.22666C124.663 7.5686 124.466 7.15967 124.071 6.99986C123.685 6.84005 122.585 6.76014 120.771 6.76014C118.552 6.76014 117.062 6.49222 116.301 5.95637C115.718 5.55214 115.427 4.82358 115.427 3.77069C115.427 2.6332 115.775 1.89994 116.47 1.57091C117.175 1.23249 118.609 1.06327 120.771 1.06327C122.924 1.06327 124.339 1.32179 125.016 1.83884C125.551 2.25247 125.819 3.06094 125.819 4.26424H124.409C124.409 3.43697 124.198 2.91522 123.775 2.69901C123.352 2.48279 122.35 2.37468 120.771 2.37468C119.417 2.37468 118.585 2.39348 118.275 2.43108C117.335 2.54389 116.865 2.99043 116.865 3.77069C116.865 4.42875 117.119 4.87529 117.626 5.1103C118.134 5.34532 119.182 5.46283 120.771 5.46283Z" fill="white"/>
<path d="M138.414 1.21839H140.346L134.635 6.99986V10.8636H133.183V6.99986L127.486 1.21839H129.418L133.916 5.80126L138.414 1.21839Z" fill="white"/>
<path d="M147.238 5.46283C149.485 5.46283 150.9 5.59444 151.483 5.85767C152.207 6.18669 152.569 6.97636 152.569 8.22666C152.569 9.41116 152.131 10.1867 151.257 10.5533C150.543 10.8542 149.095 11.0046 146.914 11.0046C144.554 11.0046 143.036 10.7461 142.359 10.229C141.842 9.83419 141.584 8.97402 141.584 7.64851H143.022C143.022 8.56039 143.224 9.13383 143.628 9.36885C144.033 9.59447 145.132 9.70728 146.928 9.70728C148.686 9.70728 149.823 9.62267 150.341 9.45346C150.867 9.28425 151.13 8.87531 151.13 8.22666C151.13 7.5686 150.933 7.15967 150.538 6.99986C150.152 6.84005 149.053 6.76014 147.238 6.76014C145.02 6.76014 143.53 6.49222 142.768 5.95637C142.185 5.55214 141.894 4.82358 141.894 3.77069C141.894 2.6332 142.242 1.89994 142.937 1.57091C143.642 1.23249 145.076 1.06327 147.238 1.06327C149.391 1.06327 150.806 1.32179 151.483 1.83884C152.019 2.25247 152.286 3.06094 152.286 4.26424H150.876C150.876 3.43697 150.665 2.91522 150.242 2.69901C149.819 2.48279 148.818 2.37468 147.238 2.37468C145.885 2.37468 145.053 2.39348 144.742 2.43108C143.802 2.54389 143.332 2.99043 143.332 3.77069C143.332 4.42875 143.586 4.87529 144.094 5.1103C144.601 5.34532 145.65 5.46283 147.238 5.46283Z" fill="white"/>
<path d="M154.573 1.21839H164.656V2.51569H160.341V10.8636H158.902V2.51569H154.573V1.21839Z" fill="white"/>
<path d="M166.334 1.21839H175.57V2.51569H167.773V5.32182H175.303V6.61913H167.773V9.56627H175.57V10.8636H166.334V1.21839Z" fill="white"/>
<path d="M181.054 1.21839L186.045 9.14323L191.037 1.21839H193.604V10.8636H192.179V2.51569H191.897L186.497 10.8636H185.594L180.193 2.51569H179.926V10.8636H178.487V1.21839H181.054Z" fill="white"/>
</svg>
