<svg width="429" height="51" viewBox="0 0 429 51" fill="none" xmlns="http://www.w3.org/2000/svg">
<path fill-rule="evenodd" clip-rule="evenodd" d="M220.639 11.1976H225.433C227.863 11.1976 230.558 11.6047 232.612 13.7342C234.648 15.8457 235.873 19.4635 235.873 25.4275C235.873 31.2656 234.549 34.7484 232.449 36.7483C230.35 38.7482 227.668 39.0771 225.433 39.0771H220.639V11.1976ZM277.009 50L280.412 39.0483H296.914L300.389 50H318.911L301.51 1H276.62L259.498 50H277.009ZM289.447 11.2702L295.321 28.9232H282.087L287.881 11.2702H289.447ZM318.325 14.2438H335.413V50H353.053V14.2438H370.141V1H318.325V14.2438ZM387.098 50L390.501 39.0483H407.003L410.478 50H429L411.599 1H386.709L369.588 50H387.098ZM399.536 11.2702L405.41 28.9232H392.176L397.97 11.2702H399.536ZM229.921 1H203V50H229.921C240.294 50 246.383 46.328 249.912 41.5551C253.476 36.7346 254.527 30.6579 254.527 25.7175C254.527 20.2427 253.298 14.0591 249.648 9.2645C246.029 4.5122 239.936 1 229.921 1Z" fill="#1D70B7"/>
<path d="M45.607 50H28.862L19.427 31.895C19.257 31.6117 18.804 30.8183 18.067 29.515C17.387 28.2117 16.622 26.965 15.772 25.775V50H0.471985V1.54995H15.772V23.565C16.735 22.4883 17.557 21.3267 18.237 20.08C18.974 18.7767 19.399 18.0117 19.512 17.785L28.607 1.54995H44.757L35.067 17.785C34.897 18.0117 34.529 18.6067 33.962 19.57C33.395 20.5333 32.772 21.44 32.092 22.29C31.469 23.0833 30.789 23.82 30.052 24.5C31.072 25.4633 31.894 26.4267 32.517 27.39C33.197 28.2967 33.962 29.515 34.812 31.045L45.607 50ZM121.187 50H106.907L105.802 23.31C105.632 18.04 105.433 14.045 105.207 11.325H104.952C104.272 13.4783 103.478 16.8217 102.572 21.355L102.147 23.48L96.282 50H82.002L77.072 26.115L76.222 21.865C75.032 16.595 74.21 13.0817 73.757 11.325H73.502C73.275 14.1583 73.077 18.7767 72.907 25.18C72.85 25.5767 72.822 26.2 72.822 27.05L72.057 50H57.692L59.732 1.54995H84.042L88.207 22.46L89.227 28.07C89.68 26.3133 90.105 24.3583 90.502 22.205L94.412 1.54995H119.232L121.187 50ZM179.537 23.14V47.365C175.741 48.612 172.142 49.518 168.742 50.085C165.342 50.652 162.481 50.935 160.157 50.935C152.451 50.935 146.416 48.923 142.052 44.9C137.689 40.8767 135.507 34.7 135.507 26.37C135.507 17.87 137.802 11.5233 142.392 7.32996C146.982 3.07996 153.442 0.954956 161.772 0.954956C166.136 0.954956 171.377 1.60665 177.497 2.90995C177.497 4.04325 177.384 5.74325 177.157 8.00995C176.931 10.22 176.704 11.7783 176.477 12.685L173.417 12.6C169.677 12.4867 166.759 12.43 164.662 12.43C158.372 12.43 154.944 12.7983 154.377 13.535C153.471 14.6117 152.819 16.2833 152.422 18.55C152.082 20.8167 151.912 22.9983 151.912 25.095C151.912 28.8917 152.337 31.8383 153.187 33.935C154.037 36.0317 155.341 37.505 157.097 38.355C158.854 39.205 161.234 39.63 164.237 39.63H164.577V23.14H179.537Z" fill="#3EA5FD"/>
</svg>
