<svg width="153" height="63" viewBox="0 0 203 113" fill="none" xmlns="http://www.w3.org/2000/svg">
<path fill-rule="evenodd" clip-rule="evenodd" d="M15.844 78.1571H20.15C22.333 78.1571 24.754 78.5226 26.598 80.4347C28.427 82.3308 29.528 85.5795 29.528 90.935C29.528 96.177 28.338 99.305 26.452 101.101C24.566 102.896 22.158 103.192 20.15 103.192H15.844V78.1571ZM66.477 113L69.534 103.166H84.356L87.478 113H104.115L88.485 69H66.128L50.749 113H66.477ZM77.649 78.2222L82.926 94.074H71.038L76.242 78.2222H77.649ZM103.589 80.8924H118.938V113H134.782V80.8924H150.131V69H103.589V80.8924ZM165.362 113L168.419 103.166H183.241L186.363 113H203L187.37 69H165.013L149.634 113H165.362ZM176.534 78.2222L181.811 94.074H169.923L175.128 78.2222H176.534ZM24.182 69H0V113H24.182C33.499 113 38.968 109.703 42.138 105.417C45.339 101.088 46.283 95.632 46.283 91.195C46.283 86.279 45.179 80.7265 41.9 76.4212C38.65 72.1539 33.177 69 24.182 69Z" fill="#1D70B7"/>
<path d="M53.607 50H36.862L27.427 31.895C27.257 31.6117 26.804 30.8183 26.067 29.515C25.387 28.2117 24.622 26.965 23.772 25.775V50H8.47198V1.55002H23.772V23.565C24.735 22.4883 25.557 21.3267 26.237 20.08C26.974 18.7767 27.399 18.0117 27.512 17.785L36.607 1.55002H52.757L43.067 17.785C42.897 18.0117 42.529 18.6067 41.962 19.57C41.395 20.5333 40.772 21.44 40.092 22.29C39.469 23.0833 38.789 23.82 38.052 24.5C39.072 25.4633 39.894 26.4267 40.517 27.39C41.197 28.2967 41.962 29.515 42.812 31.045L53.607 50ZM129.187 50H114.907L113.802 23.31C113.632 18.04 113.433 14.045 113.207 11.325H112.952C112.272 13.4783 111.478 16.8217 110.572 21.355L110.147 23.48L104.282 50H90.002L85.072 26.115L84.222 21.865C83.032 16.595 82.21 13.0817 81.757 11.325H81.502C81.275 14.1583 81.077 18.7767 80.907 25.18C80.85 25.5767 80.822 26.2 80.822 27.05L80.057 50H65.692L67.732 1.55002H92.042L96.207 22.46L97.227 28.07C97.68 26.3133 98.105 24.3583 98.502 22.205L102.412 1.55002H127.232L129.187 50ZM187.537 23.14V47.365C183.741 48.6117 180.142 49.5183 176.742 50.085C173.342 50.6517 170.481 50.935 168.157 50.935C160.451 50.935 154.416 48.9233 150.052 44.9C145.689 40.8767 143.507 34.7 143.507 26.37C143.507 17.87 145.802 11.5233 150.392 7.33002C154.982 3.08002 161.442 0.955017 169.772 0.955017C174.136 0.955017 179.377 1.60672 185.497 2.91002C185.497 4.04332 185.384 5.74332 185.157 8.01002C184.931 10.22 184.704 11.7783 184.477 12.685L181.417 12.6C177.677 12.4867 174.759 12.43 172.662 12.43C166.372 12.43 162.944 12.7983 162.377 13.535C161.471 14.6117 160.819 16.2833 160.422 18.55C160.082 20.8167 159.912 22.9983 159.912 25.095C159.912 28.8917 160.337 31.8383 161.187 33.935C162.037 36.0317 163.341 37.505 165.097 38.355C166.854 39.205 169.234 39.63 172.237 39.63H172.577V23.14H187.537Z" fill="#010F1B"/>
</svg>
