<svg  viewBox="0 0 202 20" fill="none" xmlns="http://www.w3.org/2000/svg">
<g filter="url(#filter0_d_0_133)">
<path d="M4.39844 1.23249H5.83676V5.29362H7.24687L13.4796 1.23249H15.9896L8.8544 5.91407L16.1729 10.8636H13.7334L7.38788 6.59093H5.83676V10.8636H4.39844V1.23249Z" fill="black"/>
<path d="M20.687 1.21839L25.6788 9.14323L30.6706 1.21839H33.2371V10.8636H31.8128V2.51569H31.5308L26.1301 10.8636H25.2276L19.8269 2.51569H19.5589V10.8636H18.1206V1.21839H20.687Z" fill="black"/>
<path d="M37.2148 6.05508C37.2148 7.83183 37.4075 8.88941 37.7929 9.22784C38.1784 9.56627 39.4052 9.73548 41.4733 9.73548C43.4945 9.73548 44.7119 9.61797 45.1255 9.38295C45.5486 9.14793 45.7601 8.43348 45.7601 7.23958H41.1067V5.94227H47.1984V7.23958C47.1984 8.90351 46.86 9.9564 46.1831 10.3982C45.5063 10.8307 43.9363 11.0469 41.4733 11.0469C38.9727 11.0469 37.3981 10.7602 36.7495 10.1867C36.1008 9.61327 35.7765 8.23136 35.7765 6.04098C35.7765 3.8506 36.0961 2.47809 36.7354 1.92344C37.384 1.3594 38.9633 1.07737 41.4733 1.07737C43.9457 1.07737 45.5157 1.26539 46.1831 1.64142C46.86 2.00805 47.1984 2.91523 47.1984 4.36294H45.7601C45.7601 3.43227 45.5345 2.87292 45.0832 2.68491C44.632 2.48749 43.4287 2.38878 41.4733 2.38878C39.3864 2.38878 38.1549 2.5533 37.7788 2.88232C37.4028 3.21135 37.2148 4.26894 37.2148 6.05508Z" fill="black"/>
<path d="M56.8529 10.8495V0.78125H65.5392C67.3065 0.78125 68.4722 1.13378 69.0362 1.83884C69.5627 2.49689 69.8259 3.8271 69.8259 5.82946C69.8259 7.82243 69.5674 9.14324 69.0504 9.79189C68.4863 10.4969 67.3159 10.8495 65.5392 10.8495H56.8529ZM59.9551 8.24076H65.0174C65.6849 8.24076 66.1361 8.07155 66.3711 7.73312C66.6062 7.39469 66.7237 6.76014 66.7237 5.82946C66.7237 4.88939 66.6062 4.25013 66.3711 3.91171C66.1361 3.56388 65.6849 3.38996 65.0174 3.38996H59.9551V8.24076Z" fill="#3182CE"/>
<path d="M76.8139 0.795351H82.1442L87.136 10.8636H83.512L82.5531 9.18554H76.405L75.4461 10.8636H71.8221L76.8139 0.795351ZM79.7188 3.06564H79.2393L77.5613 6.57682H81.3827L79.7188 3.06564Z" fill="#3182CE"/>
<path d="M88.9468 3.38996V0.78125H100.947V3.38996H96.505V10.8636H93.4027V3.38996H88.9468Z" fill="#3182CE"/>
<path d="M107.646 0.795351H112.977L117.968 10.8636H114.344L113.386 9.18554H107.237L106.279 10.8636H102.655L107.646 0.795351ZM110.551 3.06564H110.072L108.394 6.57682H112.215L110.551 3.06564Z" fill="#3182CE"/>
<path d="M124.771 5.46283C127.018 5.46283 128.433 5.59444 129.016 5.85767C129.739 6.18669 130.101 6.97636 130.101 8.22666C130.101 9.41116 129.664 10.1867 128.79 10.5533C128.075 10.8542 126.628 11.0046 124.447 11.0046C122.087 11.0046 120.569 10.7461 119.892 10.229C119.375 9.83419 119.117 8.97402 119.117 7.64851H120.555C120.555 8.56039 120.757 9.13383 121.161 9.36885C121.565 9.59447 122.665 9.70728 124.461 9.70728C126.219 9.70728 127.356 9.62267 127.873 9.45346C128.4 9.28425 128.663 8.87531 128.663 8.22666C128.663 7.5686 128.466 7.15967 128.071 6.99986C127.685 6.84005 126.585 6.76014 124.771 6.76014C122.552 6.76014 121.062 6.49222 120.301 5.95637C119.718 5.55214 119.427 4.82358 119.427 3.77069C119.427 2.6332 119.775 1.89994 120.47 1.57091C121.175 1.23249 122.609 1.06327 124.771 1.06327C126.924 1.06327 128.339 1.32179 129.016 1.83884C129.551 2.25247 129.819 3.06094 129.819 4.26424H128.409C128.409 3.43697 128.198 2.91522 127.775 2.69901C127.352 2.48279 126.35 2.37468 124.771 2.37468C123.417 2.37468 122.585 2.39348 122.275 2.43108C121.335 2.54389 120.865 2.99043 120.865 3.77069C120.865 4.42875 121.119 4.87529 121.626 5.1103C122.134 5.34532 123.182 5.46283 124.771 5.46283Z" fill="black"/>
<path d="M142.414 1.21839H144.346L138.635 6.99986V10.8636H137.183V6.99986L131.486 1.21839H133.418L137.916 5.80126L142.414 1.21839Z" fill="black"/>
<path d="M151.238 5.46283C153.485 5.46283 154.9 5.59444 155.483 5.85767C156.207 6.18669 156.569 6.97636 156.569 8.22666C156.569 9.41116 156.131 10.1867 155.257 10.5533C154.543 10.8542 153.095 11.0046 150.914 11.0046C148.554 11.0046 147.036 10.7461 146.359 10.229C145.842 9.83419 145.584 8.97402 145.584 7.64851H147.022C147.022 8.56039 147.224 9.13383 147.628 9.36885C148.033 9.59447 149.132 9.70728 150.928 9.70728C152.686 9.70728 153.823 9.62267 154.341 9.45346C154.867 9.28425 155.13 8.87531 155.13 8.22666C155.13 7.5686 154.933 7.15967 154.538 6.99986C154.152 6.84005 153.053 6.76014 151.238 6.76014C149.02 6.76014 147.53 6.49222 146.768 5.95637C146.185 5.55214 145.894 4.82358 145.894 3.77069C145.894 2.6332 146.242 1.89994 146.937 1.57091C147.642 1.23249 149.076 1.06327 151.238 1.06327C153.391 1.06327 154.806 1.32179 155.483 1.83884C156.019 2.25247 156.286 3.06094 156.286 4.26424H154.876C154.876 3.43697 154.665 2.91522 154.242 2.69901C153.819 2.48279 152.818 2.37468 151.238 2.37468C149.885 2.37468 149.053 2.39348 148.742 2.43108C147.802 2.54389 147.332 2.99043 147.332 3.77069C147.332 4.42875 147.586 4.87529 148.094 5.1103C148.601 5.34532 149.65 5.46283 151.238 5.46283Z" fill="black"/>
<path d="M158.573 1.21839H168.656V2.51569H164.341V10.8636H162.902V2.51569H158.573V1.21839Z" fill="black"/>
<path d="M170.334 1.21839H179.57V2.51569H171.773V5.32182H179.303V6.61913H171.773V9.56627H179.57V10.8636H170.334V1.21839Z" fill="black"/>
<path d="M185.054 1.21839L190.045 9.14323L195.037 1.21839H197.604V10.8636H196.179V2.51569H195.897L190.497 10.8636H189.594L184.193 2.51569H183.926V10.8636H182.487V1.21839H185.054Z" fill="black"/>
</g>
<defs>
<filter id="filter0_d_0_133" x="0.398438" y="0.78125" width="201.205" height="18.2656" filterUnits="userSpaceOnUse" color-interpolation-filters="sRGB">
<feFlood flood-opacity="0" result="BackgroundImageFix"/>
<feColorMatrix in="SourceAlpha" type="matrix" values="0 0 0 0 0 0 0 0 0 0 0 0 0 0 0 0 0 0 127 0" result="hardAlpha"/>
<feOffset dy="4"/>
<feGaussianBlur stdDeviation="2"/>
<feComposite in2="hardAlpha" operator="out"/>
<feColorMatrix type="matrix" values="0 0 0 0 0 0 0 0 0 0 0 0 0 0 0 0 0 0 0.25 0"/>
<feBlend mode="normal" in2="BackgroundImageFix" result="effect1_dropShadow_0_133"/>
<feBlend mode="normal" in="SourceGraphic" in2="effect1_dropShadow_0_133" result="shape"/>
</filter>
</defs>
</svg>
