<svg width="416" height="40" viewBox="0 0 416 40" fill="none" xmlns="http://www.w3.org/2000/svg">
<path d="M61.187 11.4185H63.822V18.8585H66.4053L77.8237 11.4185H82.422L69.3503 19.9951L82.7579 29.0626H78.2887L66.6637 21.2351H63.822V29.0626H61.187V11.4185Z" fill="white"/>
<path d="M91.0277 11.3926L100.173 25.911L109.318 11.3926H114.019V29.0626H111.41V13.7693H110.894L100.999 29.0626H99.3461L89.4519 13.7693H88.9611V29.0626H86.3261V11.3926H91.0277Z" fill="white"/>
<path d="M121.307 20.2535C121.307 23.5085 121.66 25.446 122.366 26.066C123.072 26.686 125.319 26.996 129.108 26.996C132.811 26.996 135.041 26.7807 135.799 26.3501C136.574 25.9196 136.962 24.6107 136.962 22.4235H128.437V20.0468H139.597V22.4235C139.597 25.4718 138.977 27.4007 137.737 28.2101C136.497 29.0024 133.621 29.3985 129.108 29.3985C124.527 29.3985 121.642 28.8732 120.454 27.8226C119.266 26.7721 118.672 24.2404 118.672 20.2276C118.672 16.2149 119.257 13.7004 120.428 12.6843C121.617 11.651 124.51 11.1343 129.108 11.1343C133.638 11.1343 136.514 11.4787 137.737 12.1676C138.977 12.8393 139.597 14.5012 139.597 17.1535H136.962C136.962 15.4485 136.548 14.4237 135.722 14.0793C134.895 13.7176 132.691 13.5368 129.108 13.5368C125.285 13.5368 123.029 13.8382 122.34 14.441C121.651 15.0437 121.307 16.9812 121.307 20.2535Z" fill="white"/>
<path d="M157.284 29.0368V10.5918H173.197C176.435 10.5918 178.57 11.2376 179.604 12.5293C180.568 13.7349 181.05 16.1718 181.05 19.8401C181.05 23.4912 180.577 25.911 179.629 27.0993C178.596 28.391 176.452 29.0368 173.197 29.0368H157.284ZM162.967 24.2576H172.241C173.464 24.2576 174.291 23.9476 174.721 23.3276C175.152 22.7076 175.367 21.5451 175.367 19.8401C175.367 18.1179 175.152 16.9468 174.721 16.3268C174.291 15.6896 173.464 15.371 172.241 15.371H162.967V24.2576Z" fill="white"/>
<path d="M193.852 10.6176H203.617L212.762 29.0626H206.123L204.366 25.9885H193.103L191.346 29.0626H184.707L193.852 10.6176ZM199.174 14.7768H198.296L195.221 21.2093H202.222L199.174 14.7768Z" fill="white"/>
<path d="M216.08 15.371V10.5918H238.064V15.371H229.926V29.0626H224.243V15.371H216.08Z" fill="white"/>
<path d="M250.338 10.6176H260.103L269.248 29.0626H262.608L260.852 25.9885H249.588L247.832 29.0626H241.193L250.338 10.6176ZM255.659 14.7768H254.781L251.707 21.2093H258.708L255.659 14.7768Z" fill="white"/>
<path d="M281.71 19.1685C285.826 19.1685 288.418 19.4096 289.486 19.8918C290.812 20.4946 291.475 21.9412 291.475 24.2318C291.475 26.4018 290.674 27.8226 289.072 28.4943C287.763 29.0454 285.111 29.321 281.116 29.321C276.793 29.321 274.012 28.8474 272.772 27.9001C271.824 27.1768 271.351 25.601 271.351 23.1726H273.986C273.986 24.8432 274.356 25.8937 275.097 26.3243C275.837 26.7376 277.852 26.9443 281.142 26.9443C284.362 26.9443 286.446 26.7893 287.393 26.4793C288.358 26.1693 288.84 25.4201 288.84 24.2318C288.84 23.0262 288.478 22.2771 287.755 21.9843C287.049 21.6915 285.034 21.5451 281.71 21.5451C277.645 21.5451 274.916 21.0543 273.521 20.0726C272.453 19.3321 271.919 17.9974 271.919 16.0685C271.919 13.9846 272.556 12.6412 273.831 12.0385C275.122 11.4185 277.749 11.1085 281.71 11.1085C285.654 11.1085 288.246 11.5821 289.486 12.5293C290.467 13.2871 290.958 14.7682 290.958 16.9726H288.375C288.375 15.4571 287.987 14.5012 287.212 14.1051C286.437 13.709 284.603 13.511 281.71 13.511C279.23 13.511 277.706 13.5454 277.137 13.6143C275.415 13.821 274.554 14.639 274.554 16.0685C274.554 17.274 275.019 18.0921 275.949 18.5226C276.879 18.9532 278.799 19.1685 281.71 19.1685Z" fill="white"/>
<path d="M314.032 11.3926H317.571L307.109 21.9843V29.0626H304.448V21.9843L294.011 11.3926H297.55L305.791 19.7885L314.032 11.3926Z" fill="white"/>
<path d="M330.198 19.1685C334.314 19.1685 336.906 19.4096 337.974 19.8918C339.3 20.4946 339.963 21.9412 339.963 24.2318C339.963 26.4018 339.162 27.8226 337.56 28.4943C336.251 29.0454 333.599 29.321 329.604 29.321C325.281 29.321 322.499 28.8474 321.259 27.9001C320.312 27.1768 319.839 25.601 319.839 23.1726H322.474C322.474 24.8432 322.844 25.8937 323.585 26.3243C324.325 26.7376 326.34 26.9443 329.63 26.9443C332.85 26.9443 334.934 26.7893 335.881 26.4793C336.846 26.1693 337.328 25.4201 337.328 24.2318C337.328 23.0262 336.966 22.2771 336.243 21.9843C335.537 21.6915 333.522 21.5451 330.198 21.5451C326.133 21.5451 323.404 21.0543 322.009 20.0726C320.941 19.3321 320.407 17.9974 320.407 16.0685C320.407 13.9846 321.044 12.6412 322.319 12.0385C323.61 11.4185 326.237 11.1085 330.198 11.1085C334.142 11.1085 336.734 11.5821 337.974 12.5293C338.955 13.2871 339.446 14.7682 339.446 16.9726H336.863C336.863 15.4571 336.475 14.5012 335.7 14.1051C334.925 13.709 333.091 13.511 330.198 13.511C327.718 13.511 326.194 13.5454 325.625 13.6143C323.903 13.821 323.042 14.639 323.042 16.0685C323.042 17.274 323.507 18.0921 324.437 18.5226C325.367 18.9532 327.287 19.1685 330.198 19.1685Z" fill="white"/>
<path d="M343.636 11.3926H362.107V13.7693H354.202V29.0626H351.567V13.7693H343.636V11.3926Z" fill="white"/>
<path d="M365.182 11.3926H382.102V13.7693H367.817V18.9101H381.612V21.2868H367.817V26.686H382.102V29.0626H365.182V11.3926Z" fill="white"/>
<path d="M392.148 11.3926L401.293 25.911L410.438 11.3926H415.139V29.0626H412.53V13.7693H412.013L402.119 29.0626H400.466L390.572 13.7693H390.081V29.0626H387.446V11.3926H392.148Z" fill="white"/>
<path d="M11.7556 7.99719C9.75636 7.99719 8.07275 9.62818 8.07275 11.6801C8.07275 13.732 9.70375 15.363 11.7556 15.363C13.7549 15.363 15.4385 13.732 15.4385 11.6801C15.4385 9.62818 13.8075 7.99719 11.7556 7.99719Z" fill="white"/>
<path d="M11.7556 15.9945C9.75636 15.9945 8.07275 17.6255 8.07275 19.6774C8.07275 21.6767 9.70375 23.3603 11.7556 23.3603C13.7549 23.3603 15.4385 21.7293 15.4385 19.6774C15.4385 17.6781 13.8075 15.9945 11.7556 15.9945Z" fill="white"/>
<path d="M11.7556 24.0437C9.75636 24.0437 8.07275 25.6747 8.07275 27.7266C8.07275 29.7259 9.70375 31.4095 11.7556 31.4095C13.7549 31.4095 15.4385 29.7785 15.4385 27.7266C15.4385 25.6747 13.8075 24.0437 11.7556 24.0437Z" fill="white"/>
<path d="M3.68289 7.99719C1.6836 7.99719 0 9.62818 0 11.6801C0 13.732 1.63099 15.363 3.68289 15.363C5.68217 15.363 7.36577 13.732 7.36577 11.6801C7.36577 9.62818 5.73478 7.99719 3.68289 7.99719Z" fill="white"/>
<path d="M3.68289 15.9945C1.6836 15.9945 0 17.6255 0 19.6774C0 21.6767 1.63099 23.3603 3.68289 23.3603C5.68217 23.3603 7.36577 21.7293 7.36577 19.6774C7.36577 17.6781 5.73478 15.9945 3.68289 15.9945Z" fill="white"/>
<path d="M3.68289 24.0437C1.6836 24.0437 0 25.6747 0 27.7266C0 29.7259 1.63099 31.4095 3.68289 31.4095C5.68217 31.4095 7.36577 29.7785 7.36577 27.7266C7.36577 25.6747 5.73478 24.0437 3.68289 24.0437Z" fill="white"/>
<path d="M19.5418 7.99719C17.5425 7.99719 15.8589 9.62818 15.8589 11.6801C15.8589 13.732 17.4899 15.363 19.5418 15.363C21.5937 15.363 23.2247 13.732 23.2247 11.6801C23.2247 9.62818 21.5411 7.99719 19.5418 7.99719Z" fill="white"/>
<path d="M19.5418 15.9945C17.5425 15.9945 15.8589 17.6255 15.8589 19.6774C15.8589 21.6767 17.4899 23.3603 19.5418 23.3603C21.5937 23.3603 23.2247 21.7293 23.2247 19.6774C23.1721 17.6781 21.5411 15.9945 19.5418 15.9945Z" fill="white"/>
<path d="M19.5418 24.0437C17.5425 24.0437 15.8589 25.6747 15.8589 27.7266C15.8589 29.7259 17.4899 31.4095 19.5418 31.4095C21.5937 31.4095 23.2247 29.7785 23.2247 27.7266C23.1721 25.6747 21.5411 24.0437 19.5418 24.0437Z" fill="white"/>
<path d="M27.2771 0C25.2778 0 23.5942 1.63099 23.5942 3.68289C23.5942 5.68217 25.2252 7.36577 27.2771 7.36577C29.329 7.36577 30.96 5.73478 30.96 3.68289C30.96 1.63099 29.329 0 27.2771 0Z" fill="white"/>
<path d="M27.2771 7.99719C25.2778 7.99719 23.5942 9.62818 23.5942 11.6801C23.5942 13.732 25.2252 15.363 27.2771 15.363C29.329 15.363 30.96 13.732 30.96 11.6801C30.96 9.62818 29.329 7.99719 27.2771 7.99719Z" fill="white"/>
<path d="M27.2771 15.9945C25.2778 15.9945 23.5942 17.6255 23.5942 19.6774C23.5942 21.6767 25.2252 23.3603 27.2771 23.3603C29.329 23.3603 30.96 21.7293 30.96 19.6774C30.96 17.6781 29.329 15.9945 27.2771 15.9945Z" fill="white"/>
<path d="M27.2771 24.0437C25.2778 24.0437 23.5942 25.6747 23.5942 27.7266C23.5942 29.7259 25.2252 31.4095 27.2771 31.4095C29.329 31.4095 30.96 29.7785 30.96 27.7266C30.96 25.6747 29.329 24.0437 27.2771 24.0437Z" fill="white"/>
<path d="M27.2771 32.041C25.2778 32.041 23.5942 33.672 23.5942 35.7239C23.5942 37.7758 25.2252 39.4068 27.2771 39.4068C29.329 39.4068 30.96 37.7758 30.96 35.7239C30.96 33.672 29.329 32.041 27.2771 32.041Z" fill="white"/>
<path d="M35.0633 7.99719C33.064 7.99719 31.3804 9.62818 31.3804 11.6801C31.3804 13.732 33.0114 15.363 35.0633 15.363C37.0625 15.363 38.7461 13.732 38.7461 11.6801C38.7461 9.62818 37.0625 7.99719 35.0633 7.99719Z" fill="white"/>
<path d="M35.0633 15.9945C33.064 15.9945 31.3804 17.6255 31.3804 19.6774C31.3804 21.6767 33.0114 23.3603 35.0633 23.3603C37.0625 23.3603 38.7461 21.7293 38.7461 19.6774C38.6935 17.6781 37.0625 15.9945 35.0633 15.9945Z" fill="white"/>
<path d="M35.0633 24.0437C33.064 24.0437 31.3804 25.6747 31.3804 27.7266C31.3804 29.7259 33.0114 31.4095 35.0633 31.4095C37.0625 31.4095 38.7461 29.7785 38.7461 27.7266C38.6935 25.6747 37.0625 24.0437 35.0633 24.0437Z" fill="white"/>
<path d="M42.7971 15.9945C40.7979 15.9945 39.1143 17.6255 39.1143 19.6774C39.1143 21.6767 40.7452 23.3603 42.7971 23.3603C44.7964 23.3603 46.48 21.7293 46.48 19.6774C46.48 17.6781 44.849 15.9945 42.7971 15.9945Z" fill="white"/>
</svg>
