<svg width="175" height="44" viewBox="0 0 175 44" fill="none" xmlns="http://www.w3.org/2000/svg">
<path fill-rule="evenodd" clip-rule="evenodd" d="M11.5464 34.9481C12.2942 34.9481 12.9036 35.5572 12.9036 36.305C12.9036 37.054 12.2942 37.6632 11.5464 37.6632C10.7986 37.6632 10.1885 37.054 10.1885 36.305C10.1885 35.5572 10.7986 34.9481 11.5464 34.9481ZM11.5464 32.2131C12.2942 32.2131 12.9036 32.8232 12.9036 33.5711C12.9036 34.3198 12.2942 34.929 11.5464 34.929C10.7986 34.929 10.1885 34.3198 10.1885 33.5711C10.1885 32.8232 10.7986 32.2131 11.5464 32.2131ZM11.5464 37.6603C12.2942 37.6603 12.9036 38.2704 12.9036 39.0193C12.9036 39.7661 12.2942 40.3762 11.5464 40.3762C10.7986 40.3762 10.1885 39.7661 10.1885 39.0193C10.1885 38.2704 10.7986 37.6603 11.5464 37.6603ZM14.2671 34.9481C15.015 34.9481 15.6254 35.5572 15.6254 36.305C15.6254 37.054 15.015 37.6632 14.2671 37.6632C13.5193 37.6632 12.9092 37.054 12.9092 36.305C12.9092 35.5572 13.5193 34.9481 14.2671 34.9481ZM14.2671 32.2131C15.015 32.2131 15.6254 32.8232 15.6254 33.5711C15.6254 34.3198 15.015 34.929 14.2671 34.929C13.5193 34.929 12.9092 34.3198 12.9092 33.5711C12.9092 32.8232 13.5193 32.2131 14.2671 32.2131ZM14.2671 37.6603C15.015 37.6603 15.6254 38.2704 15.6254 39.0193C15.6254 39.7661 15.015 40.3762 14.2671 40.3762C13.5193 40.3762 12.9092 39.7661 12.9092 39.0193C12.9092 38.2704 13.5193 37.6603 14.2671 37.6603ZM17.0506 34.9481C17.7985 34.9481 18.4086 35.5572 18.4086 36.305C18.4086 37.054 17.7985 37.6632 17.0506 37.6632C16.3027 37.6632 15.6938 37.054 15.6938 36.305C15.6938 35.5572 16.3027 34.9481 17.0506 34.9481ZM17.0506 32.2131C17.7985 32.2131 18.4086 32.8232 18.4086 33.5711C18.4086 34.3198 17.7985 34.929 17.0506 34.929C16.3027 34.929 15.6938 34.3198 15.6938 33.5711C15.6938 32.8232 16.3027 32.2131 17.0506 32.2131ZM17.0506 37.6603C17.7985 37.6603 18.4086 38.2704 18.4086 39.0193C18.4086 39.7661 17.7985 40.3762 17.0506 40.3762C16.3027 40.3762 15.6938 39.7661 15.6938 39.0193C15.6938 38.2704 16.3027 37.6603 17.0506 37.6603ZM25.2008 29.5378C25.9486 29.5378 26.5587 30.1479 26.5587 30.8947C26.5587 31.6436 25.9486 32.2537 25.2008 32.2537C24.4529 32.2537 23.8428 31.6436 23.8428 30.8947C23.8428 30.1479 24.4529 29.5378 25.2008 29.5378ZM25.2008 40.4333C25.9486 40.4333 26.5587 41.0437 26.5587 41.7912C26.5587 42.539 25.9486 43.1494 25.2008 43.1494C24.4529 43.1494 23.8428 42.539 23.8428 41.7912C23.8428 41.0437 24.4529 40.4333 25.2008 40.4333ZM25.2083 32.2368C25.9561 32.2368 26.5662 32.8469 26.5662 33.5947C26.5662 34.3426 25.9561 34.9519 25.2083 34.9519C24.4605 34.9519 23.8504 34.3426 23.8504 33.5947C23.8504 32.8469 24.4605 32.2368 25.2083 32.2368ZM27.931 32.2472C28.6788 32.2472 29.2889 32.8563 29.2889 33.6041C29.2889 34.352 28.6788 34.9624 27.931 34.9624C27.1831 34.9624 26.573 34.352 26.573 33.6041C26.573 32.8563 27.1831 32.2472 27.931 32.2472ZM30.6461 34.9651C31.3939 34.9651 32.004 35.5752 32.004 36.3223C32.004 37.0701 31.3939 37.6802 30.6461 37.6802C29.8982 37.6802 29.2881 37.0701 29.2881 36.3223C29.2881 35.5752 29.8982 34.9651 30.6461 34.9651ZM25.2083 34.9707C25.9561 34.9707 26.5662 35.5811 26.5662 36.329C26.5662 37.0765 25.9561 37.6869 25.2083 37.6869C24.4605 37.6869 23.8504 37.0765 23.8504 36.329C23.8504 35.5811 24.4605 34.9707 25.2083 34.9707ZM27.931 34.9804C28.6788 34.9804 29.2889 35.5905 29.2889 36.3384C29.2889 37.0862 28.6788 37.6963 27.931 37.6963C27.1831 37.6963 26.573 37.0862 26.573 36.3384C26.573 35.5905 27.1831 34.9804 27.931 34.9804ZM19.7675 34.9481C20.5155 34.9481 21.1259 35.5572 21.1259 36.305C21.1259 37.054 20.5155 37.6632 19.7675 37.6632C19.0197 37.6632 18.4096 37.054 18.4096 36.305C18.4096 35.5572 19.0197 34.9481 19.7675 34.9481ZM22.4894 34.9575C23.2373 34.9575 23.8474 35.5669 23.8474 36.3155C23.8474 37.0623 23.2373 37.6727 22.4894 37.6727C21.7416 37.6727 21.1323 37.0623 21.1323 36.3155C21.1323 35.5669 21.7416 34.9575 22.4894 34.9575ZM25.2083 37.684C25.9561 37.684 26.5662 38.2943 26.5662 39.043C26.5662 39.7897 25.9561 40.4001 25.2083 40.4001C24.4605 40.4001 23.8504 39.7897 23.8504 39.043C23.8504 38.2943 24.4605 37.684 25.2083 37.684ZM27.931 37.6944C28.6788 37.6944 29.2889 38.3038 29.2889 39.0524C29.2889 39.8003 28.6788 40.4095 27.931 40.4095C27.1831 40.4095 26.573 39.8003 26.573 39.0524C26.573 38.3038 27.1831 37.6944 27.931 37.6944ZM19.7675 32.2131C20.5155 32.2131 21.1259 32.8232 21.1259 33.5711C21.1259 34.3198 20.5155 34.929 19.7675 34.929C19.0197 34.929 18.4096 34.3198 18.4096 33.5711C18.4096 32.8232 19.0197 32.2131 19.7675 32.2131ZM22.4894 32.2226C23.2373 32.2226 23.8474 32.8327 23.8474 33.5815C23.8474 34.3292 23.2373 34.9384 22.4894 34.9384C21.7416 34.9384 21.1323 34.3292 21.1323 33.5815C21.1323 32.8327 21.7416 32.2226 22.4894 32.2226ZM19.7675 37.6603C20.5155 37.6603 21.1259 38.2704 21.1259 39.0193C21.1259 39.7661 20.5155 40.3762 19.7675 40.3762C19.0197 40.3762 18.4096 39.7661 18.4096 39.0193C18.4096 38.2704 19.0197 37.6603 19.7675 37.6603ZM22.4894 37.6708C23.2373 37.6708 23.8474 38.2809 23.8474 39.028C23.8474 39.7766 23.2373 40.3859 22.4894 40.3859C21.7416 40.3859 21.1323 39.7766 21.1323 39.028C21.1323 38.2809 21.7416 37.6708 22.4894 37.6708Z" fill="white"/>
<path fill-rule="evenodd" clip-rule="evenodd" d="M17.0229 3.59805C17.1804 9.9528 15.9329 15.8014 13.2648 19.4778C11.0323 22.5545 10.3231 24.7088 10.3522 26.7846C10.3694 28.0298 10.6535 29.2481 11.0334 30.6199C9.55201 28.707 7.31864 24.7941 7.12247 22.6235C6.88194 19.9683 7.1447 17.6138 9.3597 15.7172C13.539 12.1377 16.16 9.15287 17.0229 3.59805Z" fill="white"/>
<path fill-rule="evenodd" clip-rule="evenodd" d="M16.4931 3.04999e-05C17.7962 4.74866 14.1266 10.2817 12.2508 12.339C11.0825 13.6211 9.04604 15.0921 7.68896 16.8419C6.97825 17.7588 6.94589 18.4409 6.65246 20.0466C4.93296 12.5224 15.4184 6.70893 16.4925 3.04999e-05H16.4931Z" fill="white"/>
<path d="M17.0072 14.3002C19.7424 14.3373 22.2238 15.4693 24.0306 17.2773C25.868 19.1146 27.0077 21.6492 27.0077 24.4394C27.0077 25.3333 26.8881 26.2366 26.6602 27.0966C26.4867 27.7495 26.3102 28.2563 26.0359 28.8075L30.9611 33.7102L31.4833 32.8742C32.212 31.6165 32.7737 30.233 33.1525 28.8048C33.5369 27.3595 33.7371 25.877 33.7371 24.4394C33.7371 19.7912 31.8429 15.5736 28.7889 12.5188C26.0023 9.73234 22.2476 7.91231 18.0824 7.61414C18.0406 8.27144 17.9863 8.91361 17.9165 9.47264C17.7067 11.151 17.4969 12.0801 17.2871 13.0092C17.2032 13.3809 17.1192 13.7525 17.0353 14.1721C17.0271 14.2132 17.0177 14.256 17.0072 14.3002Z" fill="white"/>
<path d="M9.35077 9.3425C7.71465 10.161 6.22899 11.2378 4.94793 12.5188C1.89308 15.5736 0 19.7912 0 24.4394C0 26.901 0.558776 29.3324 1.5856 31.5444C2.6221 33.7756 4.12238 35.7762 5.99572 37.3542C7.14687 38.2863 8.34556 39.0331 9.57547 39.6529L9.74439 31.6642C8.88354 30.8127 8.18707 29.8145 7.684 28.7327C7.23412 27.7618 6.93325 26.7191 6.80289 25.6484C5.25821 22.0364 5.27511 19.5215 5.2852 18.021C5.28596 17.9071 5.28669 17.7989 5.28669 17.6967C5.28669 15.6406 6.75527 12.9972 7.3427 12.1161C7.73507 11.5275 8.70075 10.2155 9.35077 9.3425Z" fill="white"/>
<path fill-rule="evenodd" clip-rule="evenodd" d="M16.6283 16.279C20.1948 19.421 22.5891 23.4287 22.5891 26.7189C22.5891 30.01 20.0391 31.7391 17.1351 31.7391C14.2303 31.7391 12.0438 30.01 12.0438 26.7189C12.0438 24.7859 13.0359 23.0898 14.2012 21.0976C15.0194 19.6988 15.9229 18.1541 16.6283 16.279ZM20.2207 22.6662C19.9256 21.8966 19.1814 21.0215 18.1558 20.1268C18.4385 20.8992 18.5154 21.3651 18.1025 22.6426C18.7669 22.4441 19.5554 22.4072 20.2207 22.6662Z" fill="white"/>
<path fill-rule="evenodd" clip-rule="evenodd" d="M95.8188 30.0551H91.6477V20.4985H91.5445L89.1462 30.0551H85.2714L82.9426 20.4985H82.822V30.0551H78.8599V17.8915H85.7572L87.3393 24.547H87.4257L88.9374 17.8915H95.8188V30.0551ZM107.935 20.9501L104.541 30.0483V30.7249H106.764V33.1354H104.543L104.545 35.3467L99.873 35.3494L99.8776 33.1422L97.6512 33.1354V30.7249H99.8501L99.8557 30.0959L96.4622 20.9501H100.725L102.204 26.7032L103.642 20.9501H107.935ZM118.736 30.0551H114.359V26.7013H112.795V30.0551H108.416V20.9501H112.795V24.0951H114.359V20.9501H118.736V30.0551ZM126.278 26.5969V26.0928H126.051C125.299 26.0928 124.775 26.1772 124.479 26.3454C124.184 26.5133 124.036 26.7941 124.036 27.1879C124.036 27.4424 124.13 27.6511 124.314 27.8133C124.501 27.9756 124.748 28.0563 125.061 28.0563C125.397 28.0563 125.685 27.935 125.922 27.692C126.158 27.448 126.278 27.0835 126.278 26.5969ZM130.274 30.0551H126.278V28.9426H126.208C125.814 29.4637 125.304 29.829 124.679 30.037C124.228 30.1887 123.682 30.2627 123.046 30.2627C122.015 30.2627 121.216 29.9972 120.649 29.4637C120.126 28.9779 119.867 28.3344 119.867 27.5354C119.867 26.574 120.197 25.8385 120.857 25.3291C121.401 24.9 122.16 24.6162 123.133 24.4777C123.699 24.3961 124.547 24.3552 125.67 24.3552H126.278V24.0771C126.278 23.6607 126.035 23.3596 125.548 23.1746C125.177 23.0353 124.714 22.965 124.158 22.965C123.857 22.965 123.52 22.9944 123.149 23.0522C122.42 23.1681 121.697 23.3769 120.979 23.6776V21.2977C121.651 21.1239 122.36 20.9881 123.107 20.8896C123.854 20.7909 124.576 20.7413 125.27 20.7413C126.683 20.7413 127.819 20.9854 128.676 21.4712C129.741 22.0737 130.274 23 130.274 24.2517V30.0551ZM142.177 30.0551H138.18V25.7976H138.093L136.095 30.0551H131.769V20.9501H135.764V25.2074H135.852L137.884 20.9501H142.177V30.0551ZM140.422 17.3354C140.329 18.0661 140.022 18.645 139.5 19.073C138.886 19.5835 138.041 19.8381 136.964 19.8381C135.898 19.8381 135.058 19.5835 134.444 19.073C133.911 18.6337 133.6 18.0539 133.506 17.3354L135.347 16.9018C135.347 17.156 135.441 17.3706 135.626 17.5442C135.904 17.7995 136.35 17.9268 136.964 17.9268C137.428 17.9268 137.798 17.8517 138.076 17.7007C138.412 17.5157 138.58 17.2491 138.58 16.9018L140.422 17.3354Z" fill="white"/>
<path fill-rule="evenodd" clip-rule="evenodd" d="M56.4651 31.9707H52.6635L52.8095 30.0557H51.0094L48.0199 24.895H47.9507V30.0557H43.2939V17.8924H47.9507V22.6705H48.0199L50.8869 17.8924H56.1869L52.0854 23.5922L55.2 28.0817L56.4614 28.0865L56.4651 31.9707ZM174.468 27.421V27.3002C174.455 26.7937 174.276 26.3568 173.931 25.9902C173.571 25.6068 173.102 25.3695 172.523 25.2776C173.045 25.1503 173.438 24.8893 173.704 24.4955C173.937 24.1471 174.053 23.7477 174.053 23.296C174.053 22.6477 173.785 22.1029 173.253 21.6637C172.512 21.0487 171.312 20.7423 169.656 20.7423C168.961 20.7423 168.261 20.7829 167.553 20.8636C166.848 20.9453 166.129 21.0896 165.399 21.2984V23.6613C165.978 23.3719 166.511 23.183 166.997 23.0966C167.483 23.0092 167.966 22.9657 168.44 22.9657C168.973 22.9657 169.366 23.0531 169.622 23.2266C169.829 23.3662 169.935 23.5569 169.935 23.7999C169.935 23.9849 169.87 24.1425 169.743 24.2695C169.557 24.4546 169.239 24.5477 168.787 24.5477H167.085V26.2845H168.562C168.898 26.2845 169.17 26.3261 169.379 26.4068C169.691 26.534 169.848 26.7598 169.848 27.0845C169.848 27.3274 169.725 27.5447 169.482 27.7362C169.239 27.927 168.84 28.022 168.283 28.022C167.808 28.022 167.294 27.9537 166.738 27.8142C166.181 27.6747 165.665 27.5068 165.191 27.3101V29.7084C165.828 29.8934 166.443 30.033 167.041 30.1251C167.638 30.2179 168.377 30.2636 169.256 30.2636C171.191 30.2636 172.604 29.922 173.496 29.2387C174.128 28.7534 174.452 28.1484 174.468 27.421ZM63.4489 26.5975V26.0937H63.224C62.4705 26.0937 61.9465 26.1782 61.6514 26.346C61.3563 26.5141 61.2083 26.795 61.2083 27.1877C61.2083 27.4431 61.3011 27.6518 61.4862 27.8142C61.6712 27.9754 61.9209 28.0572 62.2332 28.0572C62.5692 28.0572 62.8557 27.9356 63.093 27.6927C63.3303 27.4487 63.4489 27.0845 63.4489 26.5975ZM67.4461 30.0557H63.4489V28.9436H63.3795C62.9868 29.4644 62.477 29.8299 61.8517 30.0377C61.3998 30.1896 60.8543 30.2636 60.2176 30.2636C59.1869 30.2636 58.3878 29.9978 57.8193 29.4644C57.2982 28.9786 57.0384 28.3351 57.0384 27.5361C57.0384 26.5739 57.3685 25.8392 58.0292 25.3298C58.5728 24.9006 59.332 24.6171 60.3047 24.4775C60.8723 24.3968 61.7178 24.3559 62.8415 24.3559H63.4489V24.078C63.4489 23.6613 63.2068 23.3606 62.7199 23.1744C62.3489 23.0351 61.8859 22.9657 61.3296 22.9657C61.0289 22.9657 60.6929 22.9952 60.3227 23.0531C59.5921 23.1688 58.869 23.3776 58.1505 23.6785V21.2984C58.8224 21.1245 59.5313 20.989 60.2784 20.8902C61.0259 20.7915 61.7463 20.7423 62.442 20.7423C63.8551 20.7423 64.99 20.9861 65.8479 21.4719C66.9137 22.0747 67.4461 23.0009 67.4461 24.2526V30.0557ZM77.698 27.3623C77.698 28.1158 77.3725 28.7405 76.7245 29.2387C75.8325 29.922 74.4193 30.2636 72.4844 30.2636C71.6047 30.2636 70.8652 30.2179 70.2693 30.1251C69.6735 30.033 69.0564 29.8934 68.4189 29.7084V27.3101C68.8934 27.5068 69.4085 27.6747 69.9657 27.8142C70.5217 27.9537 71.0371 28.022 71.5117 28.022C72.0677 28.022 72.4671 27.927 72.7101 27.7362C72.9541 27.5447 73.0756 27.3274 73.0756 27.0845C73.0756 26.7598 72.9191 26.534 72.6068 26.4068C72.398 26.3261 72.1255 26.2845 71.7895 26.2845H70.313V24.5477H72.0155C72.4671 24.5477 72.7862 24.4546 72.9712 24.2695C73.0994 24.1425 73.1628 23.9849 73.1628 23.7999C73.1628 23.5569 73.0576 23.3662 72.8497 23.2266C72.5954 23.0531 72.2017 22.9657 71.6682 22.9657C71.1937 22.9657 70.7124 23.0092 70.2258 23.0966C69.7388 23.183 69.2065 23.3719 68.6265 23.6613V21.2984C69.3574 21.0896 70.0749 20.9453 70.7818 20.8636C71.4888 20.7829 72.1893 20.7423 72.885 20.7423C74.5407 20.7423 75.7404 21.0487 76.4816 21.6637C77.014 22.1029 77.2806 22.6477 77.2806 23.296C77.2806 23.7477 77.1649 24.1471 76.9332 24.4955C76.6667 24.8893 76.2728 25.1503 75.7517 25.2776C76.3307 25.3695 76.8004 25.6068 77.1592 25.9902C77.5178 26.3716 77.698 26.8292 77.698 27.3623ZM153.872 21.3675H148.573V30.0557H143.916V17.8924H153.872V21.3675ZM160.392 26.5975V26.0937H160.166C159.412 26.0937 158.888 26.1782 158.593 26.346C158.298 26.5141 158.149 26.795 158.149 27.1877C158.149 27.4431 158.242 27.6518 158.428 27.8142C158.613 27.9754 158.862 28.0572 159.175 28.0572C159.511 28.0572 159.798 27.9356 160.035 27.6927C160.273 27.4487 160.392 27.0845 160.392 26.5975ZM164.387 30.0557H160.392V28.9436H160.322C159.929 29.4644 159.419 29.8299 158.793 30.0377C158.342 30.1896 157.797 30.2636 157.16 30.2636C156.128 30.2636 155.33 29.9978 154.761 29.4644C154.24 28.9786 153.98 28.3351 153.98 27.5361C153.98 26.5739 154.31 25.8392 154.97 25.3298C155.515 24.9006 156.273 24.6171 157.247 24.4775C157.814 24.3968 158.659 24.3559 159.783 24.3559H160.392V24.078C160.392 23.6613 160.148 23.3606 159.662 23.1744C159.291 23.0351 158.827 22.9657 158.271 22.9657C157.971 22.9657 157.635 22.9952 157.264 23.0531C156.535 23.1688 155.809 23.3776 155.092 23.6785V21.2984C155.763 21.1245 156.473 20.989 157.22 20.8902C157.967 20.7915 158.689 20.7423 159.383 20.7423C160.797 20.7423 161.932 20.9861 162.789 21.4719C163.855 22.0747 164.387 23.0009 164.387 24.2526V30.0557Z" fill="white"/>
<path fill-rule="evenodd" clip-rule="evenodd" d="M95.0347 33.821L95.5479 32.7829H96.182L95.3099 34.2755V35.1808H94.7366V34.2755L93.8596 32.7829H94.5155L95.0347 33.821ZM91.1731 33.6805H91.1626V35.1808H90.5885V32.7829H91.1731L92.1297 34.2726H92.1401V32.7829H92.7123V35.1808H92.1307L91.1731 33.6805ZM87.9229 34.324H88.5548L88.2398 33.4091L87.9229 34.324ZM87.9485 32.7829H88.5293L89.4431 35.1808H88.8367L88.6791 34.731H87.7975L87.6437 35.1808H87.0365L87.9485 32.7829ZM84.6004 33.2515V33.8922H85.0501C85.1451 33.8922 85.2209 33.8817 85.2788 33.8619L85.4127 33.7575L85.4601 33.5619C85.4601 33.4471 85.4268 33.3674 85.3605 33.3208C85.295 33.2754 85.1916 33.2515 85.0501 33.2515H84.6004ZM84.0281 32.7829H85.1632C85.3947 32.7829 85.5777 32.8208 85.7117 32.8977C85.8435 32.9736 85.9336 33.0704 85.9831 33.188C86.0323 33.3047 86.057 33.4282 86.057 33.559C86.057 33.7801 86.0097 33.949 85.9118 34.0657C85.816 34.1836 85.7001 34.2613 85.5645 34.2993C85.4289 34.3371 85.2901 34.3571 85.1478 34.3571H84.6004V35.1808H84.0281V32.7829ZM81.0113 35.1808L80.4019 33.4669H80.3906V35.1808H79.8174V32.7829H80.6239L81.2038 34.4311L81.7846 32.7829H82.5903V35.1808H82.0162V33.4669H82.0058L81.3965 35.1808H81.0113ZM77.2596 34.7832C77.519 34.7832 77.6857 34.695 77.7589 34.5204C77.8329 34.3439 77.87 34.1645 77.87 33.9813V33.9595V33.9406V33.8742L77.8625 33.8116L77.8547 33.7421L77.8329 33.6377C77.8103 33.5258 77.7532 33.4214 77.6613 33.3246C77.5682 33.2278 77.4345 33.1804 77.2596 33.1804C77.106 33.1804 76.9664 33.2334 76.8394 33.3378C76.713 33.4433 76.6506 33.6576 76.6506 33.9813C76.6506 34.1588 76.6724 34.3022 76.7189 34.4122C76.7652 34.5233 76.8203 34.6059 76.8878 34.66L77.0843 34.7614L77.2596 34.7832ZM77.2596 35.2483C77.0415 35.2483 76.8545 35.2141 76.7017 35.1466C76.5489 35.0802 76.4217 34.9874 76.3221 34.8688C76.2215 34.749 76.1475 34.6135 76.0991 34.4615C76.0792 34.3931 76.062 34.3154 76.0478 34.2282L76.0356 34.1104L76.0308 33.9813C76.0308 33.6092 76.1133 33.3302 76.2786 33.1425C76.4445 32.9556 76.6164 32.8377 76.7975 32.7885C76.8838 32.7648 76.9674 32.7476 77.0472 32.7345L77.2596 32.7153C77.4781 32.7153 77.6658 32.7494 77.8205 32.8151C77.9762 32.8816 78.1025 32.9725 78.2001 33.0884C78.298 33.2052 78.3709 33.3408 78.4193 33.4974L78.4696 33.7279C78.4821 33.8134 78.4887 33.8978 78.4887 33.9813V34.0022V34.0875L78.4821 34.1389L78.4774 34.2091L78.4613 34.2899C78.446 34.3856 78.4167 34.4836 78.3749 34.5849C78.2988 34.7738 78.1689 34.9314 77.9857 35.0584C77.8025 35.1856 77.5607 35.2483 77.2596 35.2483ZM74.3016 34.3334H74.8721C74.8721 34.4445 74.8475 34.5537 74.7979 34.6638C74.7535 34.7606 74.6879 34.8612 74.6007 34.9683C74.4393 35.1609 74.1611 35.2588 73.7674 35.2588C73.61 35.2588 73.4636 35.2397 73.3251 35.2028C73.1876 35.1657 73.0633 35.1012 72.9504 35.011C72.8385 34.9198 72.7491 34.7928 72.6797 34.6296C72.6107 34.4653 72.5765 34.2643 72.5765 34.0279C72.5765 33.7499 72.6219 33.5126 72.712 33.317C72.8022 33.1226 72.9361 32.9736 73.1136 32.8719C73.2928 32.7694 73.5035 32.7183 73.7475 32.7183C73.9468 32.7183 74.1165 32.7458 74.2591 32.7997C74.4022 32.8538 74.5144 32.9233 74.5967 33.0096C74.6793 33.0949 74.7401 33.189 74.7791 33.2905L74.8283 33.4489L74.8407 33.5202L74.8463 33.5971H74.2809C74.2712 33.5003 74.2295 33.4072 74.1566 33.3179C74.0834 33.2277 73.9562 33.1831 73.773 33.1831C73.6422 33.1831 73.5132 33.2353 73.3869 33.3408C73.2598 33.4462 73.196 33.6663 73.196 34.0041C73.196 34.1465 73.217 34.2774 73.2579 34.3961C73.3006 34.5147 73.366 34.6097 73.4561 34.6818C73.5462 34.7538 73.6585 34.7899 73.7929 34.7899C73.9686 34.7899 74.0939 34.7426 74.1679 34.6477C74.2419 34.5527 74.2865 34.4472 74.3016 34.3334ZM67.3198 34.7148V35.1808H65.6126V32.7829H66.1859V34.7148H67.3198ZM62.9459 34.324H63.5778L63.2628 33.4091L62.9459 34.324ZM62.9715 32.7829H63.5523L64.4661 35.1808H63.8598L63.7023 34.731H62.8205L62.6677 35.1808H62.0595L62.9715 32.7829ZM59.3729 33.6805H59.3616V35.1808H58.7884V32.7829H59.3718L60.3295 34.2726H60.339V32.7829H60.9122V35.1808H60.3295L59.3729 33.6805ZM56.2306 34.7832C56.4908 34.7832 56.656 34.695 56.7299 34.5204C56.8039 34.3439 56.841 34.1645 56.841 33.9813V33.9595V33.9406V33.8742L56.8324 33.8116L56.8257 33.7421L56.8039 33.6377C56.7813 33.5258 56.7243 33.4214 56.6312 33.3246C56.5392 33.2278 56.4063 33.1804 56.2306 33.1804C56.077 33.1804 55.9374 33.2334 55.8104 33.3378C55.6851 33.4433 55.6216 33.6576 55.6216 33.9813C55.6216 34.1588 55.6441 34.3022 55.6907 34.4122C55.7362 34.5233 55.7913 34.6059 55.8589 34.66L56.0553 34.7614L56.2306 34.7832ZM56.2306 35.2483C56.0125 35.2483 55.8255 35.2141 55.6727 35.1466C55.5199 35.0802 55.3937 34.9874 55.2931 34.8688C55.1925 34.749 55.1186 34.6135 55.0701 34.4615C55.0503 34.3931 55.033 34.3154 55.0198 34.2282L55.0075 34.1104L55.0018 33.9813C55.0018 33.6092 55.0844 33.3302 55.2495 33.1425C55.4155 32.9556 55.5882 32.8377 55.7685 32.7885C55.8559 32.7648 55.9385 32.7476 56.0181 32.7345L56.2306 32.7153C56.4491 32.7153 56.6368 32.7494 56.7915 32.8151C56.9472 32.8816 57.0734 32.9725 57.1711 33.0884C57.269 33.2052 57.343 33.3408 57.3914 33.4974L57.4417 33.7279C57.4541 33.8134 57.4597 33.8978 57.4597 33.9813V34.0022V34.0875L57.4541 34.1389L57.4484 34.2091L57.4331 34.2899C57.417 34.3856 57.3877 34.4836 57.3459 34.5849C57.269 34.7738 57.1399 34.9314 56.9567 35.0584C56.7746 35.1856 56.5317 35.2483 56.2306 35.2483ZM53.1018 32.7829H53.6751V35.1808H53.1018V32.7829ZM50.571 33.2477H49.8355V32.7829H51.8786V33.2477H51.1442V35.1808H50.571V33.2477ZM47.3821 34.324H48.0132L47.6982 33.4091L47.3821 34.324ZM47.4069 32.7829H47.9887L48.9015 35.1808H48.2951L48.1378 34.731H47.257L47.1031 35.1808H46.4949L47.4069 32.7829ZM43.8091 33.6805H43.7968V35.1808H43.2246V32.7829H43.8083L44.7657 34.2726H44.7754V32.7829H45.3484V35.1808H44.7657L43.8091 33.6805ZM172.312 32.7836H172.883V35.2066H172.312V32.7836ZM170.656 34.1322V34.7358H171.145C171.395 34.7358 171.52 34.6352 171.52 34.4351C171.52 34.2328 171.389 34.1322 171.127 34.1322H170.656ZM170.656 32.7836V33.6625H171.261C171.355 33.6625 171.435 33.6673 171.502 33.6786L171.695 33.7376C171.811 33.7849 171.9 33.8484 171.963 33.9291C172.028 34.009 172.072 34.0953 172.095 34.1881C172.117 34.2804 172.13 34.3695 172.13 34.4559C172.13 34.9559 171.838 35.2066 171.258 35.2066H170.087V32.7836H170.656ZM167.681 34.3506H168.248C168.248 34.4625 168.223 34.5726 168.174 34.6836C168.132 34.7813 168.065 34.8838 167.978 34.9911C167.818 35.1867 167.541 35.2843 167.148 35.2843C166.992 35.2843 166.845 35.2653 166.708 35.2284C166.571 35.1905 166.447 35.1259 166.335 35.0348C166.223 34.9427 166.133 34.8147 166.066 34.6495C165.996 34.4836 165.962 34.2804 165.962 34.0421C165.962 33.7601 166.007 33.5202 166.097 33.3238C166.186 33.1272 166.32 32.9763 166.498 32.8729C166.676 32.7704 166.886 32.7183 167.129 32.7183C167.327 32.7183 167.496 32.7457 167.638 32.8009C167.781 32.855 167.892 32.926 167.973 33.0123C168.058 33.0987 168.116 33.1936 168.155 33.2972L168.204 33.4565L168.218 33.5277L168.222 33.6066H167.659C167.65 33.5078 167.608 33.4139 167.536 33.3246C167.463 33.2334 167.336 33.189 167.154 33.189C167.023 33.189 166.894 33.2412 166.769 33.3475C166.642 33.4527 166.579 33.6767 166.579 34.0173C166.579 34.1618 166.6 34.2944 166.641 34.4141C166.683 34.5327 166.748 34.6296 166.838 34.7025C166.929 34.7757 167.039 34.8109 167.174 34.8109C167.349 34.8109 167.473 34.7644 167.546 34.6675C167.62 34.5707 167.665 34.4653 167.681 34.3506ZM163.496 33.2537H162.964C162.875 33.2537 162.789 33.2754 162.712 33.317C162.632 33.3588 162.593 33.4443 162.593 33.5705C162.593 33.7916 162.723 33.9006 162.985 33.9006H163.496V33.2537ZM163.496 34.3695H163.194L162.721 35.2066H162.042L162.612 34.3248C162.52 34.3135 162.425 34.2804 162.33 34.229C162.238 34.1787 162.157 34.0962 162.089 33.9851C162.023 33.8732 161.99 33.7327 161.99 33.5638C161.99 33.432 162.01 33.3179 162.051 33.2195C162.091 33.1207 162.148 33.04 162.221 32.9763C162.293 32.9138 162.385 32.8663 162.493 32.8302L162.561 32.8132L162.657 32.7933L162.742 32.7836H162.842H164.069V35.2066H163.496V34.3695ZM158.583 34.3477L159.55 32.7836H160.12V35.2066H159.55V33.6264L158.583 35.2066H158.012V32.7836H158.583V34.3477ZM154.553 34.1637V35.2066H153.983V32.7836H154.553V33.6956H155.434V32.7836H156.006V35.2066H155.434V34.1637H154.553ZM150.754 34.3409H151.383L151.069 33.4166L150.754 34.3409ZM150.779 32.7836H151.356L152.266 35.2066H151.663L151.507 34.7519H150.628L150.475 35.2066H149.869L150.779 32.7836ZM146.669 33.2537V35.2066H146.098V32.7836H148.155V35.2066H147.584V33.2537H146.669ZM142.522 35.2066L141.915 33.4755H141.903V35.2066H141.333V32.7836H142.137L142.714 34.4494L143.292 32.7836H144.095V35.2066H143.522V33.4755H143.513L142.905 35.2066H142.522ZM138.213 34.805C138.471 34.805 138.636 34.716 138.71 34.5384C138.783 34.3609 138.819 34.1798 138.819 33.9947V33.9729V33.9538V33.8865L138.812 33.8229L138.805 33.7518L138.783 33.6474C138.761 33.5345 138.704 33.4282 138.612 33.3314C138.52 33.2334 138.386 33.1853 138.213 33.1853C138.06 33.1853 137.921 33.2383 137.794 33.3446C137.669 33.4508 137.605 33.6673 137.605 33.9947C137.605 34.1739 137.629 34.3192 137.674 34.4302C137.719 34.5421 137.775 34.6258 137.841 34.6807L138.038 34.7824L138.213 34.805ZM138.213 35.2749C137.994 35.2749 137.81 35.2408 137.657 35.1733C137.505 35.105 137.378 35.011 137.278 34.8905C137.179 34.77 137.105 34.6333 137.057 34.4795C137.038 34.4103 137.02 34.3326 137.006 34.2444L136.994 34.1247L136.988 33.9947C136.988 33.6189 137.071 33.337 137.236 33.1471C137.4 32.9575 137.573 32.8388 137.751 32.7885C137.839 32.7656 137.923 32.7476 138.001 32.7345L138.213 32.7153C138.43 32.7153 138.617 32.7494 138.771 32.816C138.926 32.8824 139.051 32.9744 139.148 33.0922C139.246 33.2097 139.319 33.3475 139.368 33.5059L139.417 33.7384C139.43 33.8247 139.437 33.9103 139.437 33.9947V34.0166V34.1018L139.43 34.155L139.425 34.2242L139.41 34.306C139.394 34.4028 139.364 34.5015 139.324 34.604C139.247 34.7956 139.118 34.9551 138.936 35.0831C138.754 35.2104 138.512 35.2749 138.213 35.2749ZM133.829 33.8021L134.657 32.7836H135.33L134.356 33.8903L135.383 35.2066H134.684L133.829 34.0203H133.818V35.2066H133.247V32.7836H133.818V33.8021H133.829ZM128.732 35.6354H128.352L128.349 35.2141L128.111 35.2227L127.085 34.1484V35.2141L126.62 35.2131V32.7933H127.08V33.7147L128.059 32.7836H128.672L127.448 33.9207L128.395 34.8868L128.732 34.883V35.6354ZM124.066 32.7836H124.636V35.2066H124.066V32.7836ZM122.409 34.1322V34.7358H122.898C123.147 34.7358 123.272 34.6352 123.272 34.4351C123.272 34.2328 123.141 34.1322 122.879 34.1322H122.409ZM122.409 32.7836V33.6625H123.014C123.107 33.6625 123.188 33.6673 123.254 33.6786L123.447 33.7376C123.563 33.7849 123.653 33.8484 123.716 33.9291C123.781 34.009 123.825 34.0953 123.847 34.1881C123.871 34.2804 123.882 34.3695 123.882 34.4559C123.882 34.9559 123.592 35.2066 123.009 35.2066H121.839V32.7836H122.409ZM119.169 33.2537H118.438V32.7836H120.473V33.2537H119.74V35.2066H119.169V33.2537ZM115.654 33.2537H114.922V32.7836H116.956V33.2537H116.224V35.2066H115.654V33.2537ZM111.179 35.2066V34.7358L111.288 34.7426C111.408 34.7426 111.502 34.7111 111.567 34.6495C111.635 34.5868 111.681 34.4994 111.706 34.3856L111.735 34.1881L111.743 34.0695V33.9396L111.759 32.7836H113.552V35.2066H112.979V33.2537H112.297L112.282 34.098L112.272 34.2993V34.3409L112.267 34.3867L112.247 34.4967C112.228 34.6161 112.189 34.7321 112.13 34.845C112.072 34.9578 111.983 35.0481 111.864 35.1173C111.745 35.1875 111.592 35.2227 111.4 35.2227L111.179 35.2066ZM110.3 32.7836L109.372 34.1968V34.2043L109.886 34.1968L109.903 34.6123L109.38 34.6142V35.1969H108.911L108.906 34.6142H108.407V34.1968L108.906 34.2043L107.975 32.7874L108.504 32.7836L109.139 33.7897L109.781 32.7836H110.3Z" fill="white"/>
</svg>
