<svg  viewBox="0 0 26 20" fill="none" xmlns="http://www.w3.org/2000/svg">
<path d="M6.41582 4.36511C5.32451 4.36511 4.40552 5.25539 4.40552 6.37542C4.40552 7.49544 5.2958 8.38573 6.41582 8.38573C7.50713 8.38573 8.42613 7.49544 8.42613 6.37542C8.42613 5.25539 7.53585 4.36511 6.41582 4.36511Z" fill="#3182CE"/>
<path d="M6.41582 8.73083C5.32451 8.73083 4.40552 9.62111 4.40552 10.7411C4.40552 11.8324 5.2958 12.7514 6.41582 12.7514C7.50713 12.7514 8.42613 11.8612 8.42613 10.7411C8.42613 9.64983 7.53585 8.73083 6.41582 8.73083Z" fill="#3182CE"/>
<path d="M6.41582 13.1244C5.32451 13.1244 4.40552 14.0147 4.40552 15.1347C4.40552 16.226 5.2958 17.145 6.41582 17.145C7.50713 17.145 8.42613 16.2547 8.42613 15.1347C8.42613 14.0147 7.53585 13.1244 6.41582 13.1244Z" fill="#3182CE"/>
<path d="M2.01031 4.36511C0.918997 4.36511 0 5.25539 0 6.37542C0 7.49544 0.890278 8.38573 2.01031 8.38573C3.10162 8.38573 4.02061 7.49544 4.02061 6.37542C4.02061 5.25539 3.13034 4.36511 2.01031 4.36511Z" fill="#3182CE"/>
<path d="M2.01031 8.73083C0.918997 8.73083 0 9.62111 0 10.7411C0 11.8324 0.890278 12.7514 2.01031 12.7514C3.10162 12.7514 4.02061 11.8612 4.02061 10.7411C4.02061 9.64983 3.13034 8.73083 2.01031 8.73083Z" fill="#3182CE"/>
<path d="M2.01031 13.1244C0.918997 13.1244 0 14.0147 0 15.1347C0 16.226 0.890278 17.145 2.01031 17.145C3.10162 17.145 4.02061 16.2547 4.02061 15.1347C4.02061 14.0147 3.13034 13.1244 2.01031 13.1244Z" fill="#3182CE"/>
<path d="M10.6668 4.36511C9.57549 4.36511 8.65649 5.25539 8.65649 6.37542C8.65649 7.49544 9.54677 8.38573 10.6668 8.38573C11.7868 8.38573 12.6771 7.49544 12.6771 6.37542C12.6771 5.25539 11.7581 4.36511 10.6668 4.36511Z" fill="#3182CE"/>
<path d="M10.6668 8.73083C9.57549 8.73083 8.65649 9.62111 8.65649 10.7411C8.65649 11.8324 9.54677 12.7514 10.6668 12.7514C11.7868 12.7514 12.6771 11.8612 12.6771 10.7411C12.6484 9.64983 11.7581 8.73083 10.6668 8.73083Z" fill="#3182CE"/>
<path d="M10.6668 13.1244C9.57549 13.1244 8.65649 14.0147 8.65649 15.1347C8.65649 16.226 9.54677 17.145 10.6668 17.145C11.7868 17.145 12.6771 16.2547 12.6771 15.1347C12.6484 14.0147 11.7581 13.1244 10.6668 13.1244Z" fill="#3182CE"/>
<path d="M14.8885 0C13.7972 0 12.8782 0.890278 12.8782 2.01031C12.8782 3.10162 13.7685 4.02061 14.8885 4.02061C16.0085 4.02061 16.8988 3.13034 16.8988 2.01031C16.8988 0.890278 16.0085 0 14.8885 0Z" fill="#3182CE"/>
<path d="M14.8885 4.36511C13.7972 4.36511 12.8782 5.25539 12.8782 6.37542C12.8782 7.49544 13.7685 8.38573 14.8885 8.38573C16.0085 8.38573 16.8988 7.49544 16.8988 6.37542C16.8988 5.25539 16.0085 4.36511 14.8885 4.36511Z" fill="#3182CE"/>
<path d="M14.8885 8.73083C13.7972 8.73083 12.8782 9.62111 12.8782 10.7411C12.8782 11.8324 13.7685 12.7514 14.8885 12.7514C16.0085 12.7514 16.8988 11.8612 16.8988 10.7411C16.8988 9.64983 16.0085 8.73083 14.8885 8.73083Z" fill="#3182CE"/>
<path d="M14.8885 13.1244C13.7972 13.1244 12.8782 14.0147 12.8782 15.1347C12.8782 16.226 13.7685 17.145 14.8885 17.145C16.0085 17.145 16.8988 16.2547 16.8988 15.1347C16.8988 14.0147 16.0085 13.1244 14.8885 13.1244Z" fill="#3182CE"/>
<path d="M14.8885 17.4895C13.7972 17.4895 12.8782 18.3798 12.8782 19.4998C12.8782 20.6198 13.7685 21.5101 14.8885 21.5101C16.0085 21.5101 16.8988 20.6198 16.8988 19.4998C16.8988 18.3798 16.0085 17.4895 14.8885 17.4895Z" fill="#3182CE"/>
<path d="M19.1395 4.36511C18.0482 4.36511 17.1292 5.25539 17.1292 6.37542C17.1292 7.49544 18.0194 8.38573 19.1395 8.38573C20.2308 8.38573 21.1498 7.49544 21.1498 6.37542C21.1498 5.25539 20.2308 4.36511 19.1395 4.36511Z" fill="#3182CE"/>
<path d="M19.1395 8.73083C18.0482 8.73083 17.1292 9.62111 17.1292 10.7411C17.1292 11.8324 18.0194 12.7514 19.1395 12.7514C20.2308 12.7514 21.1498 11.8612 21.1498 10.7411C21.121 9.64983 20.2308 8.73083 19.1395 8.73083Z" fill="#3182CE"/>
<path d="M19.1395 13.1244C18.0482 13.1244 17.1292 14.0147 17.1292 15.1347C17.1292 16.226 18.0194 17.145 19.1395 17.145C20.2308 17.145 21.1498 16.2547 21.1498 15.1347C21.121 14.0147 20.2308 13.1244 19.1395 13.1244Z" fill="#3182CE"/>
<path d="M23.3611 8.73083C22.2698 8.73083 21.3508 9.62111 21.3508 10.7411C21.3508 11.8324 22.2411 12.7514 23.3611 12.7514C24.4524 12.7514 25.3714 11.8612 25.3714 10.7411C25.3714 9.64983 24.4812 8.73083 23.3611 8.73083Z" fill="#3182CE"/>
</svg>
