<svg width="94" height="128" viewBox="0 0 94 128" fill="none" xmlns="http://www.w3.org/2000/svg">
<path d="M0 79.0525C1.59849 56.2741 12.5785 44.4044 23.0536 33.0806C28.8783 26.784 34.5468 20.6562 38.3595 12.9156C51.1363 26.8291 63.7204 46.1562 70.5058 67.2531C60.9645 52.0388 46.8459 38.7943 46.8459 38.7943C46.8459 38.7943 19.5471 64.4029 15.2154 85.3071C14.9004 86.0722 14.7041 86.9133 14.6393 87.8361C14.6393 88.3077 14.653 88.7773 14.6797 89.2448C14.653 89.6957 14.6393 90.1433 14.6393 90.5873C14.6393 112.168 34.7684 122.239 46.8459 122.239C58.9234 122.239 79.0378 112.168 79.0378 90.5873C79.0378 90.1699 79.0524 89.7391 79.0524 89.3C79.0524 88.7978 79.0524 88.3266 79.0524 87.8361C79.0524 60.7533 68.0729 24.8869 42.4541 0C60.7533 13.1754 93.6918 43.1861 93.6918 79.0525C93.6918 111.991 64.4131 127.362 46.8459 127.362C29.2787 127.362 0 111.991 0 79.0525Z" fill="url(#paint0_linear_0_1)"/>
<path d="M26.3508 89.0729C26.3508 75.4431 46.8459 56.3615 46.8459 56.3615C46.8459 56.3615 67.341 75.4431 67.341 89.0729C67.341 102.703 54.5315 109.063 46.8459 109.063C39.1602 109.063 26.3508 102.703 26.3508 89.0729Z" fill="url(#paint1_linear_0_1)"/>
<defs>
<linearGradient id="paint0_linear_0_1" x1="78.3205" y1="-16.8353" x2="8.78356" y2="135.414" gradientUnits="userSpaceOnUse">
<stop stop-color="#2BA9E4"/>
<stop offset="1" stop-color="#31385F"/>
</linearGradient>
<linearGradient id="paint1_linear_0_1" x1="46.8459" y1="56.3615" x2="46.8459" y2="109.063" gradientUnits="userSpaceOnUse">
<stop stop-color="#077FBD"/>
<stop offset="1" stop-color="#162B65"/>
</linearGradient>
</defs>
</svg>
