<svg width="1724" height="466" viewBox="0 0 1724 466" fill="none" xmlns="http://www.w3.org/2000/svg">
<path d="M1498 1L1701 132.686L1397.5 354L863 354" stroke="url(#paint0_linear_0_1)" stroke-opacity="0.5"/>
<path d="M228 1L25 132.686L328.5 354L863 354" stroke="url(#paint1_linear_0_1)" stroke-opacity="0.5"/>
<g filter="url(#filter0_f_0_1)">
<path d="M1464.87 207.512L1709.33 348.662L1608.56 407L1364 265.775L1464.87 207.512Z" fill="#444ADB" fill-opacity="0.1"/>
</g>
<path d="M1480.07 211.91L1672.5 323.017L1593.17 368.938L1400.67 257.772L1480.07 211.91Z" fill="#444ADB" fill-opacity="0.1"/>
<path d="M1476.98 176.739L1680.19 294.069L1596.42 342.562L1393.14 225.17L1476.98 176.739Z" fill="url(#paint2_linear_0_1)" fill-opacity="0.6"/>
<path d="M1680.19 294.066V286.371L1596.42 334.864L1596.42 342.561L1680.19 294.066Z" fill="url(#paint3_linear_0_1)" fill-opacity="0.6"/>
<path d="M1680.19 294.066V286.371L1596.42 334.864L1596.42 342.561L1680.19 294.066Z" fill="url(#paint4_linear_0_1)" fill-opacity="0.6"/>
<path d="M1477.03 169.076L1680.19 286.371L1596.42 334.864L1393.18 217.507L1477.03 169.076Z" fill="url(#paint5_linear_0_1)" fill-opacity="0.6"/>
<g filter="url(#filter1_f_0_1)">
<path d="M1536.48 221.501L1476.83 187.056L1417.26 221.453L1476.97 255.942L1536.55 290.31L1596.26 324.799L1655.77 290.358L1596.11 255.913L1536.48 221.501Z" fill="#2A48DA" fill-opacity="0.2"/>
</g>
<path d="M1476.94 176.711V169.016L1393.17 217.509L1393.17 225.207L1476.94 176.711Z" fill="#444ADB" fill-opacity="0.6"/>
<g opacity="0.5">
<path d="M1435.68 192.316H1453.08L1472.43 181.198C1474.88 179.754 1479.29 179.971 1482.17 181.631L1500.8 192.389H1518.13V204.012C1518.2 204.951 1517.62 205.89 1516.47 206.612L1481.45 226.827C1479 228.271 1474.59 228.054 1471.71 226.394L1438.06 206.973C1436.54 206.106 1435.75 205.023 1435.68 203.94V192.316Z" fill="url(#paint6_linear_0_1)"/>
<path d="M1516.97 204.807V193.183H1499.65L1481.02 182.425C1478.13 180.765 1473.8 180.62 1471.27 181.992L1451.92 193.183H1435.68V192.389H1453.08L1472.43 181.198C1474.88 179.754 1479.29 179.971 1482.17 181.631L1500.8 192.389H1518.13V204.012C1518.2 204.951 1517.62 205.89 1516.47 206.612L1516.25 206.756C1516.83 206.106 1517.05 205.456 1516.97 204.807Z" fill="#4908D4"/>
<path d="M1481.38 215.131L1516.4 194.915C1518.85 193.472 1518.56 190.945 1515.67 189.284L1482.03 169.863C1479.14 168.202 1474.81 168.058 1472.28 169.43L1437.27 189.645C1434.81 191.089 1435.1 193.616 1437.99 195.276L1471.71 214.77C1474.59 216.43 1478.93 216.575 1481.38 215.131Z" fill="url(#paint7_linear_0_1)"/>
<path d="M1437.41 189.717L1472.43 169.502C1473.73 168.78 1475.53 168.419 1477.34 168.563C1476.04 168.635 1474.74 168.924 1473.8 169.502L1438.78 189.717C1436.33 191.161 1436.62 193.688 1439.5 195.348L1473.15 214.77C1474.52 215.564 1476.25 215.997 1477.99 216.141C1475.89 216.286 1473.58 215.78 1471.78 214.77L1438.13 195.348C1435.17 193.688 1434.88 191.161 1437.41 189.717Z" fill="#6EB8FC"/>
<path d="M1477.12 210.366C1478.35 210.366 1479.5 210.149 1480.44 209.644L1506.5 194.627C1507.44 194.121 1507.88 193.399 1507.88 192.533C1507.88 191.594 1507.15 190.584 1505.93 189.934L1480.87 175.494C1478.64 174.195 1475.24 174.05 1473.37 175.206L1447.3 190.223C1446.36 190.728 1445.93 191.45 1445.93 192.316C1445.93 193.255 1446.65 194.266 1447.88 194.915L1472.93 209.355C1474.09 210.005 1475.68 210.366 1477.12 210.366ZM1476.69 174.917C1478.06 174.917 1479.5 175.278 1480.66 175.927L1505.71 190.367C1506.72 190.945 1507.3 191.739 1507.3 192.461C1507.3 193.038 1506.94 193.616 1506.22 194.049L1480.15 209.066C1478.35 210.077 1475.24 209.933 1473.22 208.777L1448.17 194.338C1447.16 193.76 1446.58 192.966 1446.58 192.244C1446.58 191.667 1446.94 191.089 1447.66 190.656L1473.73 175.639C1474.52 175.133 1475.53 174.917 1476.69 174.917Z" fill="#200689"/>
<path d="M1479.86 215.131L1514.88 194.915C1517.33 193.471 1517.05 190.944 1514.16 189.284L1480.51 169.863C1479.14 169.069 1477.48 168.635 1475.75 168.491C1477.91 168.347 1480.22 168.78 1482.03 169.863L1515.75 189.356C1518.63 191.017 1518.92 193.544 1516.47 194.988L1481.45 215.203C1480.15 215.925 1478.35 216.286 1476.47 216.141C1477.7 215.997 1478.93 215.708 1479.86 215.131Z" fill="#4908D4"/>
</g>
<path d="M1435.68 160.189H1453.08L1472.43 149.07C1474.88 147.626 1479.29 147.843 1482.17 149.503L1500.8 160.261H1518.13V171.885C1518.2 172.823 1517.62 173.762 1516.47 174.484L1481.45 194.699C1479 196.143 1474.59 195.927 1471.71 194.266L1438.06 174.845C1436.54 173.978 1435.75 172.895 1435.68 171.813V160.189Z" fill="url(#paint8_linear_0_1)"/>
<path d="M1516.97 172.679V161.055H1499.65L1481.02 150.298C1478.13 148.637 1473.8 148.493 1471.27 149.864L1451.92 161.055H1435.68V160.261H1453.08L1472.43 149.07C1474.88 147.626 1479.29 147.843 1482.17 149.503L1500.8 160.261H1518.13V171.885C1518.2 172.823 1517.62 173.762 1516.47 174.484L1516.25 174.628C1516.83 174.051 1517.05 173.329 1516.97 172.679Z" fill="#4908D4"/>
<path d="M1481.38 183.003L1516.4 162.787C1518.85 161.343 1518.56 158.816 1515.67 157.156L1482.03 137.735C1479.14 136.074 1474.81 135.93 1472.28 137.302L1437.27 157.517C1434.81 158.961 1435.1 161.488 1437.99 163.148L1471.71 182.642C1474.59 184.302 1478.93 184.447 1481.38 183.003Z" fill="url(#paint9_linear_0_1)"/>
<path d="M1437.41 157.589L1472.43 137.374C1473.73 136.652 1475.53 136.291 1477.34 136.436C1476.04 136.508 1474.74 136.797 1473.8 137.374L1438.78 157.589C1436.33 159.033 1436.62 161.56 1439.5 163.221L1473.15 182.642C1474.52 183.436 1476.25 183.869 1477.99 184.014C1475.89 184.158 1473.58 183.653 1471.78 182.642L1438.13 163.221C1435.17 161.56 1434.88 159.033 1437.41 157.589Z" fill="#6EB8FC"/>
<path d="M1477.12 178.238C1478.35 178.238 1479.5 178.021 1480.44 177.516L1506.5 162.499C1507.44 161.994 1507.88 161.272 1507.88 160.405C1507.88 159.467 1507.15 158.456 1505.93 157.806L1480.87 143.367C1478.64 142.067 1475.24 141.923 1473.37 143.078L1447.3 158.095C1446.36 158.6 1445.93 159.322 1445.93 160.189C1445.93 161.127 1446.65 162.138 1447.88 162.788L1472.93 177.227C1474.09 177.877 1475.68 178.238 1477.12 178.238ZM1480.08 176.938C1478.27 177.949 1475.17 177.805 1473.15 176.65L1448.1 162.21C1447.09 161.633 1446.51 160.838 1446.51 160.116C1446.51 159.539 1446.87 158.961 1447.59 158.528L1473.65 143.511C1475.39 142.5 1478.56 142.645 1480.59 143.8L1505.64 158.239C1506.65 158.817 1507.23 159.611 1507.23 160.333C1507.23 160.911 1506.87 161.488 1506.14 161.921L1480.08 176.938Z" fill="url(#paint10_linear_0_1)"/>
<path d="M1479.86 183.003L1514.88 162.788C1517.33 161.344 1517.05 158.817 1514.16 157.156L1480.51 137.735C1479.14 136.941 1477.48 136.508 1475.75 136.363C1477.91 136.219 1480.22 136.652 1482.03 137.735L1515.75 157.228C1518.63 158.889 1518.92 161.416 1516.47 162.86L1481.45 183.075C1480.15 183.797 1478.35 184.158 1476.47 184.014C1477.7 183.869 1478.93 183.58 1479.86 183.003Z" fill="#2551EC"/>
<path d="M1470.69 189.501L1441.09 172.39C1440.8 172.245 1440.59 171.812 1440.59 171.451V170.08C1440.59 169.719 1440.8 169.574 1441.09 169.719L1470.69 186.829C1470.98 186.974 1471.2 187.407 1471.2 187.768V189.14C1471.2 189.501 1470.98 189.717 1470.69 189.501Z" fill="#6DE0F6"/>
<path d="M1441.74 172.029C1441.45 171.884 1441.24 171.451 1441.24 171.09V169.791L1441.09 169.719C1440.8 169.574 1440.59 169.719 1440.59 170.08V171.451C1440.59 171.812 1440.8 172.245 1441.09 172.39L1470.69 189.501C1470.98 189.645 1471.2 189.501 1471.2 189.14V189.067L1441.74 172.029Z" fill="#267FE5"/>
<path d="M1476.83 107L1536.48 141.445L1476.97 175.887L1417.26 141.397L1476.83 107Z" fill="url(#paint11_linear_0_1)" fill-opacity="0.6"/>
<path d="M1536.48 211.984L1536.48 141.445L1476.97 175.887L1476.91 246.381L1536.48 211.984Z" fill="url(#paint12_linear_0_1)" fill-opacity="0.6"/>
<path d="M1417.23 211.866V141.327L1476.94 175.816L1476.88 246.311L1417.23 211.866Z" fill="url(#paint13_linear_0_1)" fill-opacity="0.6"/>
<g opacity="0.5">
<path d="M1495.34 226.755H1512.74L1532.09 215.637C1534.55 214.193 1538.95 214.409 1541.84 216.07L1560.46 226.827H1577.79V238.451C1577.86 239.39 1577.29 240.328 1576.13 241.05L1541.12 261.266C1538.66 262.71 1534.26 262.493 1531.37 260.833L1497.72 241.411C1496.21 240.545 1495.41 239.462 1495.34 238.379V226.755Z" fill="url(#paint14_linear_0_1)"/>
<path d="M1576.64 239.245V227.622H1559.31L1540.68 216.864C1537.79 215.204 1533.46 215.059 1530.94 216.431L1511.59 227.622H1495.34V226.827H1512.74L1532.09 215.637C1534.55 214.193 1538.95 214.409 1541.84 216.07L1560.46 226.827H1577.79V238.451C1577.86 239.39 1577.29 240.328 1576.13 241.05L1575.91 241.195C1576.49 240.545 1576.71 239.895 1576.64 239.245Z" fill="#4908D4"/>
<path d="M1541.04 249.57L1576.06 229.354C1578.51 227.91 1578.22 225.384 1575.34 223.723L1541.69 204.302C1538.8 202.641 1534.47 202.497 1531.95 203.869L1496.93 224.084C1494.48 225.528 1494.76 228.055 1497.65 229.715L1531.37 249.209C1534.26 250.869 1538.59 251.014 1541.04 249.57Z" fill="url(#paint15_linear_0_1)"/>
<path d="M1497.07 224.156L1532.09 203.941C1533.39 203.219 1535.19 202.858 1537 203.002C1535.7 203.074 1534.4 203.363 1533.46 203.941L1498.45 224.156C1495.99 225.6 1496.28 228.127 1499.17 229.787L1532.81 249.209C1534.18 250.003 1535.92 250.436 1537.65 250.58C1535.56 250.725 1533.24 250.219 1531.44 249.209L1497.8 229.787C1494.84 228.127 1494.55 225.6 1497.07 224.156Z" fill="#6EB8FC"/>
<path d="M1536.78 244.805C1538.01 244.805 1539.17 244.588 1540.1 244.083L1566.17 229.066C1567.11 228.56 1567.54 227.838 1567.54 226.972C1567.54 226.033 1566.82 225.022 1565.59 224.373L1540.54 209.933C1538.3 208.634 1534.91 208.489 1533.03 209.644L1506.97 224.661C1506.03 225.167 1505.59 225.889 1505.59 226.755C1505.59 227.694 1506.32 228.705 1507.54 229.354L1532.6 243.794C1533.75 244.444 1535.34 244.805 1536.78 244.805ZM1536.35 209.356C1537.72 209.356 1539.17 209.717 1540.32 210.366L1565.37 224.806C1566.38 225.383 1566.96 226.178 1566.96 226.9C1566.96 227.477 1566.6 228.055 1565.88 228.488L1539.82 243.505C1538.01 244.516 1534.91 244.371 1532.88 243.216L1507.83 228.777C1506.82 228.199 1506.24 227.405 1506.24 226.683C1506.24 226.105 1506.6 225.528 1507.33 225.095L1533.39 210.078C1534.18 209.572 1535.2 209.356 1536.35 209.356Z" fill="#200689"/>
<path d="M1539.53 249.57L1574.54 229.355C1577 227.911 1576.71 225.384 1573.82 223.723L1540.18 204.302C1538.8 203.508 1537.14 203.075 1535.41 202.93C1537.58 202.786 1539.89 203.219 1541.69 204.302L1575.41 223.795C1578.3 225.456 1578.59 227.983 1576.13 229.427L1541.11 249.642C1539.82 250.364 1538.01 250.725 1536.13 250.581C1537.36 250.436 1538.59 250.147 1539.53 249.57Z" fill="#4908D4"/>
</g>
<path d="M1495.34 194.628H1512.74L1532.09 183.509C1534.55 182.065 1538.95 182.282 1541.84 183.942L1560.46 194.7H1577.79V206.324C1577.86 207.262 1577.29 208.201 1576.13 208.923L1541.12 229.138C1538.66 230.582 1534.26 230.365 1531.37 228.705L1497.72 209.284C1496.21 208.417 1495.41 207.334 1495.34 206.251V194.628Z" fill="url(#paint16_linear_0_1)"/>
<path d="M1576.64 207.118V195.494H1559.31L1540.68 184.737C1537.79 183.076 1533.46 182.932 1530.94 184.303L1511.59 195.494H1495.34V194.7H1512.74L1532.09 183.509C1534.55 182.065 1538.95 182.282 1541.84 183.942L1560.46 194.7H1577.79V206.324C1577.86 207.262 1577.29 208.201 1576.13 208.923L1575.91 209.067C1576.49 208.49 1576.71 207.768 1576.64 207.118Z" fill="#4908D4"/>
<path d="M1541.04 217.442L1576.06 197.227C1578.51 195.783 1578.22 193.256 1575.34 191.595L1541.69 172.174C1538.8 170.514 1534.47 170.369 1531.95 171.741L1496.93 191.956C1494.48 193.4 1494.76 195.927 1497.65 197.588L1531.37 217.081C1534.26 218.742 1538.59 218.886 1541.04 217.442Z" fill="url(#paint17_linear_0_1)"/>
<path d="M1497.07 192.028L1532.09 171.813C1533.39 171.091 1535.19 170.73 1537 170.875C1535.7 170.947 1534.4 171.236 1533.46 171.813L1498.45 192.028C1495.99 193.472 1496.28 195.999 1499.17 197.66L1532.81 217.081C1534.18 217.875 1535.92 218.308 1537.65 218.453C1535.56 218.597 1533.24 218.092 1531.44 217.081L1497.8 197.66C1494.84 195.999 1494.55 193.472 1497.07 192.028Z" fill="#6EB8FC"/>
<path d="M1536.78 212.677C1538.01 212.677 1539.17 212.46 1540.1 211.955L1566.17 196.938C1567.11 196.432 1567.54 195.71 1567.54 194.844C1567.54 193.906 1566.82 192.895 1565.59 192.245L1540.54 177.805C1538.3 176.506 1534.91 176.362 1533.03 177.517L1506.97 192.534C1506.03 193.039 1505.59 193.761 1505.59 194.627C1505.59 195.566 1506.32 196.577 1507.54 197.227L1532.6 211.666C1533.75 212.316 1535.34 212.677 1536.78 212.677ZM1539.74 211.377C1537.94 212.388 1534.83 212.244 1532.81 211.089L1507.76 196.649C1506.75 196.071 1506.17 195.277 1506.17 194.555C1506.17 193.978 1506.53 193.4 1507.25 192.967L1533.32 177.95C1535.05 176.939 1538.23 177.083 1540.25 178.239L1565.3 192.678C1566.31 193.256 1566.89 194.05 1566.89 194.772C1566.89 195.349 1566.53 195.927 1565.81 196.36L1539.74 211.377Z" fill="url(#paint18_linear_0_1)"/>
<path d="M1539.53 217.442L1574.54 197.227C1577 195.783 1576.71 193.256 1573.82 191.595L1540.18 172.174C1538.8 171.38 1537.14 170.947 1535.41 170.802C1537.58 170.658 1539.89 171.091 1541.69 172.174L1575.41 191.668C1578.3 193.328 1578.59 195.855 1576.13 197.299L1541.11 217.514C1539.82 218.236 1538.01 218.597 1536.13 218.453C1537.36 218.308 1538.59 218.02 1539.53 217.442Z" fill="#2551EC"/>
<path d="M1530.36 223.94L1500.76 206.829C1500.47 206.685 1500.25 206.251 1500.25 205.89V204.519C1500.25 204.158 1500.47 204.013 1500.76 204.158L1530.36 221.268C1530.65 221.413 1530.86 221.846 1530.86 222.207V223.579C1530.86 223.94 1530.65 224.156 1530.36 223.94Z" fill="#6DE0F6"/>
<path d="M1501.41 206.468C1501.12 206.324 1500.9 205.89 1500.9 205.529V204.23L1500.76 204.158C1500.47 204.013 1500.25 204.158 1500.25 204.519V205.89C1500.25 206.251 1500.47 206.685 1500.76 206.829L1530.36 223.94C1530.65 224.084 1530.86 223.94 1530.86 223.579V223.507L1501.41 206.468Z" fill="#267FE5"/>
<path d="M1536.49 141.439L1596.14 175.884L1536.63 210.326L1476.92 175.836L1536.49 141.439Z" fill="url(#paint19_linear_0_1)" fill-opacity="0.6"/>
<path d="M1596.15 246.423L1596.15 175.885L1536.63 210.326L1536.58 280.82L1596.15 246.423Z" fill="url(#paint20_linear_0_1)" fill-opacity="0.6"/>
<path d="M1476.93 246.375V175.837L1536.63 210.326L1536.58 280.821L1476.93 246.375Z" fill="url(#paint21_linear_0_1)" fill-opacity="0.6"/>
<g opacity="0.5">
<path d="M1554.97 261.173H1572.36L1591.71 250.055C1594.17 248.611 1598.57 248.828 1601.46 250.488L1620.09 261.246H1637.41V272.869C1637.49 273.808 1636.91 274.746 1635.75 275.468L1600.74 295.684C1598.28 297.128 1593.88 296.911 1590.99 295.251L1557.35 275.829C1555.83 274.963 1555.04 273.88 1554.97 272.797V261.173Z" fill="url(#paint22_linear_0_1)"/>
<path d="M1636.26 273.664V262.04H1618.93L1600.31 251.282C1597.42 249.622 1593.09 249.477 1590.56 250.849L1571.21 262.04H1554.97V261.246H1572.36L1591.71 250.055C1594.17 248.611 1598.57 248.828 1601.46 250.488L1620.09 261.246H1637.41V272.869C1637.49 273.808 1636.91 274.746 1635.75 275.468L1635.54 275.613C1636.12 274.963 1636.33 274.313 1636.26 273.664Z" fill="#4908D4"/>
<path d="M1600.67 283.988L1635.68 263.772C1638.14 262.328 1637.85 259.802 1634.96 258.141L1601.32 238.72C1598.43 237.059 1594.1 236.915 1591.57 238.287L1556.55 258.502C1554.1 259.946 1554.39 262.473 1557.28 264.133L1590.99 283.627C1593.88 285.287 1598.21 285.432 1600.67 283.988Z" fill="url(#paint23_linear_0_1)"/>
<path d="M1556.7 258.574L1591.71 238.359C1593.01 237.637 1594.82 237.276 1596.62 237.42C1595.32 237.492 1594.02 237.781 1593.08 238.359L1558.07 258.574C1555.61 260.018 1555.9 262.545 1558.79 264.206L1592.44 283.627C1593.81 284.421 1595.54 284.854 1597.27 284.999C1595.18 285.143 1592.87 284.638 1591.06 283.627L1557.42 264.206C1554.46 262.545 1554.17 260.018 1556.7 258.574Z" fill="#6EB8FC"/>
<path d="M1596.41 279.223C1597.63 279.223 1598.79 279.006 1599.73 278.501L1625.79 263.484C1626.73 262.978 1627.16 262.256 1627.16 261.39C1627.16 260.451 1626.44 259.441 1625.21 258.791L1600.16 244.351C1597.92 243.052 1594.53 242.907 1592.65 244.062L1566.59 259.08C1565.65 259.585 1565.22 260.307 1565.22 261.173C1565.22 262.112 1565.94 263.123 1567.17 263.772L1592.22 278.212C1593.37 278.862 1594.96 279.223 1596.41 279.223ZM1595.97 243.774C1597.34 243.774 1598.79 244.135 1599.94 244.784L1625 259.224C1626.01 259.802 1626.59 260.596 1626.59 261.318C1626.59 261.895 1626.22 262.473 1625.5 262.906L1599.44 277.923C1597.63 278.934 1594.53 278.789 1592.51 277.634L1567.46 263.195C1566.44 262.617 1565.87 261.823 1565.87 261.101C1565.87 260.523 1566.23 259.946 1566.95 259.513L1593.01 244.496C1593.81 243.99 1594.82 243.774 1595.97 243.774Z" fill="#200689"/>
<path d="M1599.15 283.988L1634.17 263.773C1636.62 262.329 1636.33 259.802 1633.44 258.141L1599.8 238.72C1598.43 237.926 1596.77 237.493 1595.03 237.348C1597.2 237.204 1599.51 237.637 1601.32 238.72L1635.03 258.213C1637.92 259.874 1638.21 262.401 1635.75 263.845L1600.74 284.06C1599.44 284.782 1597.63 285.143 1595.76 284.999C1596.98 284.854 1598.21 284.565 1599.15 283.988Z" fill="#4908D4"/>
</g>
<path d="M1554.97 229.046H1572.36L1591.71 217.927C1594.17 216.483 1598.57 216.7 1601.46 218.36L1620.09 229.118H1637.41V240.742C1637.49 241.68 1636.91 242.619 1635.75 243.341L1600.74 263.556C1598.28 265 1593.88 264.783 1590.99 263.123L1557.35 243.702C1555.83 242.835 1555.04 241.752 1554.97 240.669V229.046Z" fill="url(#paint24_linear_0_1)"/>
<path d="M1636.26 241.536V229.912H1618.93L1600.31 219.154C1597.42 217.494 1593.09 217.35 1590.56 218.721L1571.21 229.912H1554.97V229.118H1572.36L1591.71 217.927C1594.17 216.483 1598.57 216.7 1601.46 218.36L1620.09 229.118H1637.41V240.742C1637.49 241.68 1636.91 242.619 1635.75 243.341L1635.54 243.485C1636.12 242.907 1636.33 242.185 1636.26 241.536Z" fill="#4908D4"/>
<path d="M1600.67 251.86L1635.68 231.645C1638.14 230.201 1637.85 227.674 1634.96 226.013L1601.32 206.592C1598.43 204.932 1594.1 204.787 1591.57 206.159L1556.55 226.374C1554.1 227.818 1554.39 230.345 1557.28 232.006L1590.99 251.499C1593.88 253.159 1598.21 253.304 1600.67 251.86Z" fill="url(#paint25_linear_0_1)"/>
<path d="M1556.7 226.446L1591.71 206.231C1593.01 205.509 1594.82 205.148 1596.62 205.293C1595.32 205.365 1594.02 205.654 1593.08 206.231L1558.07 226.446C1555.61 227.89 1555.9 230.417 1558.79 232.078L1592.44 251.499C1593.81 252.293 1595.54 252.726 1597.27 252.871C1595.18 253.015 1592.87 252.51 1591.06 251.499L1557.42 232.078C1554.46 230.417 1554.17 227.89 1556.7 226.446Z" fill="#6EB8FC"/>
<path d="M1596.41 247.095C1597.63 247.095 1598.79 246.878 1599.73 246.373L1625.79 231.356C1626.73 230.85 1627.16 230.128 1627.16 229.262C1627.16 228.323 1626.44 227.313 1625.21 226.663L1600.16 212.223C1597.92 210.924 1594.53 210.779 1592.65 211.935L1566.59 226.952C1565.65 227.457 1565.22 228.179 1565.22 229.045C1565.22 229.984 1565.94 230.995 1567.17 231.645L1592.22 246.084C1593.37 246.734 1594.96 247.095 1596.41 247.095ZM1599.37 245.795C1597.56 246.806 1594.46 246.662 1592.44 245.507L1567.38 231.067C1566.37 230.489 1565.79 229.695 1565.79 228.973C1565.79 228.396 1566.16 227.818 1566.88 227.385L1592.94 212.368C1594.67 211.357 1597.85 211.501 1599.87 212.657L1624.92 227.096C1625.94 227.674 1626.51 228.468 1626.51 229.19C1626.51 229.767 1626.15 230.345 1625.43 230.778L1599.37 245.795Z" fill="url(#paint26_linear_0_1)"/>
<path d="M1599.15 251.86L1634.17 231.645C1636.62 230.201 1636.33 227.674 1633.44 226.013L1599.8 206.592C1598.43 205.798 1596.77 205.365 1595.03 205.221C1597.2 205.076 1599.51 205.509 1601.32 206.592L1635.03 226.086C1637.92 227.746 1638.21 230.273 1635.75 231.717L1600.74 251.932C1599.44 252.654 1597.63 253.015 1595.76 252.871C1596.98 252.727 1598.21 252.438 1599.15 251.86Z" fill="#2551EC"/>
<path d="M1589.98 258.358L1560.38 241.247C1560.09 241.103 1559.87 240.669 1559.87 240.308V238.937C1559.87 238.576 1560.09 238.431 1560.38 238.576L1589.98 255.687C1590.27 255.831 1590.49 256.264 1590.49 256.625V257.997C1590.49 258.358 1590.27 258.574 1589.98 258.358Z" fill="#6DE0F6"/>
<path d="M1561.03 240.886C1560.74 240.742 1560.52 240.308 1560.52 239.947V238.648L1560.38 238.576C1560.09 238.431 1559.87 238.576 1559.87 238.937V240.308C1559.87 240.669 1560.09 241.103 1560.38 241.247L1589.98 258.358C1590.27 258.502 1590.49 258.358 1590.49 257.997V257.925L1561.03 240.886Z" fill="#267FE5"/>
<path d="M1596.11 175.857L1655.77 210.302L1596.26 244.744L1536.55 210.254L1596.11 175.857Z" fill="url(#paint27_linear_0_1)" fill-opacity="0.6"/>
<path d="M1655.77 280.841L1655.77 210.302L1596.26 244.744L1596.2 315.238L1655.77 280.841Z" fill="url(#paint28_linear_0_1)" fill-opacity="0.6"/>
<path d="M1536.55 280.793V210.254L1596.26 244.744L1596.2 315.238L1536.55 280.793Z" fill="url(#paint29_linear_0_1)" fill-opacity="0.6"/>
<g filter="url(#filter2_f_0_1)">
<path d="M258.229 222.331L14 384.29L114.675 451.229L359 289.184L258.229 222.331Z" fill="#444ADB" fill-opacity="0.1"/>
</g>
<path d="M243.043 227.377L50.7969 354.864L130.044 407.555L322.366 280L243.043 227.377Z" fill="#444ADB" fill-opacity="0.1"/>
<path d="M246.124 187.021L43.1108 321.648L126.796 377.29L329.89 242.592L246.124 187.021Z" fill="url(#paint30_linear_0_1)" fill-opacity="0.6"/>
<path d="M43.1104 321.645V312.815L126.795 368.457L126.797 377.29L43.1104 321.645Z" fill="url(#paint31_linear_0_1)" fill-opacity="0.6"/>
<path d="M43.1104 321.645V312.815L126.795 368.457L126.797 377.29L43.1104 321.645Z" fill="url(#paint32_linear_0_1)" fill-opacity="0.6"/>
<path d="M246.077 178.228L43.1108 312.815L126.796 368.457L329.843 233.799L246.077 178.228Z" fill="url(#paint33_linear_0_1)" fill-opacity="0.6"/>
<g filter="url(#filter3_f_0_1)">
<path d="M186.684 238.381L246.281 198.858L305.792 238.326L246.138 277.9L186.617 317.335L126.964 356.909L67.5093 317.39L127.106 277.866L186.684 238.381Z" fill="#2A48DA" fill-opacity="0.2"/>
</g>
<path d="M246.171 186.989V178.159L329.856 233.801L329.858 242.634L246.171 186.989Z" fill="#444ADB" fill-opacity="0.6"/>
<g opacity="0.5">
<path d="M287.389 204.894H270.006L250.675 192.137C248.223 190.48 243.823 190.728 240.938 192.634L222.329 204.977H205.018V218.315C204.946 219.392 205.523 220.468 206.677 221.297L241.659 244.492C244.112 246.149 248.512 245.901 251.397 243.995L285.009 221.711C286.524 220.717 287.317 219.474 287.389 218.232V204.894Z" fill="url(#paint34_linear_0_1)"/>
<path d="M206.172 219.226V205.888H223.483L242.092 193.545C244.977 191.64 249.305 191.474 251.83 193.048L271.16 205.888H287.389V204.977H270.006L250.675 192.137C248.223 190.48 243.823 190.728 240.938 192.634L222.329 204.977H205.018V218.315C204.946 219.392 205.523 220.468 206.677 221.297L206.893 221.463C206.316 220.717 206.1 219.971 206.172 219.226Z" fill="#4908D4"/>
<path d="M241.73 231.072L206.748 207.877C204.295 206.22 204.584 203.32 207.469 201.415L241.081 179.131C243.966 177.225 248.294 177.06 250.819 178.633L285.801 201.829C288.254 203.486 287.965 206.385 285.08 208.291L251.396 230.658C248.51 232.563 244.183 232.729 241.73 231.072Z" fill="url(#paint35_linear_0_1)"/>
<path d="M285.659 201.911L250.676 178.716C249.378 177.887 247.575 177.473 245.772 177.639C247.07 177.722 248.368 178.053 249.306 178.716L284.289 201.911C286.741 203.568 286.453 206.468 283.567 208.373L249.955 230.657C248.585 231.569 246.854 232.066 245.123 232.231C247.214 232.397 249.522 231.817 251.326 230.657L284.938 208.373C287.895 206.468 288.184 203.568 285.659 201.911Z" fill="#6EB8FC"/>
<path d="M245.987 225.605C244.761 225.605 243.607 225.356 242.669 224.776L216.631 207.545C215.693 206.965 215.26 206.137 215.26 205.143C215.26 204.066 215.982 202.906 217.208 202.16L242.237 185.592C244.473 184.101 247.863 183.935 249.738 185.261L275.777 202.492C276.714 203.072 277.147 203.9 277.147 204.894C277.147 205.971 276.426 207.131 275.2 207.877L250.171 224.445C249.017 225.19 247.43 225.605 245.987 225.605ZM246.42 184.929C245.05 184.929 243.607 185.344 242.453 186.089L217.424 202.658C216.414 203.32 215.837 204.232 215.837 205.06C215.837 205.723 216.198 206.385 216.919 206.882L242.958 224.113C244.761 225.273 247.863 225.108 249.882 223.782L274.911 207.214C275.921 206.551 276.498 205.64 276.498 204.811C276.498 204.149 276.137 203.486 275.416 202.989L249.377 185.758C248.584 185.178 247.574 184.929 246.42 184.929Z" fill="#200689"/>
<path d="M243.246 231.072L208.264 207.877C205.811 206.22 206.1 203.32 208.985 201.415L242.597 179.131C243.968 178.219 245.627 177.722 247.358 177.557C245.194 177.391 242.886 177.888 241.082 179.131L207.398 201.498C204.513 203.403 204.225 206.303 206.677 207.959L241.66 231.155C242.958 231.983 244.761 232.398 246.636 232.232C245.41 232.066 244.184 231.735 243.246 231.072Z" fill="#4908D4"/>
</g>
<path d="M287.389 168.03H270.006L250.675 155.272C248.223 153.615 243.823 153.864 240.938 155.769L222.329 168.113H205.018V181.45C204.946 182.527 205.523 183.604 206.677 184.432L241.659 207.628C244.112 209.285 248.512 209.036 251.397 207.131L285.009 184.847C286.524 183.852 287.317 182.61 287.389 181.367V168.03Z" fill="url(#paint36_linear_0_1)"/>
<path d="M206.172 182.361V169.024H223.483L242.092 156.68C244.977 154.775 249.305 154.609 251.83 156.183L271.16 169.024H287.389V168.113H270.006L250.675 155.272C248.223 153.615 243.823 153.864 240.938 155.769L222.329 168.113H205.018V181.45C204.946 182.527 205.523 183.604 206.677 184.432L206.893 184.598C206.316 183.935 206.1 183.107 206.172 182.361Z" fill="#4908D4"/>
<path d="M241.73 194.208L206.748 171.012C204.295 169.355 204.584 166.456 207.469 164.55L241.081 142.266C243.966 140.361 248.294 140.195 250.819 141.769L285.801 164.965C288.254 166.621 287.965 169.521 285.08 171.426L251.396 193.793C248.51 195.699 244.183 195.864 241.73 194.208Z" fill="url(#paint37_linear_0_1)"/>
<path d="M285.659 165.048L250.676 141.852C249.378 141.024 247.575 140.609 245.772 140.775C247.07 140.858 248.368 141.189 249.306 141.852L284.289 165.048C286.741 166.704 286.453 169.604 283.567 171.509L249.955 193.794C248.585 194.705 246.854 195.202 245.123 195.368C247.214 195.533 249.522 194.953 251.326 193.794L284.938 171.509C287.895 169.604 288.184 166.704 285.659 165.048Z" fill="#6EB8FC"/>
<path d="M245.987 188.741C244.761 188.741 243.607 188.492 242.669 187.912L216.631 170.681C215.693 170.101 215.26 169.273 215.26 168.279C215.26 167.202 215.982 166.042 217.208 165.297L242.237 148.728C244.473 147.237 247.863 147.071 249.738 148.397L275.777 165.628C276.714 166.208 277.147 167.036 277.147 168.03C277.147 169.107 276.426 170.267 275.2 171.013L250.171 187.581C249.017 188.327 247.43 188.741 245.987 188.741ZM243.03 187.25C244.833 188.409 247.935 188.244 249.954 186.918L274.983 170.35C275.993 169.687 276.57 168.776 276.57 167.948C276.57 167.285 276.209 166.622 275.488 166.125L249.449 148.894C247.718 147.734 244.545 147.9 242.525 149.225L217.496 165.794C216.486 166.456 215.909 167.368 215.909 168.196C215.909 168.859 216.27 169.521 216.991 170.019L243.03 187.25Z" fill="url(#paint38_linear_0_1)"/>
<path d="M243.246 194.208L208.264 171.012C205.811 169.355 206.1 166.456 208.985 164.55L242.597 142.266C243.968 141.355 245.627 140.858 247.358 140.692C245.194 140.526 242.886 141.023 241.082 142.266L207.398 164.633C204.513 166.539 204.225 169.438 206.677 171.095L241.66 194.29C242.958 195.119 244.761 195.533 246.636 195.367C245.41 195.202 244.184 194.87 243.246 194.208Z" fill="#2551EC"/>
<path d="M252.407 201.664L281.98 182.03C282.268 181.865 282.485 181.367 282.485 180.953V179.379C282.485 178.965 282.268 178.799 281.98 178.965L252.407 198.599C252.118 198.764 251.902 199.261 251.902 199.675V201.249C251.902 201.664 252.118 201.912 252.407 201.664Z" fill="#6DE0F6"/>
<path d="M281.331 181.616C281.619 181.45 281.835 180.953 281.835 180.539V179.048L281.98 178.965C282.268 178.799 282.485 178.965 282.485 179.379V180.953C282.485 181.367 282.268 181.865 281.98 182.03L252.407 201.664C252.118 201.829 251.902 201.664 251.902 201.249V201.167L281.331 181.616Z" fill="#267FE5"/>
<path d="M246.28 107L186.684 146.523L246.138 186.042L305.792 146.468L246.28 107Z" fill="url(#paint39_linear_0_1)" fill-opacity="0.6"/>
<path d="M186.685 227.461L186.685 146.523L246.139 186.042L246.196 266.929L186.685 227.461Z" fill="url(#paint40_linear_0_1)" fill-opacity="0.6"/>
<path d="M305.823 227.326V146.388L246.172 185.962L246.229 266.849L305.823 227.326Z" fill="url(#paint41_linear_0_1)" fill-opacity="0.6"/>
<g opacity="0.5">
<path d="M227.782 244.411H210.399L191.069 231.653C188.616 229.996 184.216 230.245 181.331 232.15L162.722 244.494H145.411V257.831C145.339 258.908 145.916 259.985 147.07 260.813L182.052 284.009C184.505 285.666 188.905 285.417 191.79 283.512L225.402 261.228C226.917 260.233 227.71 258.991 227.782 257.748V244.411Z" fill="url(#paint42_linear_0_1)"/>
<path d="M146.565 258.742V245.405H163.876L182.485 233.061C185.37 231.156 189.698 230.99 192.223 232.564L211.553 245.405H227.782V244.494H210.399L191.069 231.653C188.616 229.996 184.216 230.245 181.331 232.15L162.722 244.494H145.411V257.831C145.339 258.908 145.916 259.985 147.07 260.813L147.286 260.979C146.709 260.233 146.493 259.488 146.565 258.742Z" fill="#4908D4"/>
<path d="M182.125 270.589L147.143 247.393C144.69 245.736 144.979 242.837 147.864 240.931L181.476 218.647C184.361 216.742 188.689 216.576 191.214 218.15L226.196 241.346C228.649 243.002 228.36 245.902 225.475 247.807L191.791 270.174C188.905 272.08 184.578 272.245 182.125 270.589Z" fill="url(#paint43_linear_0_1)"/>
<path d="M226.052 241.428L191.07 218.232C189.771 217.404 187.968 216.99 186.165 217.155C187.463 217.238 188.761 217.57 189.699 218.232L224.682 241.428C227.134 243.085 226.846 245.984 223.96 247.89L190.348 270.174C188.978 271.085 187.247 271.582 185.516 271.748C187.607 271.914 189.915 271.334 191.719 270.174L225.331 247.89C228.288 245.984 228.577 243.085 226.052 241.428Z" fill="#6EB8FC"/>
<path d="M186.38 265.121C185.154 265.121 184 264.873 183.062 264.293L157.024 247.062C156.086 246.482 155.653 245.653 155.653 244.659C155.653 243.582 156.375 242.423 157.601 241.677L182.63 225.109C184.866 223.618 188.256 223.452 190.131 224.777L216.17 242.008C217.107 242.588 217.54 243.417 217.54 244.411C217.54 245.488 216.819 246.647 215.593 247.393L190.564 263.961C189.41 264.707 187.823 265.121 186.38 265.121ZM186.813 224.446C185.443 224.446 184 224.86 182.846 225.606L157.817 242.174C156.807 242.837 156.23 243.748 156.23 244.576C156.23 245.239 156.591 245.902 157.312 246.399L183.351 263.63C185.154 264.79 188.256 264.624 190.275 263.299L215.304 246.73C216.314 246.068 216.891 245.156 216.891 244.328C216.891 243.665 216.53 243.002 215.809 242.505L189.77 225.274C188.977 224.694 187.967 224.446 186.813 224.446Z" fill="#200689"/>
<path d="M183.64 270.589L148.657 247.393C146.205 245.736 146.493 242.837 149.379 240.931L182.991 218.647C184.361 217.736 186.02 217.239 187.751 217.073C185.587 216.907 183.279 217.404 181.476 218.647L147.792 241.014C144.907 242.92 144.618 245.819 147.07 247.476L182.053 270.671C183.351 271.5 185.155 271.914 187.03 271.748C185.804 271.583 184.578 271.251 183.64 270.589Z" fill="#4908D4"/>
</g>
<path d="M227.782 207.546H210.399L191.069 194.789C188.616 193.132 184.216 193.38 181.331 195.286L162.722 207.629H145.411V220.966C145.339 222.043 145.916 223.12 147.07 223.949L182.052 247.144C184.505 248.801 188.905 248.553 191.79 246.647L225.402 224.363C226.917 223.369 227.71 222.126 227.782 220.884V207.546Z" fill="url(#paint44_linear_0_1)"/>
<path d="M146.565 221.878V208.54H163.876L182.485 196.197C185.37 194.291 189.698 194.126 192.223 195.7L211.553 208.54H227.782V207.629H210.399L191.069 194.789C188.616 193.132 184.216 193.38 181.331 195.286L162.722 207.629H145.411V220.966C145.339 222.043 145.916 223.12 147.07 223.949L147.286 224.114C146.709 223.452 146.493 222.623 146.565 221.878Z" fill="#4908D4"/>
<path d="M182.125 233.724L147.143 210.528C144.69 208.872 144.979 205.972 147.864 204.067L181.476 181.782C184.361 179.877 188.689 179.711 191.214 181.285L226.196 204.481C228.649 206.138 228.36 209.037 225.475 210.943L191.791 233.31C188.905 235.215 184.578 235.381 182.125 233.724Z" fill="url(#paint45_linear_0_1)"/>
<path d="M226.052 204.563L191.07 181.368C189.771 180.539 187.968 180.125 186.165 180.291C187.463 180.374 188.761 180.705 189.699 181.368L224.682 204.563C227.134 206.22 226.846 209.12 223.96 211.025L190.348 233.309C188.978 234.221 187.247 234.718 185.516 234.883C187.607 235.049 189.915 234.469 191.719 233.309L225.331 211.025C228.288 209.12 228.577 206.22 226.052 204.563Z" fill="#6EB8FC"/>
<path d="M186.38 228.256C185.154 228.256 184 228.008 183.062 227.428L157.024 210.197C156.086 209.617 155.653 208.789 155.653 207.795C155.653 206.718 156.375 205.558 157.601 204.812L182.63 188.244C184.866 186.753 188.256 186.587 190.131 187.913L216.17 205.144C217.107 205.724 217.54 206.552 217.54 207.546C217.54 208.623 216.819 209.783 215.593 210.528L190.564 227.097C189.41 227.842 187.823 228.256 186.38 228.256ZM183.423 226.765C185.226 227.925 188.328 227.759 190.347 226.434L215.376 209.866C216.386 209.203 216.963 208.292 216.963 207.463C216.963 206.801 216.602 206.138 215.881 205.641L189.843 188.41C188.111 187.25 184.938 187.416 182.918 188.741L157.889 205.309C156.88 205.972 156.302 206.883 156.302 207.712C156.302 208.375 156.663 209.037 157.384 209.534L183.423 226.765Z" fill="url(#paint46_linear_0_1)"/>
<path d="M183.64 233.724L148.657 210.528C146.205 208.872 146.493 205.972 149.379 204.067L182.991 181.782C184.361 180.871 186.02 180.374 187.751 180.208C185.587 180.043 183.279 180.54 181.476 181.782L147.792 204.15C144.907 206.055 144.618 208.954 147.07 210.611L182.053 233.807C183.351 234.635 185.155 235.049 187.03 234.884C185.804 234.718 184.578 234.387 183.64 233.724Z" fill="#2551EC"/>
<path d="M192.8 241.18L222.373 221.546C222.662 221.38 222.878 220.883 222.878 220.469V218.895C222.878 218.481 222.662 218.315 222.373 218.481L192.8 238.114C192.512 238.28 192.295 238.777 192.295 239.191V240.765C192.295 241.18 192.512 241.428 192.8 241.18Z" fill="#6DE0F6"/>
<path d="M221.724 221.132C222.013 220.966 222.229 220.469 222.229 220.055V218.564L222.373 218.481C222.662 218.315 222.878 218.481 222.878 218.895V220.469C222.878 220.883 222.662 221.38 222.373 221.546L192.8 241.18C192.512 241.345 192.295 241.18 192.295 240.765V240.682L221.724 221.132Z" fill="#267FE5"/>
<path d="M186.672 146.516L127.076 186.039L186.53 225.559L246.183 185.985L186.672 146.516Z" fill="url(#paint47_linear_0_1)" fill-opacity="0.6"/>
<path d="M127.075 266.978L127.075 186.04L186.529 225.559L186.586 306.447L127.075 266.978Z" fill="url(#paint48_linear_0_1)" fill-opacity="0.6"/>
<path d="M246.18 266.923V185.985L186.529 225.559L186.586 306.446L246.18 266.923Z" fill="url(#paint49_linear_0_1)" fill-opacity="0.6"/>
<g opacity="0.5">
<path d="M168.215 283.902H150.832L131.502 271.145C129.049 269.488 124.649 269.736 121.764 271.642L103.155 283.985H85.8439V297.323C85.7718 298.399 86.3488 299.476 87.5029 300.305L122.486 323.5C124.938 325.157 129.338 324.909 132.223 323.003L165.835 300.719C167.35 299.725 168.143 298.482 168.215 297.24V283.902Z" fill="url(#paint50_linear_0_1)"/>
<path d="M86.998 298.234V284.896H104.309L122.918 272.553C125.803 270.648 130.131 270.482 132.656 272.056L151.986 284.896H168.215V283.985H150.832L131.502 271.145C129.049 269.488 124.649 269.736 121.764 271.642L103.155 283.985H85.8439V297.323C85.7718 298.399 86.3488 299.476 87.5029 300.305L87.7193 300.471C87.1422 299.725 86.9259 298.979 86.998 298.234Z" fill="#4908D4"/>
<path d="M122.558 310.081L87.5753 286.885C85.1229 285.228 85.4115 282.329 88.2966 280.423L121.909 258.139C124.794 256.234 129.122 256.068 131.646 257.642L166.629 280.838C169.081 282.494 168.793 285.394 165.908 287.299L132.223 309.666C129.338 311.572 125.01 311.737 122.558 310.081Z" fill="url(#paint51_linear_0_1)"/>
<path d="M166.485 280.92L131.502 257.724C130.204 256.896 128.401 256.482 126.597 256.647C127.896 256.73 129.194 257.062 130.132 257.724L165.114 280.92C167.567 282.577 167.278 285.476 164.393 287.382L130.781 309.666C129.41 310.577 127.679 311.074 125.948 311.24C128.04 311.406 130.348 310.826 132.151 309.666L165.764 287.382C168.721 285.476 169.009 282.577 166.485 280.92Z" fill="#6EB8FC"/>
<path d="M126.813 304.612C125.587 304.612 124.433 304.364 123.495 303.784L97.4569 286.553C96.5192 285.973 96.0864 285.145 96.0864 284.151C96.0864 283.074 96.8077 281.914 98.0339 281.168L123.063 264.6C125.299 263.109 128.689 262.943 130.564 264.269L156.603 281.5C157.54 282.08 157.973 282.908 157.973 283.902C157.973 284.979 157.252 286.139 156.026 286.884L130.997 303.453C129.843 304.198 128.256 304.612 126.813 304.612ZM127.246 263.937C125.876 263.937 124.433 264.351 123.279 265.097L98.2503 281.665C97.2405 282.328 96.6635 283.239 96.6635 284.068C96.6635 284.73 97.0241 285.393 97.7454 285.89L123.784 303.121C125.587 304.281 128.689 304.115 130.708 302.79L155.737 286.222C156.747 285.559 157.324 284.648 157.324 283.819C157.324 283.156 156.963 282.494 156.242 281.997L130.204 264.766C129.41 264.186 128.4 263.937 127.246 263.937Z" fill="#200689"/>
<path d="M124.073 310.081L89.0904 286.885C86.638 285.228 86.9265 282.329 89.8117 280.423L123.424 258.139C124.794 257.228 126.453 256.731 128.184 256.565C126.021 256.399 123.712 256.896 121.909 258.139L88.2249 280.506C85.3397 282.412 85.0512 285.311 87.5036 286.968L122.486 310.163C123.785 310.992 125.588 311.406 127.463 311.24C126.237 311.075 125.011 310.743 124.073 310.081Z" fill="#4908D4"/>
</g>
<path d="M168.215 247.038H150.832L131.502 234.281C129.049 232.624 124.649 232.872 121.764 234.778L103.155 247.121H85.8439V260.459C85.7718 261.536 86.3488 262.613 87.5029 263.441L122.486 286.637C124.938 288.293 129.338 288.045 132.223 286.139L165.835 263.855C167.35 262.861 168.143 261.618 168.215 260.376V247.038Z" fill="url(#paint52_linear_0_1)"/>
<path d="M86.998 261.37V248.032H104.309L122.918 235.689C125.803 233.784 130.131 233.618 132.656 235.192L151.986 248.032H168.215V247.121H150.832L131.502 234.281C129.049 232.624 124.649 232.872 121.764 234.778L103.155 247.121H85.8439V260.459C85.7718 261.536 86.3488 262.613 87.5029 263.441L87.7193 263.607C87.1422 262.944 86.9259 262.115 86.998 261.37Z" fill="#4908D4"/>
<path d="M122.558 273.216L87.5753 250.02C85.1229 248.363 85.4115 245.464 88.2966 243.558L121.909 221.274C124.794 219.369 129.122 219.203 131.646 220.777L166.629 243.973C169.081 245.629 168.793 248.529 165.908 250.434L132.223 272.801C129.338 274.707 125.01 274.872 122.558 273.216Z" fill="url(#paint53_linear_0_1)"/>
<path d="M166.485 244.056L131.502 220.86C130.204 220.031 128.401 219.617 126.597 219.783C127.896 219.866 129.194 220.197 130.132 220.86L165.114 244.056C167.567 245.712 167.278 248.612 164.393 250.517L130.781 272.801C129.41 273.713 127.679 274.21 125.948 274.375C128.04 274.541 130.348 273.961 132.151 272.801L165.764 250.517C168.721 248.612 169.009 245.712 166.485 244.056Z" fill="#6EB8FC"/>
<path d="M126.813 267.749C125.587 267.749 124.433 267.5 123.495 266.92L97.4569 249.689C96.5192 249.109 96.0864 248.281 96.0864 247.287C96.0864 246.21 96.8077 245.05 98.0339 244.304L123.063 227.736C125.299 226.245 128.689 226.079 130.564 227.405L156.603 244.636C157.54 245.216 157.973 246.044 157.973 247.038C157.973 248.115 157.252 249.275 156.026 250.02L130.997 266.589C129.843 267.334 128.256 267.749 126.813 267.749ZM123.856 266.257C125.659 267.417 128.761 267.251 130.781 265.926L155.809 249.358C156.819 248.695 157.396 247.784 157.396 246.955C157.396 246.293 157.036 245.63 156.314 245.133L130.276 227.902C128.545 226.742 125.371 226.908 123.351 228.233L98.3224 244.801C97.3126 245.464 96.7356 246.375 96.7356 247.204C96.7356 247.867 97.0962 248.529 97.8175 249.026L123.856 266.257Z" fill="url(#paint54_linear_0_1)"/>
<path d="M124.073 273.216L89.0899 250.021C86.6375 248.364 86.926 245.464 89.8112 243.559L123.423 221.275C124.794 220.363 126.453 219.866 128.184 219.701C126.02 219.535 123.712 220.032 121.909 221.275L88.2244 243.642C85.3392 245.547 85.0507 248.447 87.5031 250.103L122.486 273.299C123.784 274.127 125.587 274.542 127.463 274.376C126.236 274.21 125.01 273.879 124.073 273.216Z" fill="#2551EC"/>
<path d="M133.233 280.672L162.806 261.038C163.094 260.872 163.311 260.375 163.311 259.961V258.387C163.311 257.973 163.094 257.807 162.806 257.973L133.233 277.606C132.944 277.772 132.728 278.269 132.728 278.683V280.257C132.728 280.672 132.944 280.92 133.233 280.672Z" fill="#6DE0F6"/>
<path d="M162.157 260.624C162.445 260.458 162.662 259.961 162.662 259.547V258.056L162.806 257.973C163.094 257.807 163.311 257.973 163.311 258.387V259.961C163.311 260.375 163.094 260.872 162.806 261.038L133.233 280.672C132.944 280.837 132.728 280.672 132.728 280.257V280.175L162.157 260.624Z" fill="#267FE5"/>
<path d="M127.106 186.008L67.5093 225.532L126.964 265.051L186.617 225.477L127.106 186.008Z" fill="url(#paint55_linear_0_1)" fill-opacity="0.6"/>
<path d="M67.509 306.469L67.5088 225.532L126.963 265.051L127.02 345.938L67.509 306.469Z" fill="url(#paint56_linear_0_1)" fill-opacity="0.6"/>
<path d="M186.614 306.415V225.477L126.963 265.051L127.02 345.938L186.614 306.415Z" fill="url(#paint57_linear_0_1)" fill-opacity="0.6"/>
<g filter="url(#filter4_f_0_1)">
<ellipse cx="2.99905" cy="2.99905" rx="2.99905" ry="2.99905" transform="matrix(-1 0 0 1 1446 318.001)" fill="#75C0F7"/>
</g>
<g filter="url(#filter5_f_0_1)">
<ellipse cx="2.99905" cy="2.99905" rx="2.99905" ry="2.99905" transform="matrix(-1 0 0 1 1446 318.001)" fill="#75C0F7"/>
</g>
<g filter="url(#filter6_f_0_1)">
<ellipse cx="3" cy="3" rx="3" ry="3" transform="matrix(-1 0 0 1 1446 318)" fill="#75C0F7"/>
</g>
<g filter="url(#filter7_f_0_1)">
<ellipse cx="3" cy="3" rx="3" ry="3" transform="matrix(-1 0 0 1 1446 318)" fill="#75C0F7"/>
</g>
<g filter="url(#filter8_f_0_1)">
<ellipse cx="3" cy="3" rx="3" ry="3" transform="matrix(-1 0 0 1 1446 318.705)" fill="#75C0F7"/>
</g>
<g filter="url(#filter9_f_0_1)">
<ellipse cx="3" cy="3" rx="3" ry="3" transform="matrix(-1 0 0 1 1446 318.705)" fill="#75C0F7"/>
</g>
<g filter="url(#filter10_f_0_1)">
<ellipse cx="2.99905" cy="2.99905" rx="2.99905" ry="2.99905" transform="matrix(-1 0 0 1 95.0005 86.001)" fill="#75C0F7"/>
</g>
<g filter="url(#filter11_f_0_1)">
<ellipse cx="2.99905" cy="2.99905" rx="2.99905" ry="2.99905" transform="matrix(-1 0 0 1 94.9985 86.001)" fill="#75C0F7"/>
</g>
<g filter="url(#filter12_f_0_1)">
<ellipse cx="3" cy="3" rx="3" ry="3" transform="matrix(-1 0 0 1 95.0005 86)" fill="#75C0F7"/>
</g>
<g filter="url(#filter13_f_0_1)">
<ellipse cx="3" cy="3" rx="3" ry="3" transform="matrix(-1 0 0 1 95.0005 86)" fill="#75C0F7"/>
</g>
<g filter="url(#filter14_f_0_1)">
<ellipse cx="3" cy="3" rx="3" ry="3" transform="matrix(-1 0 0 1 95.0005 86.7051)" fill="#75C0F7"/>
</g>
<g filter="url(#filter15_f_0_1)">
<ellipse cx="3" cy="3" rx="3" ry="3" transform="matrix(-1 0 0 1 95.0005 86.7053)" fill="#75C0F7"/>
</g>
<defs>
<filter id="filter0_f_0_1" x="1350" y="193.512" width="373.328" height="227.488" filterUnits="userSpaceOnUse" color-interpolation-filters="sRGB">
<feFlood flood-opacity="0" result="BackgroundImageFix"/>
<feBlend mode="normal" in="SourceGraphic" in2="BackgroundImageFix" result="shape"/>
<feGaussianBlur stdDeviation="7" result="effect1_foregroundBlur_0_1"/>
</filter>
<filter id="filter1_f_0_1" x="1413.26" y="183.056" width="246.509" height="145.744" filterUnits="userSpaceOnUse" color-interpolation-filters="sRGB">
<feFlood flood-opacity="0" result="BackgroundImageFix"/>
<feBlend mode="normal" in="SourceGraphic" in2="BackgroundImageFix" result="shape"/>
<feGaussianBlur stdDeviation="2" result="effect1_foregroundBlur_0_1"/>
</filter>
<filter id="filter2_f_0_1" x="0" y="208.331" width="373" height="256.898" filterUnits="userSpaceOnUse" color-interpolation-filters="sRGB">
<feFlood flood-opacity="0" result="BackgroundImageFix"/>
<feBlend mode="normal" in="SourceGraphic" in2="BackgroundImageFix" result="shape"/>
<feGaussianBlur stdDeviation="7" result="effect1_foregroundBlur_0_1"/>
</filter>
<filter id="filter3_f_0_1" x="63.5093" y="194.858" width="246.283" height="166.051" filterUnits="userSpaceOnUse" color-interpolation-filters="sRGB">
<feFlood flood-opacity="0" result="BackgroundImageFix"/>
<feBlend mode="normal" in="SourceGraphic" in2="BackgroundImageFix" result="shape"/>
<feGaussianBlur stdDeviation="2" result="effect1_foregroundBlur_0_1"/>
</filter>
<filter id="filter4_f_0_1" x="1436" y="314.001" width="13.998" height="13.998" filterUnits="userSpaceOnUse" color-interpolation-filters="sRGB">
<feFlood flood-opacity="0" result="BackgroundImageFix"/>
<feBlend mode="normal" in="SourceGraphic" in2="BackgroundImageFix" result="shape"/>
<feGaussianBlur stdDeviation="2" result="effect1_foregroundBlur_0_1"/>
</filter>
<filter id="filter5_f_0_1" x="1439" y="317.001" width="7.99805" height="7.99805" filterUnits="userSpaceOnUse" color-interpolation-filters="sRGB">
<feFlood flood-opacity="0" result="BackgroundImageFix"/>
<feBlend mode="normal" in="SourceGraphic" in2="BackgroundImageFix" result="shape"/>
<feGaussianBlur stdDeviation="0.5" result="effect1_foregroundBlur_0_1"/>
</filter>
<filter id="filter6_f_0_1" x="1436" y="314" width="14" height="14" filterUnits="userSpaceOnUse" color-interpolation-filters="sRGB">
<feFlood flood-opacity="0" result="BackgroundImageFix"/>
<feBlend mode="normal" in="SourceGraphic" in2="BackgroundImageFix" result="shape"/>
<feGaussianBlur stdDeviation="2" result="effect1_foregroundBlur_0_1"/>
</filter>
<filter id="filter7_f_0_1" x="1439" y="317" width="8" height="8" filterUnits="userSpaceOnUse" color-interpolation-filters="sRGB">
<feFlood flood-opacity="0" result="BackgroundImageFix"/>
<feBlend mode="normal" in="SourceGraphic" in2="BackgroundImageFix" result="shape"/>
<feGaussianBlur stdDeviation="0.5" result="effect1_foregroundBlur_0_1"/>
</filter>
<filter id="filter8_f_0_1" x="1436" y="314.705" width="14" height="14" filterUnits="userSpaceOnUse" color-interpolation-filters="sRGB">
<feFlood flood-opacity="0" result="BackgroundImageFix"/>
<feBlend mode="normal" in="SourceGraphic" in2="BackgroundImageFix" result="shape"/>
<feGaussianBlur stdDeviation="2" result="effect1_foregroundBlur_0_1"/>
</filter>
<filter id="filter9_f_0_1" x="1439" y="317.705" width="8" height="8" filterUnits="userSpaceOnUse" color-interpolation-filters="sRGB">
<feFlood flood-opacity="0" result="BackgroundImageFix"/>
<feBlend mode="normal" in="SourceGraphic" in2="BackgroundImageFix" result="shape"/>
<feGaussianBlur stdDeviation="0.5" result="effect1_foregroundBlur_0_1"/>
</filter>
<filter id="filter10_f_0_1" x="85.0024" y="82.001" width="13.998" height="13.998" filterUnits="userSpaceOnUse" color-interpolation-filters="sRGB">
<feFlood flood-opacity="0" result="BackgroundImageFix"/>
<feBlend mode="normal" in="SourceGraphic" in2="BackgroundImageFix" result="shape"/>
<feGaussianBlur stdDeviation="2" result="effect1_foregroundBlur_0_1"/>
</filter>
<filter id="filter11_f_0_1" x="88.0005" y="85.001" width="7.99805" height="7.99805" filterUnits="userSpaceOnUse" color-interpolation-filters="sRGB">
<feFlood flood-opacity="0" result="BackgroundImageFix"/>
<feBlend mode="normal" in="SourceGraphic" in2="BackgroundImageFix" result="shape"/>
<feGaussianBlur stdDeviation="0.5" result="effect1_foregroundBlur_0_1"/>
</filter>
<filter id="filter12_f_0_1" x="85.0005" y="82" width="14" height="14" filterUnits="userSpaceOnUse" color-interpolation-filters="sRGB">
<feFlood flood-opacity="0" result="BackgroundImageFix"/>
<feBlend mode="normal" in="SourceGraphic" in2="BackgroundImageFix" result="shape"/>
<feGaussianBlur stdDeviation="2" result="effect1_foregroundBlur_0_1"/>
</filter>
<filter id="filter13_f_0_1" x="88.0005" y="85" width="8" height="8" filterUnits="userSpaceOnUse" color-interpolation-filters="sRGB">
<feFlood flood-opacity="0" result="BackgroundImageFix"/>
<feBlend mode="normal" in="SourceGraphic" in2="BackgroundImageFix" result="shape"/>
<feGaussianBlur stdDeviation="0.5" result="effect1_foregroundBlur_0_1"/>
</filter>
<filter id="filter14_f_0_1" x="85.0005" y="82.7051" width="14" height="14" filterUnits="userSpaceOnUse" color-interpolation-filters="sRGB">
<feFlood flood-opacity="0" result="BackgroundImageFix"/>
<feBlend mode="normal" in="SourceGraphic" in2="BackgroundImageFix" result="shape"/>
<feGaussianBlur stdDeviation="2" result="effect1_foregroundBlur_0_1"/>
</filter>
<filter id="filter15_f_0_1" x="88.0005" y="85.7053" width="8" height="8" filterUnits="userSpaceOnUse" color-interpolation-filters="sRGB">
<feFlood flood-opacity="0" result="BackgroundImageFix"/>
<feBlend mode="normal" in="SourceGraphic" in2="BackgroundImageFix" result="shape"/>
<feGaussianBlur stdDeviation="0.5" result="effect1_foregroundBlur_0_1"/>
</filter>
<linearGradient id="paint0_linear_0_1" x1="1601" y1="148.5" x2="962" y2="354" gradientUnits="userSpaceOnUse">
<stop stop-color="#1BA4E5"/>
<stop offset="1" stop-color="#1BA4E5" stop-opacity="0"/>
</linearGradient>
<linearGradient id="paint1_linear_0_1" x1="223" y1="208.5" x2="768.5" y2="354" gradientUnits="userSpaceOnUse">
<stop stop-color="#1BA4E5"/>
<stop offset="1" stop-color="#1BA4E5" stop-opacity="0"/>
</linearGradient>
<linearGradient id="paint2_linear_0_1" x1="1536.66" y1="176.739" x2="1536.66" y2="342.562" gradientUnits="userSpaceOnUse">
<stop stop-color="#444ADB"/>
<stop offset="1" stop-color="#444ADB" stop-opacity="0.2"/>
</linearGradient>
<linearGradient id="paint3_linear_0_1" x1="1638.31" y1="286.371" x2="1638.31" y2="342.561" gradientUnits="userSpaceOnUse">
<stop stop-color="#444ADB"/>
<stop offset="1" stop-color="#444ADB" stop-opacity="0.2"/>
</linearGradient>
<linearGradient id="paint4_linear_0_1" x1="1638.31" y1="286.371" x2="1638.31" y2="342.561" gradientUnits="userSpaceOnUse">
<stop stop-color="#444ADB"/>
<stop offset="1" stop-color="#444ADB" stop-opacity="0.2"/>
</linearGradient>
<linearGradient id="paint5_linear_0_1" x1="1536.69" y1="169.076" x2="1536.69" y2="334.864" gradientUnits="userSpaceOnUse">
<stop stop-color="#444ADB"/>
<stop offset="1" stop-color="#444ADB" stop-opacity="0.2"/>
</linearGradient>
<linearGradient id="paint6_linear_0_1" x1="1525.9" y1="203.996" x2="1425.5" y2="203.996" gradientUnits="userSpaceOnUse">
<stop stop-color="#4B1FA9"/>
<stop offset="0.0667915" stop-color="#4317A0"/>
<stop offset="0.1494" stop-color="#330F98"/>
<stop offset="0.2393" stop-color="#360A92"/>
<stop offset="0.3408" stop-color="#33078F"/>
<stop offset="0.4785" stop-color="#32068E"/>
<stop offset="0.6264" stop-color="#3C22A3"/>
<stop offset="0.9436" stop-color="#3168DA"/>
<stop offset="1" stop-color="#2C75E4"/>
</linearGradient>
<linearGradient id="paint7_linear_0_1" x1="1518.78" y1="192.338" x2="1441.49" y2="211.464" gradientUnits="userSpaceOnUse">
<stop stop-color="#1E139B"/>
<stop offset="0.1651" stop-color="#1E1BA1"/>
<stop offset="0.4284" stop-color="#3347B2"/>
<stop offset="0.7551" stop-color="#496ECD"/>
<stop offset="1" stop-color="#2969E4"/>
</linearGradient>
<linearGradient id="paint8_linear_0_1" x1="1525.9" y1="171.877" x2="1425.5" y2="171.877" gradientUnits="userSpaceOnUse">
<stop stop-color="#4B1FA9"/>
<stop offset="0.0667915" stop-color="#3B17A0"/>
<stop offset="0.1494" stop-color="#330F98"/>
<stop offset="0.2393" stop-color="#2D0A92"/>
<stop offset="0.3408" stop-color="#2A078F"/>
<stop offset="0.4785" stop-color="#32068E"/>
<stop offset="0.6264" stop-color="#2C22A3"/>
<stop offset="0.9436" stop-color="#3168DA"/>
<stop offset="1" stop-color="#2C75E4"/>
</linearGradient>
<linearGradient id="paint9_linear_0_1" x1="1518.78" y1="160.22" x2="1441.49" y2="179.346" gradientUnits="userSpaceOnUse">
<stop stop-color="#267FE5"/>
<stop offset="0.1699" stop-color="#2C87E7"/>
<stop offset="0.441" stop-color="#3D9FEB"/>
<stop offset="0.7773" stop-color="#59C4F2"/>
<stop offset="1" stop-color="#6EE1F8"/>
</linearGradient>
<linearGradient id="paint10_linear_0_1" x1="1507.88" y1="160.219" x2="1445.93" y2="160.219" gradientUnits="userSpaceOnUse">
<stop stop-color="#6DE0F6"/>
<stop offset="0.1595" stop-color="#68D8F5"/>
<stop offset="0.4138" stop-color="#5AC0F1"/>
<stop offset="0.7294" stop-color="#439BEA"/>
<stop offset="1" stop-color="#2C75E4"/>
</linearGradient>
<linearGradient id="paint11_linear_0_1" x1="1476.87" y1="107" x2="1476.87" y2="175.887" gradientUnits="userSpaceOnUse">
<stop stop-color="#6CE2FE" stop-opacity="0.6"/>
<stop offset="1" stop-color="white" stop-opacity="0"/>
</linearGradient>
<linearGradient id="paint12_linear_0_1" x1="1506.7" y1="141.445" x2="1506.7" y2="246.381" gradientUnits="userSpaceOnUse">
<stop stop-color="#6CE2FE" stop-opacity="0.6"/>
<stop offset="1" stop-color="white" stop-opacity="0"/>
</linearGradient>
<linearGradient id="paint13_linear_0_1" x1="1447.08" y1="141.327" x2="1447.08" y2="246.311" gradientUnits="userSpaceOnUse">
<stop stop-color="#6CE2FE" stop-opacity="0.6"/>
<stop offset="1" stop-color="white" stop-opacity="0"/>
</linearGradient>
<linearGradient id="paint14_linear_0_1" x1="1585.57" y1="238.435" x2="1485.16" y2="238.435" gradientUnits="userSpaceOnUse">
<stop stop-color="#4B1FA9"/>
<stop offset="0.0667915" stop-color="#4317A0"/>
<stop offset="0.1494" stop-color="#330F98"/>
<stop offset="0.2393" stop-color="#360A92"/>
<stop offset="0.3408" stop-color="#33078F"/>
<stop offset="0.4785" stop-color="#32068E"/>
<stop offset="0.6264" stop-color="#3C22A3"/>
<stop offset="0.9436" stop-color="#3168DA"/>
<stop offset="1" stop-color="#2C75E4"/>
</linearGradient>
<linearGradient id="paint15_linear_0_1" x1="1578.45" y1="226.777" x2="1501.15" y2="245.903" gradientUnits="userSpaceOnUse">
<stop stop-color="#1E139B"/>
<stop offset="0.1651" stop-color="#1E1BA1"/>
<stop offset="0.4284" stop-color="#3347B2"/>
<stop offset="0.7551" stop-color="#496ECD"/>
<stop offset="1" stop-color="#2969E4"/>
</linearGradient>
<linearGradient id="paint16_linear_0_1" x1="1585.57" y1="206.316" x2="1485.16" y2="206.316" gradientUnits="userSpaceOnUse">
<stop stop-color="#4B1FA9"/>
<stop offset="0.0667915" stop-color="#3B17A0"/>
<stop offset="0.1494" stop-color="#330F98"/>
<stop offset="0.2393" stop-color="#2D0A92"/>
<stop offset="0.3408" stop-color="#2A078F"/>
<stop offset="0.4785" stop-color="#32068E"/>
<stop offset="0.6264" stop-color="#2C22A3"/>
<stop offset="0.9436" stop-color="#3168DA"/>
<stop offset="1" stop-color="#2C75E4"/>
</linearGradient>
<linearGradient id="paint17_linear_0_1" x1="1578.45" y1="194.659" x2="1501.15" y2="213.785" gradientUnits="userSpaceOnUse">
<stop stop-color="#267FE5"/>
<stop offset="0.1699" stop-color="#2C87E7"/>
<stop offset="0.441" stop-color="#3D9FEB"/>
<stop offset="0.7773" stop-color="#59C4F2"/>
<stop offset="1" stop-color="#6EE1F8"/>
</linearGradient>
<linearGradient id="paint18_linear_0_1" x1="1567.54" y1="194.658" x2="1505.59" y2="194.658" gradientUnits="userSpaceOnUse">
<stop stop-color="#6DE0F6"/>
<stop offset="0.1595" stop-color="#68D8F5"/>
<stop offset="0.4138" stop-color="#5AC0F1"/>
<stop offset="0.7294" stop-color="#439BEA"/>
<stop offset="1" stop-color="#2C75E4"/>
</linearGradient>
<linearGradient id="paint19_linear_0_1" x1="1536.53" y1="141.439" x2="1536.53" y2="210.326" gradientUnits="userSpaceOnUse">
<stop stop-color="#6CE2FE" stop-opacity="0.6"/>
<stop offset="1" stop-color="white" stop-opacity="0"/>
</linearGradient>
<linearGradient id="paint20_linear_0_1" x1="1566.36" y1="175.885" x2="1566.36" y2="280.82" gradientUnits="userSpaceOnUse">
<stop stop-color="#6CE2FE" stop-opacity="0.6"/>
<stop offset="1" stop-color="white" stop-opacity="0"/>
</linearGradient>
<linearGradient id="paint21_linear_0_1" x1="1506.78" y1="175.837" x2="1506.78" y2="280.821" gradientUnits="userSpaceOnUse">
<stop stop-color="#6CE2FE" stop-opacity="0.6"/>
<stop offset="1" stop-color="white" stop-opacity="0"/>
</linearGradient>
<linearGradient id="paint22_linear_0_1" x1="1645.19" y1="272.853" x2="1544.79" y2="272.853" gradientUnits="userSpaceOnUse">
<stop stop-color="#4B1FA9"/>
<stop offset="0.0667915" stop-color="#4317A0"/>
<stop offset="0.1494" stop-color="#330F98"/>
<stop offset="0.2393" stop-color="#360A92"/>
<stop offset="0.3408" stop-color="#33078F"/>
<stop offset="0.4785" stop-color="#32068E"/>
<stop offset="0.6264" stop-color="#3C22A3"/>
<stop offset="0.9436" stop-color="#3168DA"/>
<stop offset="1" stop-color="#2C75E4"/>
</linearGradient>
<linearGradient id="paint23_linear_0_1" x1="1638.07" y1="261.195" x2="1560.77" y2="280.321" gradientUnits="userSpaceOnUse">
<stop stop-color="#1E139B"/>
<stop offset="0.1651" stop-color="#1E1BA1"/>
<stop offset="0.4284" stop-color="#3347B2"/>
<stop offset="0.7551" stop-color="#496ECD"/>
<stop offset="1" stop-color="#2969E4"/>
</linearGradient>
<linearGradient id="paint24_linear_0_1" x1="1645.19" y1="240.734" x2="1544.79" y2="240.734" gradientUnits="userSpaceOnUse">
<stop stop-color="#4B1FA9"/>
<stop offset="0.0667915" stop-color="#3B17A0"/>
<stop offset="0.1494" stop-color="#330F98"/>
<stop offset="0.2393" stop-color="#2D0A92"/>
<stop offset="0.3408" stop-color="#2A078F"/>
<stop offset="0.4785" stop-color="#32068E"/>
<stop offset="0.6264" stop-color="#2C22A3"/>
<stop offset="0.9436" stop-color="#3168DA"/>
<stop offset="1" stop-color="#2C75E4"/>
</linearGradient>
<linearGradient id="paint25_linear_0_1" x1="1638.07" y1="229.077" x2="1560.77" y2="248.203" gradientUnits="userSpaceOnUse">
<stop stop-color="#267FE5"/>
<stop offset="0.1699" stop-color="#2C87E7"/>
<stop offset="0.441" stop-color="#3D9FEB"/>
<stop offset="0.7773" stop-color="#59C4F2"/>
<stop offset="1" stop-color="#6EE1F8"/>
</linearGradient>
<linearGradient id="paint26_linear_0_1" x1="1627.17" y1="229.076" x2="1565.21" y2="229.076" gradientUnits="userSpaceOnUse">
<stop stop-color="#6DE0F6"/>
<stop offset="0.1595" stop-color="#68D8F5"/>
<stop offset="0.4138" stop-color="#5AC0F1"/>
<stop offset="0.7294" stop-color="#439BEA"/>
<stop offset="1" stop-color="#2C75E4"/>
</linearGradient>
<linearGradient id="paint27_linear_0_1" x1="1596.16" y1="175.857" x2="1596.16" y2="244.744" gradientUnits="userSpaceOnUse">
<stop stop-color="#6CE2FE" stop-opacity="0.6"/>
<stop offset="1" stop-color="white" stop-opacity="0"/>
</linearGradient>
<linearGradient id="paint28_linear_0_1" x1="1625.98" y1="210.302" x2="1625.98" y2="315.238" gradientUnits="userSpaceOnUse">
<stop stop-color="#6CE2FE" stop-opacity="0.6"/>
<stop offset="1" stop-color="white" stop-opacity="0"/>
</linearGradient>
<linearGradient id="paint29_linear_0_1" x1="1566.4" y1="210.254" x2="1566.4" y2="315.238" gradientUnits="userSpaceOnUse">
<stop stop-color="#6CE2FE" stop-opacity="0.6"/>
<stop offset="1" stop-color="white" stop-opacity="0"/>
</linearGradient>
<linearGradient id="paint30_linear_0_1" x1="186.5" y1="187.021" x2="186.5" y2="377.29" gradientUnits="userSpaceOnUse">
<stop stop-color="#444ADB"/>
<stop offset="1" stop-color="#444ADB" stop-opacity="0.2"/>
</linearGradient>
<linearGradient id="paint31_linear_0_1" x1="84.9539" y1="312.815" x2="84.9539" y2="377.29" gradientUnits="userSpaceOnUse">
<stop stop-color="#444ADB"/>
<stop offset="1" stop-color="#444ADB" stop-opacity="0.2"/>
</linearGradient>
<linearGradient id="paint32_linear_0_1" x1="84.9539" y1="312.815" x2="84.9539" y2="377.29" gradientUnits="userSpaceOnUse">
<stop stop-color="#444ADB"/>
<stop offset="1" stop-color="#444ADB" stop-opacity="0.2"/>
</linearGradient>
<linearGradient id="paint33_linear_0_1" x1="186.477" y1="178.228" x2="186.477" y2="368.457" gradientUnits="userSpaceOnUse">
<stop stop-color="#444ADB"/>
<stop offset="1" stop-color="#444ADB" stop-opacity="0.2"/>
</linearGradient>
<linearGradient id="paint34_linear_0_1" x1="197.252" y1="218.295" x2="297.557" y2="218.295" gradientUnits="userSpaceOnUse">
<stop stop-color="#4B1FA9"/>
<stop offset="0.0667915" stop-color="#4317A0"/>
<stop offset="0.1494" stop-color="#330F98"/>
<stop offset="0.2393" stop-color="#360A92"/>
<stop offset="0.3408" stop-color="#33078F"/>
<stop offset="0.4785" stop-color="#32068E"/>
<stop offset="0.6264" stop-color="#3C22A3"/>
<stop offset="0.9436" stop-color="#3168DA"/>
<stop offset="1" stop-color="#2C75E4"/>
</linearGradient>
<linearGradient id="paint35_linear_0_1" x1="204.363" y1="204.919" x2="282.677" y2="221.792" gradientUnits="userSpaceOnUse">
<stop stop-color="#1E139B"/>
<stop offset="0.1651" stop-color="#1E1BA1"/>
<stop offset="0.4284" stop-color="#3347B2"/>
<stop offset="0.7551" stop-color="#496ECD"/>
<stop offset="1" stop-color="#2969E4"/>
</linearGradient>
<linearGradient id="paint36_linear_0_1" x1="197.252" y1="181.442" x2="297.557" y2="181.442" gradientUnits="userSpaceOnUse">
<stop stop-color="#4B1FA9"/>
<stop offset="0.0667915" stop-color="#3B17A0"/>
<stop offset="0.1494" stop-color="#330F98"/>
<stop offset="0.2393" stop-color="#2D0A92"/>
<stop offset="0.3408" stop-color="#2A078F"/>
<stop offset="0.4785" stop-color="#32068E"/>
<stop offset="0.6264" stop-color="#2C22A3"/>
<stop offset="0.9436" stop-color="#3168DA"/>
<stop offset="1" stop-color="#2C75E4"/>
</linearGradient>
<linearGradient id="paint37_linear_0_1" x1="204.363" y1="168.066" x2="282.677" y2="184.938" gradientUnits="userSpaceOnUse">
<stop stop-color="#267FE5"/>
<stop offset="0.1699" stop-color="#2C87E7"/>
<stop offset="0.441" stop-color="#3D9FEB"/>
<stop offset="0.7773" stop-color="#59C4F2"/>
<stop offset="1" stop-color="#6EE1F8"/>
</linearGradient>
<linearGradient id="paint38_linear_0_1" x1="215.255" y1="168.065" x2="277.149" y2="168.065" gradientUnits="userSpaceOnUse">
<stop stop-color="#6DE0F6"/>
<stop offset="0.1595" stop-color="#68D8F5"/>
<stop offset="0.4138" stop-color="#5AC0F1"/>
<stop offset="0.7294" stop-color="#439BEA"/>
<stop offset="1" stop-color="#2C75E4"/>
</linearGradient>
<linearGradient id="paint39_linear_0_1" x1="246.238" y1="107" x2="246.238" y2="186.042" gradientUnits="userSpaceOnUse">
<stop stop-color="#6CE2FE" stop-opacity="0.6"/>
<stop offset="1" stop-color="white" stop-opacity="0"/>
</linearGradient>
<linearGradient id="paint40_linear_0_1" x1="216.44" y1="146.523" x2="216.44" y2="266.929" gradientUnits="userSpaceOnUse">
<stop stop-color="#6CE2FE" stop-opacity="0.6"/>
<stop offset="1" stop-color="white" stop-opacity="0"/>
</linearGradient>
<linearGradient id="paint41_linear_0_1" x1="275.997" y1="146.388" x2="275.997" y2="266.849" gradientUnits="userSpaceOnUse">
<stop stop-color="#6CE2FE" stop-opacity="0.6"/>
<stop offset="1" stop-color="white" stop-opacity="0"/>
</linearGradient>
<linearGradient id="paint42_linear_0_1" x1="137.645" y1="257.812" x2="237.95" y2="257.812" gradientUnits="userSpaceOnUse">
<stop stop-color="#4B1FA9"/>
<stop offset="0.0667915" stop-color="#4317A0"/>
<stop offset="0.1494" stop-color="#330F98"/>
<stop offset="0.2393" stop-color="#360A92"/>
<stop offset="0.3408" stop-color="#33078F"/>
<stop offset="0.4785" stop-color="#32068E"/>
<stop offset="0.6264" stop-color="#3C22A3"/>
<stop offset="0.9436" stop-color="#3168DA"/>
<stop offset="1" stop-color="#2C75E4"/>
</linearGradient>
<linearGradient id="paint43_linear_0_1" x1="144.758" y1="244.436" x2="223.072" y2="261.309" gradientUnits="userSpaceOnUse">
<stop stop-color="#1E139B"/>
<stop offset="0.1651" stop-color="#1E1BA1"/>
<stop offset="0.4284" stop-color="#3347B2"/>
<stop offset="0.7551" stop-color="#496ECD"/>
<stop offset="1" stop-color="#2969E4"/>
</linearGradient>
<linearGradient id="paint44_linear_0_1" x1="137.645" y1="220.958" x2="237.95" y2="220.958" gradientUnits="userSpaceOnUse">
<stop stop-color="#4B1FA9"/>
<stop offset="0.0667915" stop-color="#3B17A0"/>
<stop offset="0.1494" stop-color="#330F98"/>
<stop offset="0.2393" stop-color="#2D0A92"/>
<stop offset="0.3408" stop-color="#2A078F"/>
<stop offset="0.4785" stop-color="#32068E"/>
<stop offset="0.6264" stop-color="#2C22A3"/>
<stop offset="0.9436" stop-color="#3168DA"/>
<stop offset="1" stop-color="#2C75E4"/>
</linearGradient>
<linearGradient id="paint45_linear_0_1" x1="144.758" y1="207.582" x2="223.072" y2="224.455" gradientUnits="userSpaceOnUse">
<stop stop-color="#267FE5"/>
<stop offset="0.1699" stop-color="#2C87E7"/>
<stop offset="0.441" stop-color="#3D9FEB"/>
<stop offset="0.7773" stop-color="#59C4F2"/>
<stop offset="1" stop-color="#6EE1F8"/>
</linearGradient>
<linearGradient id="paint46_linear_0_1" x1="155.648" y1="207.581" x2="217.542" y2="207.581" gradientUnits="userSpaceOnUse">
<stop stop-color="#6DE0F6"/>
<stop offset="0.1595" stop-color="#68D8F5"/>
<stop offset="0.4138" stop-color="#5AC0F1"/>
<stop offset="0.7294" stop-color="#439BEA"/>
<stop offset="1" stop-color="#2C75E4"/>
</linearGradient>
<linearGradient id="paint47_linear_0_1" x1="186.63" y1="146.516" x2="186.63" y2="225.559" gradientUnits="userSpaceOnUse">
<stop stop-color="#6CE2FE" stop-opacity="0.6"/>
<stop offset="1" stop-color="white" stop-opacity="0"/>
</linearGradient>
<linearGradient id="paint48_linear_0_1" x1="156.83" y1="186.04" x2="156.83" y2="306.447" gradientUnits="userSpaceOnUse">
<stop stop-color="#6CE2FE" stop-opacity="0.6"/>
<stop offset="1" stop-color="white" stop-opacity="0"/>
</linearGradient>
<linearGradient id="paint49_linear_0_1" x1="216.354" y1="185.985" x2="216.354" y2="306.446" gradientUnits="userSpaceOnUse">
<stop stop-color="#6CE2FE" stop-opacity="0.6"/>
<stop offset="1" stop-color="white" stop-opacity="0"/>
</linearGradient>
<linearGradient id="paint50_linear_0_1" x1="78.0777" y1="297.303" x2="178.383" y2="297.303" gradientUnits="userSpaceOnUse">
<stop stop-color="#4B1FA9"/>
<stop offset="0.0667915" stop-color="#4317A0"/>
<stop offset="0.1494" stop-color="#330F98"/>
<stop offset="0.2393" stop-color="#360A92"/>
<stop offset="0.3408" stop-color="#33078F"/>
<stop offset="0.4785" stop-color="#32068E"/>
<stop offset="0.6264" stop-color="#3C22A3"/>
<stop offset="0.9436" stop-color="#3168DA"/>
<stop offset="1" stop-color="#2C75E4"/>
</linearGradient>
<linearGradient id="paint51_linear_0_1" x1="85.1903" y1="283.928" x2="163.505" y2="300.8" gradientUnits="userSpaceOnUse">
<stop stop-color="#1E139B"/>
<stop offset="0.1651" stop-color="#1E1BA1"/>
<stop offset="0.4284" stop-color="#3347B2"/>
<stop offset="0.7551" stop-color="#496ECD"/>
<stop offset="1" stop-color="#2969E4"/>
</linearGradient>
<linearGradient id="paint52_linear_0_1" x1="78.0777" y1="260.45" x2="178.383" y2="260.45" gradientUnits="userSpaceOnUse">
<stop stop-color="#4B1FA9"/>
<stop offset="0.0667915" stop-color="#3B17A0"/>
<stop offset="0.1494" stop-color="#330F98"/>
<stop offset="0.2393" stop-color="#2D0A92"/>
<stop offset="0.3408" stop-color="#2A078F"/>
<stop offset="0.4785" stop-color="#32068E"/>
<stop offset="0.6264" stop-color="#2C22A3"/>
<stop offset="0.9436" stop-color="#3168DA"/>
<stop offset="1" stop-color="#2C75E4"/>
</linearGradient>
<linearGradient id="paint53_linear_0_1" x1="85.1904" y1="247.074" x2="163.505" y2="263.946" gradientUnits="userSpaceOnUse">
<stop stop-color="#267FE5"/>
<stop offset="0.1699" stop-color="#2C87E7"/>
<stop offset="0.441" stop-color="#3D9FEB"/>
<stop offset="0.7773" stop-color="#59C4F2"/>
<stop offset="1" stop-color="#6EE1F8"/>
</linearGradient>
<linearGradient id="paint54_linear_0_1" x1="96.081" y1="247.073" x2="157.975" y2="247.073" gradientUnits="userSpaceOnUse">
<stop stop-color="#6DE0F6"/>
<stop offset="0.1595" stop-color="#68D8F5"/>
<stop offset="0.4138" stop-color="#5AC0F1"/>
<stop offset="0.7294" stop-color="#439BEA"/>
<stop offset="1" stop-color="#2C75E4"/>
</linearGradient>
<linearGradient id="paint55_linear_0_1" x1="127.063" y1="186.008" x2="127.063" y2="265.051" gradientUnits="userSpaceOnUse">
<stop stop-color="#6CE2FE" stop-opacity="0.6"/>
<stop offset="1" stop-color="white" stop-opacity="0"/>
</linearGradient>
<linearGradient id="paint56_linear_0_1" x1="97.2645" y1="225.532" x2="97.2645" y2="345.938" gradientUnits="userSpaceOnUse">
<stop stop-color="#6CE2FE" stop-opacity="0.6"/>
<stop offset="1" stop-color="white" stop-opacity="0"/>
</linearGradient>
<linearGradient id="paint57_linear_0_1" x1="156.788" y1="225.477" x2="156.788" y2="345.938" gradientUnits="userSpaceOnUse">
<stop stop-color="#6CE2FE" stop-opacity="0.6"/>
<stop offset="1" stop-color="white" stop-opacity="0"/>
</linearGradient>
</defs>
</svg>
