<svg width="1920" height="509" viewBox="0 0 1920 509" fill="none" xmlns="http://www.w3.org/2000/svg">
<rect width="1920" height="414" fill="#3182CE"/>
<path d="M2169.95 195.384C2169.95 195.384 1683.55 80.3716 1584.85 203.936C1518.08 287.523 1545.25 358.387 1439.92 391.273C1351.38 418.913 1140.81 398.215 1035.4 377.446C888.432 348.491 741.091 273.555 590.036 248.533C274.275 196.232 -12.7234 368.53 268.142 507.723M2170.05 197.074C2170.05 197.074 1690.34 83.9844 1586.89 203.315C1517.02 283.91 1538.99 352.744 1433.25 385.567C1413.23 391.794 1387.11 395.612 1357.48 397.576C1338.84 398.815 1318.87 399.33 1298.17 399.252C1207.16 398.915 1101.65 386.879 1036.42 374.763C891.807 347.973 746.683 276.413 597.343 252.721C286.057 203.036 0.588887 369.263 259.938 500.944M2170.16 198.76C2170.16 198.76 1697.14 87.5845 1588.93 202.695C1515.98 280.293 1532.72 347.101 1426.59 379.857C1406.7 386.017 1380.93 389.869 1351.79 391.946C1333.44 393.257 1313.85 393.889 1293.61 393.957C1204.58 394.273 1101.56 383.24 1037.45 372.08C895.197 347.452 752.194 279.399 604.65 256.904C297.664 210.098 13.9151 369.992 251.734 494.16M2170.24 200.444C2170.24 200.444 1703.95 91.1755 1590.95 202.073C1514.94 276.668 1526.45 341.457 1419.92 374.15C1400.14 380.246 1374.73 384.13 1346.08 386.319C1328.03 387.708 1308.83 388.452 1289.05 388.663C1202.01 389.626 1101.47 379.599 1038.46 369.391C898.559 346.929 757.753 282.314 611.944 261.086C309.379 217.026 27.2278 370.72 243.517 487.376M2170.35 202.134C2170.35 202.134 1710.81 94.7667 1592.99 201.453C1513.94 273.041 1520.18 335.814 1413.26 368.445C1393.61 374.477 1368.53 378.39 1340.38 380.688C1322.63 382.15 1303.82 383.012 1284.5 383.37C1199.46 384.986 1101.43 375.908 1039.49 366.708C902.028 346.295 763.325 285.235 619.251 265.269C321.123 223.952 40.5404 371.448 235.313 480.593M2170.43 203.819C2170.43 203.819 1717.68 98.3406 1595 200.83C1512.92 269.404 1513.88 330.163 1406.57 362.737C1387.04 368.705 1362.31 372.65 1334.66 375.06C1317.21 376.599 1298.79 377.574 1279.92 378.074C1196.85 380.337 1101.32 372.253 1040.48 364.018C905.379 345.738 768.885 288.146 626.531 269.449C332.853 230.872 53.8391 372.175 227.081 473.807M2170.54 205.504C2170.54 205.504 1724.6 101.909 1597.04 200.209C1511.96 265.772 1507.61 324.52 1399.91 357.031C1380.51 362.932 1356.13 366.911 1328.96 369.434C1311.79 371.044 1293.78 372.139 1275.37 372.785C1194.3 375.701 1101.23 368.604 1041.51 361.34C908.757 345.193 774.485 291.069 633.838 273.637C344.639 237.792 67.1511 372.908 218.863 467.031M2170.64 207.195C2170.64 207.195 1731.57 105.473 1599.08 199.589C1511.03 262.133 1501.35 318.877 1393.25 351.321C1373.98 357.159 1349.94 361.168 1323.26 363.804C1306.4 365.491 1288.77 366.698 1270.82 367.492C1191.74 371.056 1101.15 364.951 1042.54 358.652C912.122 344.642 780.085 293.979 641.145 277.82C356.439 244.705 80.4776 373.637 210.659 460.248M2170.73 208.879C2170.73 208.879 1738.56 109.024 1601.1 198.967C1510.13 258.487 1495.07 313.232 1386.58 345.614C1367.42 351.388 1343.74 355.429 1317.55 358.177C1300.99 359.937 1283.75 361.261 1266.25 362.197C1189.16 366.413 1101.03 361.299 1043.55 355.968C915.472 344.094 785.687 296.889 648.439 282.002C368.24 251.608 93.7906 374.361 202.442 453.463M2170.83 210.569C2170.83 210.569 1745.63 112.578 1603.14 198.351C1509.28 254.85 1488.55 307.497 1379.91 339.913C1360.84 345.606 1337.56 349.695 1311.86 352.551C1295.59 354.388 1278.74 355.826 1261.7 356.909C1186.6 361.772 1100.94 357.65 1044.57 353.29C918.822 343.556 791.301 299.805 655.746 286.194C380.082 258.514 107.102 375.098 194.237 446.689M2170.92 212.253C2170.92 212.253 1752.74 116.122 1605.15 197.724C1508.45 251.197 1482.25 301.837 1373.23 334.201C1354.28 339.826 1331.32 343.933 1306.13 346.918C1290.14 348.816 1273.71 350.384 1257.13 351.609C1184.02 357.125 1100.82 353.994 1045.57 350.595C922.145 343.001 796.904 302.696 663.026 290.365C391.899 265.391 120.402 375.816 186.006 439.894M2171.02 213.939C2171.02 213.939 1759.94 119.663 1607.19 197.103C1507.69 247.554 1475.97 296.188 1366.57 328.495C1347.74 334.056 1325.13 338.19 1300.44 341.292C1284.74 343.263 1268.7 344.948 1252.57 346.319C1181.44 352.488 1100.71 350.352 1046.6 347.917C925.48 342.466 802.546 305.605 670.333 294.558C403.771 272.282 133.714 376.553 177.802 433.12M2171.12 215.629C2171.12 215.629 1767.21 123.211 1609.23 196.487C1506.98 243.915 1469.69 290.544 1359.9 322.79C1341.21 328.283 1318.93 332.451 1294.74 335.666C1279.34 337.714 1263.67 339.497 1248.02 341.031C1178.82 347.794 1100.61 346.707 1047.62 345.234C928.816 341.927 808.19 308.5 677.64 298.741C415.644 279.154 147.04 377.282 169.598 426.337M2171.21 217.314C2171.21 217.314 1774.54 126.756 1611.26 195.866C1506.31 240.276 1463.4 284.894 1353.23 317.083C1334.65 322.512 1312.73 326.711 1289.03 330.039C1273.92 332.159 1258.65 334.06 1243.46 335.736C1176.24 343.147 1100.5 343.06 1048.63 342.55C932.123 341.394 813.82 311.393 684.933 302.927C427.532 286.018 160.352 378.015 161.38 419.557M2171.31 219.004C2171.31 219.004 1781.99 130.315 1613.29 195.245C1505.73 236.649 1457.13 279.25 1346.57 311.377C1328.12 316.744 1306.54 320.973 1283.34 324.409C1268.52 326.605 1253.65 328.62 1238.9 330.442C1173.66 338.505 1100.37 339.418 1049.65 339.861C935.445 340.858 819.466 314.275 692.227 307.104C439.421 292.864 173.652 378.738 153.163 412.768M2171.4 220.688C2171.4 220.688 1789.51 133.881 1615.3 194.622C1505.17 233.024 1450.84 273.6 1339.88 305.67C1321.55 310.967 1300.33 315.232 1277.61 318.781C1263.09 321.05 1248.6 323.181 1234.33 325.147C1171.07 333.857 1100.25 335.775 1050.66 337.177C938.752 340.335 825.111 317.156 699.521 311.291C451.311 299.705 186.964 379.47 144.931 405.986M2171.5 222.374C2171.5 222.374 1797.15 137.461 1617.34 194.002C1504.71 229.417 1444.57 267.957 1333.22 299.964C1315.02 305.199 1294.15 309.494 1271.91 313.155C1257.68 315.5 1243.59 317.746 1229.78 319.859C1168.51 329.22 1100.15 332.139 1051.68 334.494C942.086 339.814 830.77 320.029 706.828 315.474C463.216 306.529 200.276 380.198 136.727 399.208M2171.6 224.064C2171.6 224.064 1804.9 141.074 1619.38 193.381C1504.33 225.826 1438.29 262.313 1326.56 294.254C1308.47 299.424 1287.95 303.75 1266.22 307.524C1252.28 309.942 1238.59 312.306 1225.22 314.56C1165.93 324.569 1100.04 328.497 1052.7 331.805C945.406 339.296 836.417 322.892 714.121 319.656C475.122 313.334 213.589 380.922 128.509 392.423M2171.69 225.748C2171.69 225.748 1812.73 144.708 1621.41 192.759C1503.99 222.248 1432.03 256.67 1319.89 288.547C1301.93 293.65 1281.75 298.01 1260.51 301.897C1246.87 304.392 1233.57 306.87 1220.66 309.27C1163.35 319.931 1099.93 324.864 1053.72 329.122C948.753 338.785 842.078 325.751 721.429 323.839C487.03 320.13 226.916 381.651 120.306 385.64M2171.8 227.434C2171.8 227.434 1820.67 148.376 1623.45 192.139C1503.73 218.7 1425.77 251.027 1313.22 282.841C1295.4 287.881 1275.56 292.276 1254.81 296.267C1241.48 298.834 1228.55 301.428 1216.1 303.976C1160.78 315.289 1099.83 321.233 1054.73 326.437C952.086 338.278 847.712 328.603 728.722 328.025C498.911 326.915 240.214 382.383 112.088 378.86M2171.88 229.123C2171.88 229.123 1828.7 152.092 1625.46 191.516C1503.51 215.174 1419.49 245.383 1306.54 277.134C1288.84 282.111 1269.35 286.536 1249.09 290.639C1236.05 293.283 1223.52 295.991 1211.53 298.681C1158.19 310.645 1099.72 317.601 1055.73 323.748C955.419 337.771 853.333 331.44 736.002 332.206C510.766 333.674 253.513 383.11 103.856 372.074M2171.99 230.809C2171.99 230.809 1836.84 155.855 1627.49 190.895C1503.36 211.673 1413.22 239.744 1299.88 271.428C1282.3 276.341 1263.16 280.797 1243.39 285.013C1230.64 287.729 1218.51 290.555 1206.98 293.392C1155.64 306.015 1099.63 313.975 1056.77 321.07C958.82 337.279 858.982 334.28 743.322 336.394C522.649 340.431 266.839 383.844 95.6659 365.296M2172.09 232.499C2172.09 232.499 1845.04 159.671 1629.53 190.28C1503.25 208.212 1406.99 234.113 1293.22 265.722C1275.77 270.573 1256.97 275.059 1237.7 279.387C1225.24 282.18 1213.51 285.12 1202.42 288.098C1153.07 301.374 1099.55 310.345 1057.78 318.382C962.18 336.779 864.604 337.103 750.616 340.576C534.493 347.161 280.151 384.572 87.4484 358.512M2172.18 234.183C2172.18 234.183 1853.29 163.541 1631.56 189.658C1503.16 204.777 1400.72 228.475 1286.54 260.016C1269.22 264.803 1250.77 269.324 1231.99 273.76C1219.83 276.63 1208.49 279.688 1197.86 282.809C1150.49 296.736 1099.46 306.72 1058.8 315.702C965.566 336.29 870.199 339.924 757.909 344.763C546.296 353.883 293.463 385.304 79.2304 351.732M2172.28 235.869C2172.28 235.869 1861.57 167.476 1633.6 189.033C1503.1 201.372 1394.47 222.833 1279.88 254.305C1262.69 259.03 1244.6 263.582 1226.29 268.13C1214.43 271.073 1203.5 274.254 1193.32 277.516C1148.05 292.133 1099.39 303.095 1059.84 313.016C968.996 335.796 875.809 342.733 765.23 348.947C558.101 360.587 306.79 386.034 71.0265 344.948M2172.37 237.558C2172.37 237.558 1869.86 171.474 1635.61 188.414C1502.99 198.005 1388.42 217.288 1273.19 248.602C1256.16 253.275 1238.41 257.862 1220.57 262.501C1209.03 265.533 1198.46 268.816 1188.73 272.219C1145.45 287.488 1099.29 299.464 1060.82 310.329C972.369 335.301 881.351 345.53 772.51 353.128C569.837 367.275 320.089 386.761 62.7952 338.163M2172.47 239.243C2172.47 239.243 1878.12 175.527 1637.65 187.794C1502.91 194.667 1382.16 211.645 1266.53 242.897C1249.63 247.502 1232.23 252.124 1214.87 256.876C1203.62 259.979 1193.46 263.381 1184.18 266.931C1142.9 282.848 1099.23 295.841 1061.85 307.646C975.811 334.813 886.906 348.325 779.817 357.315C581.561 373.953 333.401 387.493 54.5906 331.388M2172.57 240.934C2172.57 240.934 1886.33 179.641 1639.68 187.173C1502.78 191.359 1375.89 206.002 1259.87 237.186C1243.09 241.728 1226.04 246.381 1209.17 251.245C1198.22 254.425 1188.45 257.941 1179.64 261.633C1140.34 278.203 1099.19 292.21 1062.87 304.958C979.254 334.315 892.449 351.109 787.125 361.494C593.244 380.614 346.728 388.213 46.3873 324.6M2172.66 242.618C2172.66 242.618 1894.48 183.8 1641.71 186.552C1502.58 188.067 1369.62 200.358 1253.2 231.48C1236.54 235.958 1219.84 240.642 1203.46 245.618C1192.81 248.871 1183.43 252.504 1175.06 256.342C1137.74 273.559 1099.1 288.585 1063.88 302.274C982.683 333.821 897.951 353.884 794.418 365.68C604.859 387.268 360.04 388.946 38.1694 317.821M2172.76 244.304C2172.76 244.304 1902.52 188 1643.75 185.931C1502.34 184.799 1363.35 194.71 1246.54 225.774C1230 230.188 1213.66 234.903 1197.77 239.992C1187.42 243.322 1178.42 247.068 1170.52 251.054C1135.19 268.924 1099.14 284.988 1064.91 299.596C986.315 333.386 903.424 356.667 801.725 369.868C616.447 393.916 373.352 389.679 29.9651 311.042M2172.86 245.994C2172.86 245.994 1910.44 192.242 1645.77 185.31C1502 181.546 1357.08 189.066 1239.86 220.067C1223.45 224.414 1207.46 229.164 1192.06 234.361C1182 237.763 1173.4 241.627 1165.96 245.755C1132.62 264.272 1099.04 281.339 1065.92 296.902C989.678 332.854 908.872 359.424 809.019 374.045C627.98 400.549 386.665 390.402 21.7479 304.253M2172.95 247.678C2172.95 247.678 1508.14 114.112 1186.36 228.735C1176.59 232.213 1168.39 236.191 1161.4 240.466C927.143 383.725 706.855 465.515 13.53 297.473M2167.21 249.586C2164.48 248.526 2060.94 227.582 1917.26 208.802C1777.99 190.593 1602.07 174.292 1440.66 180.75C1341.26 184.621 1247.01 197.197 1171.54 223.351C1161.62 226.794 1153.26 230.739 1146.09 234.974C1076.59 276.178 1010.79 313.155 935.058 340.527C898.012 353.82 858.528 364.842 815.059 373.045C701.851 394.403 562.047 396.838 367.958 369.974C263.942 355.575 144.717 332.465 8.69199 299.799M2161.48 251.495C2156.03 249.379 2052.76 228.324 1910.91 208.947C1770.36 189.745 1594.21 172.109 1431.1 177.094C1330.31 180.171 1233.76 191.987 1156.78 217.963C1146.71 221.374 1138.17 225.28 1130.83 229.478C1059.91 270.247 995.516 307.839 921.478 335.874C885.572 349.467 847.103 360.782 804.749 369.398C694.499 391.841 558.047 396.094 364.932 370.94C260.252 357.305 139.77 334.447 3.90977 302.121M2155.73 253.408C2147.56 250.231 2044.57 229.047 1904.53 209.095C1762.7 188.884 1586.24 169.846 1421.51 173.441C1319.27 175.671 1220.49 186.786 1141.97 212.581C1131.75 215.96 1123.05 219.824 1115.54 223.988C1043.21 264.318 980.055 302.483 907.843 331.221C872.995 345.087 835.608 356.725 794.397 365.757C687.105 389.285 553.948 395.368 361.863 371.912C256.492 359.047 134.782 336.435 -0.914432 304.448M2149.99 255.315C2139.1 251.08 2036.37 229.742 1898.15 209.238C1755.02 188.003 1578.25 167.568 1411.92 169.783C1308.23 171.161 1207.21 181.574 1127.15 207.192C1116.78 210.54 1107.91 214.366 1100.23 218.491C1026.5 258.388 964.582 297.112 894.208 326.564C860.418 340.703 824.114 352.659 784.046 362.107C679.698 386.719 549.82 394.649 358.796 372.875C252.705 360.783 129.793 338.418 -5.73801 306.766M2144.24 257.223C2130.63 251.927 2028.17 230.413 1891.77 209.381C1747.32 187.107 1570.25 165.289 1402.33 166.125C1297.18 166.65 1193.72 176.293 1112.36 201.802C1101.81 205.106 1092.8 208.905 1084.93 212.996C1009.78 252.453 949.108 291.74 880.573 321.906C847.842 336.315 812.619 348.597 773.681 358.46C672.29 384.158 545.649 393.95 355.714 373.84C248.889 362.53 124.791 340.4 -10.5756 309.088M2138.51 259.132C2122.18 252.78 2019.97 231.061 1885.41 209.526C1739.65 186.194 1562.26 163.002 1392.77 162.469C1286.15 162.137 1180.44 171.072 1097.57 196.416C1086.87 199.688 1077.66 203.443 1069.65 207.503C992.811 246.449 933.65 286.361 866.966 317.251C835.294 331.924 801.153 344.533 763.358 354.812C664.924 381.595 541.476 393.274 352.674 374.805C245.1 364.284 119.83 342.382 -15.3716 311.409M2132.76 261.04C2113.71 253.628 2011.77 231.691 1879.03 209.669C1731.94 185.264 1554.23 160.707 1383.19 158.811C1275.09 157.616 1167.15 165.854 1082.76 191.024C1071.9 194.263 1062.53 197.981 1054.35 202.003C976.07 240.502 918.163 280.975 853.345 312.59C822.718 327.531 789.672 340.463 753.006 351.161C657.531 379.025 537.26 392.612 349.621 375.769C241.269 366.043 114.856 344.361 -20.1954 313.731M2127.02 262.948C2105.24 254.475 2003.57 232.302 1872.65 209.813C1724.23 184.32 1546.21 158.402 1373.6 155.158C1264.02 153.095 1153.85 160.637 1067.95 185.642C1056.95 188.845 1047.41 192.529 1039.06 196.513C959.342 234.566 902.663 275.597 839.71 307.937C810.115 323.14 778.177 336.406 742.655 347.515C650.137 376.465 533.001 391.975 346.553 376.736C237.423 367.815 109.868 346.345 -25.0192 316.054M2121.27 264.856C2096.77 255.323 1995.39 232.891 1866.27 209.956C1716.52 183.353 1538.18 156.097 1364.01 151.5C1252.96 148.569 1140.56 155.423 1053.15 180.254C1041.99 183.426 1032.28 187.067 1023.76 191.018C942.6 228.624 887.15 270.203 826.089 303.28C797.539 318.742 766.711 332.343 732.303 343.869C642.73 373.903 528.739 391.361 343.485 377.703C233.548 369.599 104.879 348.328 -29.8432 318.377M2115.54 266.765C2088.32 256.176 1987.21 233.462 1859.91 210.101C1708.83 182.374 1530.16 153.784 1354.45 147.844C1241.91 144.04 1127.29 150.208 1038.37 174.865C1027.06 178.005 1017.19 181.609 1008.49 185.52C925.913 222.687 871.665 264.808 812.482 298.62C784.964 314.345 755.244 328.279 721.98 340.217C635.364 371.336 524.49 390.761 340.445 378.663C229.701 371.385 99.9192 350.305 -34.6386 320.693M2109.8 268.677C2079.85 257.028 1979.04 234.02 1853.53 210.248C1701.12 181.383 1522.12 151.469 1344.86 144.191C1230.83 139.509 1114.01 144.996 1023.56 169.483C1012.09 172.585 1002.06 176.156 993.182 180.033C909.171 216.754 856.123 259.422 798.846 293.972C772.347 309.953 743.749 324.222 711.628 336.58C627.97 368.785 520.183 390.194 337.376 379.639C225.823 373.2 94.9299 352.297 -39.4634 323.025M2104.05 270.585C2071.38 257.876 1970.87 234.555 1847.15 210.391C1693.42 180.366 1514.06 149.143 1335.28 140.533C1219.75 134.968 1100.72 139.783 1008.76 164.091C997.139 167.162 986.937 170.695 977.887 174.534C892.457 210.815 840.584 254.017 785.212 289.31C759.744 305.548 732.255 320.151 701.263 332.928C620.563 366.214 515.874 389.636 334.295 380.6C221.919 375.009 89.9281 354.275 -44.301 325.347M2098.32 272.494C2062.93 258.73 1962.74 235.079 1840.78 210.536C1685.76 179.338 1506.03 146.81 1325.7 136.876C1208.68 130.428 1087.45 134.568 993.966 158.705C982.197 161.744 971.818 165.239 962.605 169.04C875.756 204.881 825.058 248.613 771.604 284.659C747.142 301.148 720.788 316.096 690.939 329.285C613.197 363.656 511.605 389.109 331.255 381.574C218.053 376.845 84.9664 356.27 -49.0977 327.677M2092.58 274.402C2054.47 259.577 1954.59 235.583 1834.41 210.68C1678.11 178.292 1497.99 144.476 1316.13 133.22C1197.61 125.883 1074.2 129.358 979.174 153.319C967.255 156.326 956.713 159.779 947.322 163.546C859.055 198.947 809.504 243.207 757.983 280.003C734.539 296.747 709.308 312.031 680.587 325.639C605.789 361.095 507.293 388.597 328.187 382.541C214.159 378.687 79.9643 358.252 -53.9215 329.999M2086.83 276.31C2046 260.425 1946.47 236.075 1828.03 210.823C1670.47 177.225 1489.94 142.137 1306.54 129.566C1186.53 121.338 1060.91 124.156 964.368 147.932C952.3 150.903 941.58 154.322 932.026 158.051C842.355 193.014 793.936 237.8 744.362 275.346C721.923 292.341 697.827 307.97 670.25 321.99C598.409 358.531 503.021 388.103 325.133 383.505C210.293 380.536 74.99 360.232 -58.7312 332.319M2081.09 278.218C2037.53 261.272 1938.37 236.56 1821.65 210.966C1662.85 176.145 1481.89 139.789 1296.96 125.908C1175.45 116.788 1047.65 118.945 949.562 142.545C937.344 145.484 926.461 148.865 916.716 152.56C825.64 187.083 778.342 232.39 730.713 270.692C709.265 287.937 686.332 303.909 659.884 318.347C591.002 355.974 498.718 387.638 322.051 384.475C206.397 382.406 69.9874 362.218 -63.5693 334.645M2075.36 280.127C2029.07 262.126 1930.29 237.028 1815.28 211.11C1655.26 175.044 1473.85 137.437 1287.38 122.252C1164.38 112.233 1034.39 113.74 934.77 137.159C922.402 140.067 911.356 143.41 901.434 147.066C808.952 181.156 762.747 226.98 717.106 266.037C696.662 283.532 674.865 299.849 649.547 314.698C583.622 353.41 494.457 387.182 319.011 385.44C202.555 384.281 65.0269 364.2 -68.3652 336.966M2069.61 282.039C2020.6 262.978 1922.23 237.494 1808.92 211.259C1647.71 173.938 1465.81 135.089 1277.81 118.599C1153.31 107.68 1021.14 108.535 919.978 131.773C907.46 134.649 896.236 137.954 886.151 141.572C792.265 175.223 747.152 221.566 703.485 261.38C684.019 279.123 663.385 295.784 639.209 311.053C576.242 350.846 490.221 386.751 315.957 386.408C198.713 386.174 60.0523 366.184 -73.1757 339.294M2063.87 283.947C2012.13 263.825 1914.17 237.94 1802.53 211.402C1640.16 172.804 1457.76 132.727 1268.22 114.942C1142.24 103.12 1007.87 103.329 905.172 126.386C892.504 129.23 881.117 132.498 870.855 136.077C775.578 169.295 731.531 216.145 689.864 256.724C671.389 274.716 651.904 291.719 628.858 307.403C568.835 348.28 485.984 386.333 312.889 387.371C194.869 388.076 55.0643 368.163 -77.9991 341.613M2058.12 285.855C2003.67 264.673 1906.16 238.381 1796.15 211.545C1632.66 171.66 1449.73 130.366 1258.63 111.284C1131.16 98.5566 994.604 98.1277 890.366 120.994C877.549 123.807 865.999 127.037 855.56 130.577C758.891 163.363 715.895 210.722 676.229 252.061C658.732 270.302 640.41 287.653 618.507 303.753C561.442 345.715 481.773 385.933 309.822 388.333C191.038 389.993 50.0763 370.141 -82.8226 343.931M2052.39 287.764C1995.22 265.527 1898.15 238.814 1789.78 211.689C1625.21 170.497 1441.69 128 1249.06 107.627C1120.1 93.9894 981.364 92.9241 875.574 115.609C862.607 118.389 850.893 121.582 840.264 125.082C742.203 157.439 700.246 205.303 662.608 247.405C646.074 265.892 628.93 283.588 608.156 300.102C554.048 343.15 477.588 385.548 306.754 389.296C187.221 391.917 45.0878 372.125 -87.6461 346.249M2046.64 289.672C1986.75 266.374 1890.18 239.241 1783.42 211.833C1617.8 169.319 1433.67 125.631 1239.47 103.973C1109.04 89.4268 968.109 87.7284 860.768 110.226C847.65 112.975 835.774 116.13 824.967 119.597C725.515 151.521 684.582 199.887 648.986 242.758C633.43 261.493 617.448 279.537 597.817 296.467C546.667 340.6 473.429 385.189 303.699 390.273C183.442 393.871 40.1124 374.119 -92.457 348.582M2040.9 291.58C1978.29 267.222 1882.22 239.659 1777.04 211.976C1610.42 168.126 1425.65 123.258 1229.88 100.316C1097.96 84.8538 954.841 82.527 845.962 104.834C832.695 107.552 820.642 110.668 809.671 114.097C708.828 145.593 668.919 194.463 635.351 238.1C620.759 257.083 605.968 275.472 587.466 292.816C539.274 338.031 469.297 384.836 300.632 391.236C179.677 395.827 35.1244 376.097 -97.2946 350.904M2035.15 293.487C1969.82 268.074 1874.28 240.069 1770.65 212.119C1603.08 166.916 1417.62 120.878 1220.3 96.6577C1086.9 80.282 941.586 77.3267 831.156 99.4472C817.739 102.133 805.523 105.212 794.375 108.602C692.154 139.671 653.229 189.035 621.73 233.444C608.088 252.667 594.487 271.407 577.115 289.17C531.867 335.469 465.206 384.497 297.564 392.203C175.925 397.793 30.1359 378.081 -102.118 353.227M2029.42 295.401C1961.36 268.927 1866.38 240.484 1764.29 212.268C1595.8 165.699 1409.61 118.506 1210.72 93.0055C1075.85 75.7113 928.532 72.2229 816.364 94.0659C802.823 96.7315 790.417 99.7611 779.093 103.113C675.493 133.754 637.551 183.618 608.109 228.792C595.416 248.261 583.006 267.351 566.777 285.526C524.487 332.91 461.141 384.169 294.51 393.171C172.227 399.778 25.1613 380.065 -106.929 355.551M2023.68 297.309C1952.89 269.775 1858.5 240.89 1757.9 212.411C1588.55 164.462 1401.6 116.124 1201.14 89.3475C1064.79 71.1348 915.264 67.0121 801.558 88.6741C787.868 91.3081 775.325 94.3117 763.797 97.6132C659.021 127.906 621.833 178.189 594.488 224.131C582.745 243.846 571.526 263.281 556.426 281.875C517.093 330.345 457.103 383.853 291.442 394.133C168.529 401.762 20.1732 382.044 -111.752 357.869M2017.93 299.217C1944.42 270.622 1850.64 241.289 1751.54 212.555C1581.38 163.216 1393.61 113.743 1191.56 85.6907C1053.76 66.5562 901.997 61.8061 786.766 83.2883C772.926 85.8905 760.206 88.8555 748.501 92.1182C642.306 121.975 606.114 172.763 580.853 219.473C570.06 239.438 560.031 259.219 546.075 278.225C509.7 327.78 453.106 383.541 288.375 395.096C164.858 403.759 15.1853 384.023 -116.575 360.187M2012.2 301.126C1935.97 271.475 1842.8 241.691 1745.17 212.7C1574.26 161.952 1385.62 111.358 1181.99 82.034C1042.72 61.9776 888.729 56.5954 771.974 77.8977C757.984 80.4683 745.102 83.3912 733.219 86.6244C625.619 116.043 590.396 167.338 567.246 214.818C557.388 235.027 548.565 255.155 535.751 274.581C502.334 325.222 449.163 383.251 285.348 396.066C161.254 405.775 10.2381 386.009 -121.358 362.514M2006.46 303.034C1927.51 272.324 1835 242.085 1738.79 212.843C1567.18 160.678 1377.69 108.867 1172.4 78.3806C1031.72 57.3322 875.461 51.3939 757.168 72.5153C743.028 75.0542 729.982 77.9395 717.922 81.134C608.903 110.117 574.663 161.921 553.611 210.165C544.689 230.619 537.07 251.094 525.385 270.934C494.913 322.655 445.22 382.962 282.266 397.032C157.622 407.793 5.23594 387.992 -126.196 364.84M2000.71 304.941C1919.04 273.172 1827.21 242.481 1732.41 212.986C1560.16 159.391 1369.67 106.53 1162.81 74.7227C1020.66 52.7834 862.18 46.182 742.362 67.1281C728.073 69.6307 714.849 72.482 702.626 75.639C592.202 104.188 558.738 156.478 539.99 205.508C531.922 226.199 525.603 247.034 515.048 267.29C487.533 320.095 441.331 382.682 279.212 398C154.045 409.826 0.260868 389.981 -131.006 367.164M1994.97 306.849C1910.57 274.019 1819.44 242.875 1726.04 213.13C1553.23 158.097 1361.67 104.196 1153.24 71.0659C1009.61 48.2358 848.912 40.976 727.57 61.7377C582.871 86.4984 545.014 145.547 526.369 200.847C519.305 221.794 514.123 242.965 504.697 263.634C480.14 317.526 437.471 382.4 276.145 398.958C150.482 411.855 -4.7268 391.955 -135.829 369.478" stroke="white" stroke-opacity="0.15" stroke-miterlimit="10"/>
</svg>
