<svg width="15" height="17" viewBox="0 0 15 17" fill="none" xmlns="http://www.w3.org/2000/svg">
<path d="M1.92503 16.501H0.825013C0.606206 16.501 0.39636 16.4141 0.241641 16.2593C0.0869207 16.1046 0 15.8948 0 15.676V10.7259C0 10.5071 0.0869207 10.2972 0.241641 10.1425C0.39636 9.9878 0.606206 9.90088 0.825013 9.90088H1.92503C2.14384 9.90088 2.35368 9.9878 2.5084 10.1425C2.66312 10.2972 2.75004 10.5071 2.75004 10.7259V15.676C2.75004 15.8948 2.66312 16.1046 2.5084 16.2593C2.35368 16.4141 2.14384 16.501 1.92503 16.501Z" fill="white"/>
<path d="M9.62522 16.5002H8.52521C8.3064 16.5002 8.09656 16.4133 7.94184 16.2586C7.78712 16.1039 7.7002 15.894 7.7002 15.6752V7.42511C7.7002 7.2063 7.78712 6.99646 7.94184 6.84174C8.09656 6.68702 8.3064 6.6001 8.52521 6.6001H9.62522C9.84403 6.6001 10.0539 6.68702 10.2086 6.84174C10.3633 6.99646 10.4502 7.2063 10.4502 7.42511V15.6752C10.4502 15.894 10.3633 16.1039 10.2086 16.2586C10.0539 16.4133 9.84403 16.5002 9.62522 16.5002Z" fill="white"/>
<path d="M13.4753 16.5006H12.3753C12.1565 16.5006 11.9467 16.4137 11.7919 16.2589C11.6372 16.1042 11.5503 15.8944 11.5503 15.6756V3.57538C11.5503 3.35657 11.6372 3.14673 11.7919 2.99201C11.9467 2.83729 12.1565 2.75037 12.3753 2.75037H13.4753C13.6941 2.75037 13.904 2.83729 14.0587 2.99201C14.2134 3.14673 14.3003 3.35657 14.3003 3.57538V15.6756C14.3003 15.8944 14.2134 16.1042 14.0587 16.2589C13.904 16.4137 13.6941 16.5006 13.4753 16.5006Z" fill="white"/>
<path d="M5.77513 16.5003H4.67511C4.4563 16.5003 4.24646 16.4133 4.09174 16.2586C3.93702 16.1039 3.8501 15.894 3.8501 15.6752V0.825013C3.8501 0.606206 3.93702 0.396361 4.09174 0.241641C4.24646 0.0869208 4.4563 0 4.67511 0H5.77513C5.99393 0 6.20378 0.0869208 6.3585 0.241641C6.51322 0.396361 6.60014 0.606206 6.60014 0.825013V15.6752C6.60014 15.894 6.51322 16.1039 6.3585 16.2586C6.20378 16.4133 5.99393 16.5003 5.77513 16.5003Z" fill="white"/>
</svg>
