<svg width="24" height="24" viewBox="0 0 24 24" fill="none" xmlns="http://www.w3.org/2000/svg">
<rect width="24" height="24" rx="8" fill="#3182CE"/>
<path d="M20.3571 9C19.9714 9 19.7143 9.24 19.7143 9.6V10.8H16.8214C16.6286 10.8 16.4357 10.68 16.3071 10.5C15.4714 9.36 14.1214 8.58 12.7071 8.4V7.2H13.9929C14.3786 7.2 14.6357 6.96 14.6357 6.6C14.6357 6.24 14.3786 6 13.9929 6H10.1357C9.75 6 9.49286 6.24 9.49286 6.6C9.49286 6.96 9.75 7.2 10.1357 7.2H11.4214V8.46C9.94286 8.64 8.65714 9.36 7.82143 10.56C7.62857 10.68 7.43571 10.8 7.17857 10.8H4.28571V9.6C4.28571 9.24 4.02857 9 3.64286 9C3.25714 9 3 9.24 3 9.6V16.8C3 17.16 3.25714 17.4 3.64286 17.4C4.02857 17.4 4.28571 17.16 4.28571 16.8V15.6H7.17857C7.37143 15.6 7.56429 15.72 7.69286 15.9C8.65714 17.22 10.2643 18 11.9357 18C13.6071 18 15.2786 17.22 16.1786 15.9C16.3071 15.72 16.5 15.6 16.6929 15.6H19.7143V16.8C19.7143 17.16 19.9714 17.4 20.3571 17.4C20.7429 17.4 21 17.16 21 16.8V9.6C21 9.24 20.7429 9 20.3571 9ZM13.1571 14.58C12.5786 15.12 11.4857 15.12 10.9071 14.58C10.2643 13.98 10.2643 13.08 10.9071 12.48L12 11.4L13.1571 12.48C13.7357 13.02 13.7357 13.98 13.1571 14.58Z" fill="white"/>
</svg>
