<svg width="24" height="24" viewBox="0 0 24 24" fill="none" xmlns="http://www.w3.org/2000/svg">
<rect width="24" height="24" rx="8" fill="#3182CE"/>
<path d="M6.70509 12.18C6.60803 12.1568 6.5073 12.1531 6.40882 12.1693C6.31033 12.1855 6.21607 12.2212 6.13155 12.2743C6.04703 12.3274 5.97396 12.3968 5.91661 12.4785C5.85927 12.5602 5.8188 12.6525 5.79759 12.75L5.43009 14.205C5.38986 14.3978 5.42709 14.5987 5.53374 14.7643C5.64039 14.9299 5.80791 15.0469 6.00009 15.09C6.19303 15.1376 6.39696 15.1067 6.56711 15.004C6.73726 14.9013 6.85972 14.7354 6.90759 14.5425L7.27509 13.0875C7.29833 12.9904 7.30196 12.8897 7.28578 12.7912C7.26959 12.6927 7.2339 12.5985 7.18082 12.514C7.12773 12.4294 7.05831 12.3564 6.97662 12.299C6.89493 12.2417 6.80262 12.2012 6.70509 12.18V12.18ZM19.4551 17.82L16.4551 5.82C16.4159 5.66107 16.3258 5.51934 16.1985 5.41642C16.0712 5.3135 15.9137 5.25506 15.7501 5.25H13.5001C13.3012 5.25 13.1104 5.32902 12.9698 5.46967C12.8291 5.61032 12.7501 5.80109 12.7501 6V18C12.7501 18.1989 12.8291 18.3897 12.9698 18.5303C13.1104 18.671 13.3012 18.75 13.5001 18.75H18.7501C18.864 18.7506 18.9766 18.7253 19.0792 18.6759C19.1819 18.6265 19.272 18.5544 19.3426 18.465C19.4166 18.3768 19.4693 18.2727 19.4966 18.1609C19.5239 18.049 19.5251 17.9324 19.5001 17.82H19.4551ZM14.2501 17.25V6.75H15.1651L17.7901 17.25H14.2501ZM7.80009 7.815C7.70405 7.79032 7.60406 7.78493 7.50592 7.79915C7.40779 7.81337 7.31344 7.8469 7.22835 7.89782C7.14325 7.94874 7.0691 8.01602 7.01018 8.09578C6.95126 8.17554 6.90875 8.2662 6.88509 8.3625L6.52509 9.8175C6.47751 10.0104 6.50844 10.2144 6.61109 10.3845C6.71374 10.5547 6.87973 10.6771 7.07259 10.725H7.25259C7.42392 10.73 7.59178 10.6762 7.72825 10.5724C7.86471 10.4687 7.96153 10.3214 8.00259 10.155L8.36259 8.7C8.40305 8.50824 8.36684 8.30826 8.26171 8.14286C8.15659 7.97745 7.99089 7.85977 7.80009 7.815V7.815ZM8.63259 6.75H10.1326C10.3315 6.75 10.5223 6.67098 10.6629 6.53033C10.8036 6.38968 10.8826 6.19891 10.8826 6C10.8826 5.80109 10.8036 5.61032 10.6629 5.46967C10.5223 5.32902 10.3315 5.25 10.1326 5.25H8.63259C8.43368 5.25 8.24291 5.32902 8.10226 5.46967C7.96161 5.61032 7.88259 5.80109 7.88259 6C7.88259 6.19891 7.96161 6.38968 8.10226 6.53033C8.24291 6.67098 8.43368 6.75 8.63259 6.75ZM6.18009 17.25C6.20396 17.0511 6.14784 16.8508 6.02406 16.6933C5.90029 16.5358 5.719 16.4339 5.52009 16.41C5.32118 16.3861 5.12093 16.4423 4.9634 16.566C4.80587 16.6898 4.70396 16.8711 4.68009 17.07L4.50009 17.82C4.472 17.9307 4.46956 18.0463 4.49296 18.1581C4.51635 18.2699 4.56497 18.3749 4.63509 18.465C4.70803 18.5575 4.80171 18.6314 4.90856 18.6809C5.0154 18.7305 5.1324 18.7541 5.25009 18.75H6.00009C6.199 18.7739 6.39925 18.7177 6.55678 18.594C6.71431 18.4702 6.81622 18.2889 6.84009 18.09C6.86396 17.8911 6.80784 17.6908 6.68406 17.5333C6.56029 17.3758 6.379 17.2739 6.18009 17.25ZM10.5001 7.8825C10.3012 7.8825 10.1104 7.96152 9.96976 8.10217C9.82911 8.24282 9.75009 8.43359 9.75009 8.6325V10.1325C9.75009 10.3314 9.82911 10.5222 9.96976 10.6628C10.1104 10.8035 10.3012 10.8825 10.5001 10.8825C10.699 10.8825 10.8898 10.8035 11.0304 10.6628C11.1711 10.5222 11.2501 10.3314 11.2501 10.1325V8.6325C11.2501 8.43359 11.1711 8.24282 11.0304 8.10217C10.8898 7.96152 10.699 7.8825 10.5001 7.8825ZM10.5001 12.3825C10.3012 12.3825 10.1104 12.4615 9.96976 12.6022C9.82911 12.7428 9.75009 12.9336 9.75009 13.1325V14.6325C9.75009 14.8314 9.82911 15.0222 9.96976 15.1628C10.1104 15.3035 10.3012 15.3825 10.5001 15.3825C10.699 15.3825 10.8898 15.3035 11.0304 15.1628C11.1711 15.0222 11.2501 14.8314 11.2501 14.6325V13.1325C11.2501 12.9336 11.1711 12.7428 11.0304 12.6022C10.8898 12.4615 10.699 12.3825 10.5001 12.3825ZM10.5001 16.8825C10.3699 16.8825 10.242 16.9164 10.1289 16.9809C10.0158 17.0453 9.92147 17.138 9.85509 17.25H9.00009C8.80118 17.25 8.61041 17.329 8.46976 17.4697C8.32911 17.6103 8.25009 17.8011 8.25009 18C8.25009 18.1989 8.32911 18.3897 8.46976 18.5303C8.61041 18.671 8.80118 18.75 9.00009 18.75H10.5001C10.699 18.75 10.8898 18.671 11.0304 18.5303C11.1711 18.3897 11.2501 18.1989 11.2501 18V17.6325C11.2501 17.4336 11.1711 17.2428 11.0304 17.1022C10.8898 16.9615 10.699 16.8825 10.5001 16.8825Z" fill="white"/>
</svg>
