<svg width="24" height="24" viewBox="0 0 24 24" fill="none" xmlns="http://www.w3.org/2000/svg">
<rect width="24" height="24" rx="8" fill="#3182CE"/>
<path d="M18.3195 18H5.68188C5.43826 18 5.21316 17.8623 5.09135 17.6389C4.96955 17.4154 4.96955 17.1401 5.09136 16.9166L11.4098 5.36047C11.5317 5.13738 11.7566 5 12 5C12.2434 5 12.4683 5.13738 12.5902 5.36047L18.9086 16.9166C19.0304 17.14 19.0305 17.4151 18.9088 17.6386C18.7872 17.862 18.5623 17.9997 18.3188 18H18.3195ZM11.3191 14.3887V15.8332H11.9553H11.9997H12.044H12.6816V14.3887H11.3191ZM11.3191 9.3329V12.9442H12.6829V9.3329H11.3191Z" fill="white"/>
</svg>
